<?xml version="1.0" encoding="UTF-8" standalone="no"?><svg xmlns="http://www.w3.org/2000/svg" xmlns:xlink="http://www.w3.org/1999/xlink" contentScriptType="application/ecmascript" contentStyleType="text/css" height="867px" preserveAspectRatio="none" style="width:1180px;height:867px;background:#FFFFFF;" version="1.1" viewBox="0 0 1180 867" width="1180px" zoomAndPan="magnify"><defs><filter height="300%" id="f14xp18kkxdryx" width="300%" x="-1" y="-1"><feGaussianBlur result="blurOut" stdDeviation="2.0"/><feColorMatrix in="blurOut" result="blurOut2" type="matrix" values="0 0 0 0 0 0 0 0 0 0 0 0 0 0 0 0 0 0 .4 0"/><feOffset dx="4.0" dy="4.0" in="blurOut2" result="blurOut3"/><feBlend in="SourceGraphic" in2="blurOut3" mode="normal"/></filter></defs><g><!--MD5=[f855ce3b7cea2a6d9ab48fd365bc4249]
cluster co--><polygon fill="#FFFFFF" filter="url(#f14xp18kkxdryx)" points="16,6,211,6,218,28.4883,599,28.4883,599,694,16,694,16,6" style="stroke:#000000;stroke-width:1.5;"/><line style="stroke:#000000;stroke-width:1.5;" x1="16" x2="218" y1="28.4883" y2="28.4883"/><text fill="#000000" font-family="sans-serif" font-size="14" font-weight="bold" lengthAdjust="spacing" textLength="189" x="20" y="21.5352">Company Oceanic Airlines</text><!--MD5=[ed0c5869891ee06335b17db28e1f8bab]
cluster co_scp1--><polygon fill="#FFFFFF" filter="url(#f14xp18kkxdryx)" points="40,49,232,49,239,71.4883,575,71.4883,575,670,40,670,40,49" style="stroke:#000000;stroke-width:1.5;"/><line style="stroke:#000000;stroke-width:1.5;" x1="40" x2="239" y1="71.4883" y2="71.4883"/><text fill="#000000" font-family="sans-serif" font-size="14" font-weight="bold" lengthAdjust="spacing" textLength="186" x="44" y="64.5352">Booking system (Scope 1)</text><!--MD5=[450a7529c974077c3e9b23209cf8cbde]
cluster co_scp1_d4_cache--><rect fill="#FFFFFF" filter="url(#f14xp18kkxdryx)" height="123" style="stroke:#000000;stroke-width:1.5;" width="219" x="289" y="350"/><line style="stroke:#000000;stroke-width:1.5;" x1="289" x2="508" y1="370.4883" y2="370.4883"/><text fill="#000000" font-family="sans-serif" font-size="14" font-weight="bold" lengthAdjust="spacing" textLength="62" x="367.5" y="365.5352">d4 cache</text><!--MD5=[0c39adaeb58fd1a7ca1c9ede80b29545]
cluster co_scp1_d4_ui--><rect fill="#FFFFFF" filter="url(#f14xp18kkxdryx)" height="123" style="stroke:#000000;stroke-width:1.5;" width="94" x="365" y="92"/><line style="stroke:#000000;stroke-width:1.5;" x1="365" x2="459" y1="112.4883" y2="112.4883"/><text fill="#000000" font-family="sans-serif" font-size="14" font-weight="bold" lengthAdjust="spacing" textLength="38" x="393" y="107.5352">d4 UI</text><!--MD5=[4eaba7d9e2ea9dd6ea0c1982d4908491]
cluster co_scp1_d4_adpt--><rect fill="#FFFFFF" filter="url(#f14xp18kkxdryx)" height="118" style="stroke:#000000;stroke-width:1.5;" width="189" x="64" y="352.5"/><line style="stroke:#000000;stroke-width:1.5;" x1="64" x2="253" y1="372.9883" y2="372.9883"/><text fill="#000000" font-family="sans-serif" font-size="14" font-weight="bold" lengthAdjust="spacing" textLength="77" x="120" y="368.0352">d4 adapter</text><!--MD5=[1035137668336d8ecd6582f6df806ab3]
cluster ca--><polygon fill="#FFFFFF" filter="url(#f14xp18kkxdryx)" points="623,264,742,264,749,286.4883,1163,286.4883,1163,860,623,860,623,264" style="stroke:#000000;stroke-width:1.5;"/><line style="stroke:#000000;stroke-width:1.5;" x1="623" x2="749" y1="286.4883" y2="286.4883"/><text fill="#000000" font-family="sans-serif" font-size="14" font-weight="bold" lengthAdjust="spacing" textLength="113" x="627" y="279.5352">Company ACME</text><!--MD5=[de8b6c6ae91bde3b34a9009c86eb3982]
cluster ca_scp2--><polygon fill="#FFFFFF" filter="url(#f14xp18kkxdryx)" points="647,307,788,307,795,329.4883,1139,329.4883,1139,836,647,836,647,307" style="stroke:#000000;stroke-width:1.5;"/><line style="stroke:#000000;stroke-width:1.5;" x1="647" x2="795" y1="329.4883" y2="329.4883"/><text fill="#000000" font-family="sans-serif" font-size="14" font-weight="bold" lengthAdjust="spacing" textLength="135" x="651" y="322.5352">Compute (Scope 2)</text><!--MD5=[41fd419428b5dce0a22f5730d7e17cef]
cluster ca_scp2_d4_prxy--><rect fill="#FFFFFF" filter="url(#f14xp18kkxdryx)" height="123" style="stroke:#000000;stroke-width:1.5;" width="102" x="786" y="350"/><line style="stroke:#000000;stroke-width:1.5;" x1="786" x2="888" y1="370.4883" y2="370.4883"/><text fill="#000000" font-family="sans-serif" font-size="14" font-weight="bold" lengthAdjust="spacing" textLength="63" x="805.5" y="365.5352">d4 proxy</text><!--MD5=[0ed037634904448588212b030c8939eb]
cluster ca_scp2_d4_cache--><rect fill="#FFFFFF" filter="url(#f14xp18kkxdryx)" height="123" style="stroke:#000000;stroke-width:1.5;" width="219" x="896" y="534"/><line style="stroke:#000000;stroke-width:1.5;" x1="896" x2="1115" y1="554.4883" y2="554.4883"/><text fill="#000000" font-family="sans-serif" font-size="14" font-weight="bold" lengthAdjust="spacing" textLength="62" x="974.5" y="549.5352">d4 cache</text><!--MD5=[af61b450baf6975ad9d8be86dae42258]
cluster ca_scp2_d4_adpt--><rect fill="#FFFFFF" filter="url(#f14xp18kkxdryx)" height="118" style="stroke:#000000;stroke-width:1.5;" width="189" x="671" y="536.5"/><line style="stroke:#000000;stroke-width:1.5;" x1="671" x2="860" y1="556.9883" y2="556.9883"/><text fill="#000000" font-family="sans-serif" font-size="14" font-weight="bold" lengthAdjust="spacing" textLength="77" x="727" y="552.0352">d4 adapter</text><!--MD5=[8d57b0c810ba08cbf7648427ae9416d7]
entity co_scp1_ds5--><polygon fill="#FEFECE" filter="url(#f14xp18kkxdryx)" points="116.5,585,126.5,575,271.5,575,271.5,644.4648,261.5,654.4648,116.5,654.4648,116.5,585" style="stroke:#000000;stroke-width:1.5;"/><line style="stroke:#000000;stroke-width:1.5;" x1="261.5" x2="271.5" y1="585" y2="575"/><line style="stroke:#000000;stroke-width:1.5;" x1="116.5" x2="261.5" y1="585" y2="585"/><line style="stroke:#000000;stroke-width:1.5;" x1="261.5" x2="261.5" y1="585" y2="654.4648"/><text fill="#000000" font-family="sans-serif" font-size="14" lengthAdjust="spacing" textLength="60" x="131.5" y="608.5352">(foreign)</text><text fill="#000000" font-family="sans-serif" font-size="14" lengthAdjust="spacing" textLength="89" x="131.5" y="625.0234">datasource 5</text><text fill="#000000" font-family="sans-serif" font-size="14" lengthAdjust="spacing" textLength="115" x="131.5" y="641.5117">booking systems</text><!--MD5=[240580b7fcc1127d21e5aea14a35939f]
entity co_scp1_d4_actor_ui--><ellipse cx="543" cy="399.5" fill="#FEFECE" filter="url(#f14xp18kkxdryx)" rx="8" ry="8" style="stroke:#A80036;stroke-width:1.5;"/><path d="M543,407.5 L543,434.5 M530,415.5 L556,415.5 M543,434.5 L530,449.5 M543,434.5 L556,449.5 " fill="none" filter="url(#f14xp18kkxdryx)" style="stroke:#A80036;stroke-width:1.5;"/><text fill="#000000" font-family="sans-serif" font-size="14" lengthAdjust="spacing" textLength="31" x="527.5" y="468.5352">User</text><!--MD5=[47b80d92bd0b73936f7afb5300f84129]
entity co_scp1_d4_cache_rest--><rect fill="#FEFECE" filter="url(#f14xp18kkxdryx)" height="52.9766" style="stroke:#000000;stroke-width:1.5;" width="80" x="305" y="404"/><text fill="#000000" font-family="sans-serif" font-size="14" lengthAdjust="spacing" textLength="42" x="315" y="427.5352">REST-</text><text fill="#000000" font-family="sans-serif" font-size="14" lengthAdjust="spacing" textLength="60" x="315" y="444.0234">interface</text><!--MD5=[ae3a18c661afdcd36e265938e6b0452c]
entity co_scp1_d4_cache_store--><rect fill="#FEFECE" filter="url(#f14xp18kkxdryx)" height="52.9766" rx="35" ry="35" style="stroke:#000000;stroke-width:1.5;" width="72" x="420" y="404"/><text fill="#000000" font-family="sans-serif" font-size="14" lengthAdjust="spacing" textLength="49" x="430" y="427.5352">volatile</text><text fill="#000000" font-family="sans-serif" font-size="14" lengthAdjust="spacing" textLength="52" x="430" y="444.0234">storage</text><!--MD5=[5a1f62bd619650d13bd2bc734348f221]
entity co_scp1_d4_ui_srv--><rect fill="#FEFECE" filter="url(#f14xp18kkxdryx)" height="52.9766" style="stroke:#000000;stroke-width:1.5;" width="62" x="381" y="146"/><text fill="#000000" font-family="sans-serif" font-size="14" lengthAdjust="spacing" textLength="14" x="391" y="169.5352">UI</text><text fill="#000000" font-family="sans-serif" font-size="14" lengthAdjust="spacing" textLength="42" x="391" y="186.0234">server</text><!--MD5=[3f9adc6ea4bb4231fc07f9f8fb515f18]
entity co_scp1_d4_adpt_timer--><ellipse cx="98" cy="422.5" fill="#FEFECE" filter="url(#f14xp18kkxdryx)" rx="12" ry="12" style="stroke:#A80036;stroke-width:1.5;"/><polygon fill="#A80036" points="94,410.5,100,405.5,98,410.5,100,415.5,94,410.5" style="stroke:#A80036;stroke-width:1.0;"/><text fill="#000000" font-family="sans-serif" font-size="14" lengthAdjust="spacing" textLength="36" x="80" y="452.0352">timer</text><!--MD5=[79f4465d5934d0c0cb8f74cfa69d3719]
entity co_scp1_d4_adpt_conv--><rect fill="#FEFECE" filter="url(#f14xp18kkxdryx)" height="36.4883" style="stroke:#000000;stroke-width:1.5;" width="85" x="151.5" y="412.5"/><text fill="#000000" font-family="sans-serif" font-size="14" lengthAdjust="spacing" textLength="65" x="161.5" y="436.0352">converter</text><!--MD5=[d9b3fc71efe15917f63df7d0075e5dcc]
entity ca_scp2_ds4--><polygon fill="#FEFECE" filter="url(#f14xp18kkxdryx)" points="735,751,745,741,867,741,867,810.4648,857,820.4648,735,820.4648,735,751" style="stroke:#000000;stroke-width:1.5;"/><line style="stroke:#000000;stroke-width:1.5;" x1="857" x2="867" y1="751" y2="741"/><line style="stroke:#000000;stroke-width:1.5;" x1="735" x2="857" y1="751" y2="751"/><line style="stroke:#000000;stroke-width:1.5;" x1="857" x2="857" y1="751" y2="820.4648"/><text fill="#000000" font-family="sans-serif" font-size="14" lengthAdjust="spacing" textLength="60" x="750" y="774.5352">(foreign)</text><text fill="#000000" font-family="sans-serif" font-size="14" lengthAdjust="spacing" textLength="89" x="750" y="791.0234">datasource 4</text><text fill="#000000" font-family="sans-serif" font-size="14" lengthAdjust="spacing" textLength="92" x="750" y="807.5117">compute VMs</text><!--MD5=[46383afacf8ea18edf5241e594b1c30f]
entity ca_scp2_d4_prxy_conv--><rect fill="#FEFECE" filter="url(#f14xp18kkxdryx)" height="52.9766" style="stroke:#000000;stroke-width:1.5;" width="70" x="802" y="404"/><text fill="#000000" font-family="sans-serif" font-size="14" lengthAdjust="spacing" textLength="50" x="812" y="427.5352">reverse</text><text fill="#000000" font-family="sans-serif" font-size="14" lengthAdjust="spacing" textLength="40" x="812" y="444.0234">proxy</text><!--MD5=[64b92ba91121dfb82294f6eb968aa6ae]
entity ca_scp2_d4_cache_rest--><rect fill="#FEFECE" filter="url(#f14xp18kkxdryx)" height="52.9766" style="stroke:#000000;stroke-width:1.5;" width="80" x="912" y="588"/><text fill="#000000" font-family="sans-serif" font-size="14" lengthAdjust="spacing" textLength="42" x="922" y="611.5352">REST-</text><text fill="#000000" font-family="sans-serif" font-size="14" lengthAdjust="spacing" textLength="60" x="922" y="628.0234">interface</text><!--MD5=[c79392e4c8fe37ef2ac1df4b129732fa]
entity ca_scp2_d4_cache_store--><rect fill="#FEFECE" filter="url(#f14xp18kkxdryx)" height="52.9766" rx="35" ry="35" style="stroke:#000000;stroke-width:1.5;" width="72" x="1027" y="588"/><text fill="#000000" font-family="sans-serif" font-size="14" lengthAdjust="spacing" textLength="49" x="1037" y="611.5352">volatile</text><text fill="#000000" font-family="sans-serif" font-size="14" lengthAdjust="spacing" textLength="52" x="1037" y="628.0234">storage</text><!--MD5=[2ccf01c1d642166b56b9c9fba395c0b1]
entity ca_scp2_d4_adpt_timer--><ellipse cx="705" cy="606.5" fill="#FEFECE" filter="url(#f14xp18kkxdryx)" rx="12" ry="12" style="stroke:#A80036;stroke-width:1.5;"/><polygon fill="#A80036" points="701,594.5,707,589.5,705,594.5,707,599.5,701,594.5" style="stroke:#A80036;stroke-width:1.0;"/><text fill="#000000" font-family="sans-serif" font-size="14" lengthAdjust="spacing" textLength="36" x="687" y="636.0352">timer</text><!--MD5=[c3501e5f4a2180a94e242530c84fc64e]
entity ca_scp2_d4_adpt_conv--><rect fill="#FEFECE" filter="url(#f14xp18kkxdryx)" height="36.4883" style="stroke:#000000;stroke-width:1.5;" width="85" x="758.5" y="596.5"/><text fill="#000000" font-family="sans-serif" font-size="14" lengthAdjust="spacing" textLength="65" x="768.5" y="620.0352">converter</text><!--MD5=[8ce745e021beb79461082d6f63e56fd0]
link co_scp1_d4_cache_rest to co_scp1_d4_cache_store--><path d="M390.45,430.5 C398.56,430.5 406.67,430.5 414.78,430.5 " fill="none" id="co_scp1_d4_cache_rest-co_scp1_d4_cache_store" style="stroke:#008000;stroke-width:1.0;"/><polygon fill="#008000" points="419.83,430.5,410.83,426.5,414.83,430.5,410.83,434.5,419.83,430.5" style="stroke:#008000;stroke-width:1.0;"/><polygon fill="#008000" points="385.32,430.5,394.32,434.5,390.32,430.5,394.32,426.5,385.32,430.5" style="stroke:#008000;stroke-width:1.0;"/><!--MD5=[7881b4e10dfec9cc7f5c87b3306ec486]
reverse link co_scp1_d4_ui_srv to co_scp1_d4_actor_ui--><path d="M447.6,195.32 C468.41,209.94 493.38,231.04 508,256 C532.23,297.36 539.93,352.74 542.24,389.69 " fill="none" id="co_scp1_d4_ui_srv-backto-co_scp1_d4_actor_ui" style="stroke:#A80036;stroke-width:1.0;"/><polygon fill="#A80036" points="443.23,192.3,448.3605,200.707,447.3435,195.1423,452.9082,194.1254,443.23,192.3" style="stroke:#A80036;stroke-width:1.0;"/><text fill="#000000" font-family="sans-serif" font-size="13" lengthAdjust="spacing" textLength="24" x="503" y="244.5684">GET</text><!--MD5=[cd956894885fb614aafda40abe851a7d]
reverse link co_scp1_d4_cache_rest to co_scp1_d4_actor_ui--><path d="M347.36,398.97 C351.87,363.94 364.96,308.92 403,283 C441.57,256.72 471.39,254.06 508,283 C539.49,307.89 545.88,355.47 545.9,389.87 " fill="none" id="co_scp1_d4_cache_rest-backto-co_scp1_d4_actor_ui" style="stroke:#A80036;stroke-width:1.0;"/><polygon fill="#A80036" points="346.76,403.98,351.8096,395.5241,347.3591,399.016,343.8672,394.5656,346.76,403.98" style="stroke:#A80036;stroke-width:1.0;"/><text fill="#000000" font-family="sans-serif" font-size="13" lengthAdjust="spacing" textLength="24" x="406" y="244.5684">GET</text><!--MD5=[2bfa24cb0c166bd656e9f5db5fb23b9e]
link co_scp1_d4_adpt_timer to co_scp1_d4_adpt_conv--><path d="M116.38,430.5 C128,430.5 139.62,430.5 151.25,430.5 " fill="none" id="co_scp1_d4_adpt_timer-co_scp1_d4_adpt_conv" style="stroke:#A80036;stroke-width:1.0;"/><!--MD5=[6442743bc19758ec92e2bb6fa82053e4]
link co_scp1_d4_adpt_conv to co_scp1_ds5--><path d="M194,448.62 C194,477.29 194,535.7 194,574.73 " fill="none" id="co_scp1_d4_adpt_conv-co_scp1_ds5" style="stroke:#A80036;stroke-width:1.0;stroke-dasharray:7.0,7.0;"/><!--MD5=[00dcc7bf66f5e52a189804094a92e581]
link co_scp1_d4_adpt_conv to co_scp1_d4_cache_rest--><path d="M236.87,430.5 C256.48,430.5 279.72,430.5 299.63,430.5 " fill="none" id="co_scp1_d4_adpt_conv-to-co_scp1_d4_cache_rest" style="stroke:#A80036;stroke-width:1.0;"/><polygon fill="#A80036" points="304.88,430.5,295.88,426.5,299.88,430.5,295.88,434.5,304.88,430.5" style="stroke:#A80036;stroke-width:1.0;"/><text fill="#000000" font-family="sans-serif" font-size="13" lengthAdjust="spacing" textLength="32" x="254.75" y="424.0684">POST</text><!--MD5=[06792120fe99c0dcdbedc112072a940a]
link co_scp1_d4_ui_srv to co_scp1_d4_cache_rest--><path d="M380.99,190.59 C366.59,200.36 350.94,214.05 343,231 C317.47,285.51 327.71,358.04 336.79,398.62 " fill="none" id="co_scp1_d4_ui_srv-to-co_scp1_d4_cache_rest" style="stroke:#A80036;stroke-width:1.0;"/><polygon fill="#A80036" points="338,403.89,339.8925,394.2247,336.8851,399.0159,332.0939,396.0085,338,403.89" style="stroke:#A80036;stroke-width:1.0;"/><text fill="#000000" font-family="sans-serif" font-size="13" lengthAdjust="spacing" textLength="24" x="344" y="244.5684">GET</text><!--MD5=[e550bb526413d9010581ae86a23b10f6]
link ca_scp2_d4_cache_rest to ca_scp2_d4_cache_store--><path d="M997.45,614.5 C1005.56,614.5 1013.67,614.5 1021.78,614.5 " fill="none" id="ca_scp2_d4_cache_rest-ca_scp2_d4_cache_store" style="stroke:#008000;stroke-width:1.0;"/><polygon fill="#008000" points="1026.83,614.5,1017.83,610.5,1021.83,614.5,1017.83,618.5,1026.83,614.5" style="stroke:#008000;stroke-width:1.0;"/><polygon fill="#008000" points="992.32,614.5,1001.32,618.5,997.32,614.5,1001.32,610.5,992.32,614.5" style="stroke:#008000;stroke-width:1.0;"/><!--MD5=[b614ff47d788ed0398363111d71d82bd]
link ca_scp2_d4_adpt_timer to ca_scp2_d4_adpt_conv--><path d="M723.38,614.5 C735,614.5 746.62,614.5 758.25,614.5 " fill="none" id="ca_scp2_d4_adpt_timer-ca_scp2_d4_adpt_conv" style="stroke:#A80036;stroke-width:1.0;"/><!--MD5=[eef2c1396ae466e40f562f541fb7cf47]
link ca_scp2_d4_adpt_conv to ca_scp2_ds4--><path d="M801,632.74 C801,658.23 801,706.66 801,740.9 " fill="none" id="ca_scp2_d4_adpt_conv-ca_scp2_ds4" style="stroke:#A80036;stroke-width:1.0;stroke-dasharray:7.0,7.0;"/><!--MD5=[46e2eedb1ee72f94afeeaca75169cf83]
link ca_scp2_d4_adpt_conv to ca_scp2_d4_cache_rest--><path d="M843.87,614.5 C863.48,614.5 886.72,614.5 906.63,614.5 " fill="none" id="ca_scp2_d4_adpt_conv-to-ca_scp2_d4_cache_rest" style="stroke:#A80036;stroke-width:1.0;"/><polygon fill="#A80036" points="911.88,614.5,902.88,610.5,906.88,614.5,902.88,618.5,911.88,614.5" style="stroke:#A80036;stroke-width:1.0;"/><text fill="#000000" font-family="sans-serif" font-size="13" lengthAdjust="spacing" textLength="32" x="861.75" y="608.0684">POST</text><!--MD5=[eaa82ef11c142f0408b80aa34f6b413c]
link ca_scp2_d4_prxy_conv to ca_scp2_d4_cache_rest--><path d="M853.23,457.19 C874.21,490.39 910.67,548.09 932.94,583.33 " fill="none" id="ca_scp2_d4_prxy_conv-to-ca_scp2_d4_cache_rest" style="stroke:#A80036;stroke-width:1.0;"/><polygon fill="#A80036" points="935.85,587.94,934.4248,578.1948,933.1795,583.7129,927.6614,582.4676,935.85,587.94" style="stroke:#A80036;stroke-width:1.0;"/><text fill="#000000" font-family="sans-serif" font-size="13" lengthAdjust="spacing" textLength="24" x="892" y="514.5684">GET</text><!--MD5=[d0ff972dcb3f529311540e4a55c55075]
link co_scp1_d4_actor_ui to ca_scp2_d4_prxy_conv--><path d="M558.81,430.5 C603.39,430.5 731.13,430.5 796.86,430.5 " fill="none" id="co_scp1_d4_actor_ui-to-ca_scp2_d4_prxy_conv" style="stroke:#A80036;stroke-width:1.0;"/><polygon fill="#A80036" points="801.87,430.5,792.87,426.5,796.87,430.5,792.87,434.5,801.87,430.5" style="stroke:#A80036;stroke-width:1.0;"/><text fill="#000000" font-family="sans-serif" font-size="13" lengthAdjust="spacing" textLength="24" x="668.25" y="424.0684">GET</text><!--MD5=[f5cbb12c66c044b6aad9906506315b47]
@startuml
!include include/d4_inc_scope.puml


package co as "Company Oceanic Airlines" {
    $d4scope(co, scp1, "Booking system (Scope 1)", $show_ds5=true, $show_rproxy=false, $show_cache=true, $show_ui=true, $show_ui_user=true, $show_adpt=true)
}

package ca as "Company ACME" {
    $d4scope(ca, scp2, "Compute (Scope 2)", $show_ds4=true, $show_rproxy=true, $show_cache=true, $show_ui=false, $show_ui_user=false, $show_adpt=true)

}

co_scp1_d4_actor_ui -> ca_scp2_d4_prxy_conv : GET
@enduml

@startuml

skinparam LegendFontSize 8











package co as "Company Oceanic Airlines" {
        package co_scp1 as "Booking system (Scope 1)" {





            node co_scp1_ds5 as "(foreign)\ndatasource 5\nbooking systems"


                card co_scp1_d4_cache as "d4 cache" {
        rectangle co_scp1_d4_cache_rest as "REST-\ninterface"
        storage co_scp1_d4_cache_store as "volatile\nstorage"
        co_scp1_d4_cache_store <-l-> co_scp1_d4_cache_rest #green
    }

                card co_scp1_d4_ui as "d4 UI" {
        rectangle co_scp1_d4_ui_srv as "UI\nserver"
    }

            actor co_scp1_d4_actor_ui as "User"
            co_scp1_d4_actor_ui -l-> co_scp1_d4_ui_srv : GET

            co_scp1_d4_cache_rest <- co_scp1_d4_actor_ui : GET

                card co_scp1_d4_adpt as "d4 adapter" {
        control co_scp1_d4_adpt_timer as "timer"
        rectangle co_scp1_d4_adpt_conv as "converter"
        co_scp1_d4_adpt_timer -r- co_scp1_d4_adpt_conv
    }





            co_scp1_ds5 .u. co_scp1_d4_adpt_conv

            co_scp1_d4_adpt_conv -r-> co_scp1_d4_cache_rest : POST


            co_scp1_d4_ui_srv -d-> co_scp1_d4_cache_rest : GET

    }
}

package ca as "Company ACME" {
        package ca_scp2 as "Compute (Scope 2)" {




            node ca_scp2_ds4 as "(foreign)\ndatasource 4\ncompute VMs"


                card ca_scp2_d4_prxy as "d4 proxy" {
        rectangle ca_scp2_d4_prxy_conv as "reverse\nproxy"
    }

                card ca_scp2_d4_cache as "d4 cache" {
        rectangle ca_scp2_d4_cache_rest as "REST-\ninterface"
        storage ca_scp2_d4_cache_store as "volatile\nstorage"
        ca_scp2_d4_cache_store <-l-> ca_scp2_d4_cache_rest #green
    }




                card ca_scp2_d4_adpt as "d4 adapter" {
        control ca_scp2_d4_adpt_timer as "timer"
        rectangle ca_scp2_d4_adpt_conv as "converter"
        ca_scp2_d4_adpt_timer -r- ca_scp2_d4_adpt_conv
    }




            ca_scp2_ds4 .u. ca_scp2_d4_adpt_conv


            ca_scp2_d4_adpt_conv -r-> ca_scp2_d4_cache_rest : POST

            ca_scp2_d4_prxy_conv -d-> ca_scp2_d4_cache_rest : GET


    }

}

co_scp1_d4_actor_ui -> ca_scp2_d4_prxy_conv : GET
@enduml

PlantUML version 1.2021.14(Fri Nov 12 17:46:50 CET 2021)
(GPL source distribution)
Java Runtime: OpenJDK Runtime Environment
JVM: OpenJDK 64-Bit Server VM
Default Encoding: UTF-8
Language: de
Country: DE
--></g></svg>