<?xml version="1.0" encoding="UTF-8" standalone="no"?><svg xmlns="http://www.w3.org/2000/svg" xmlns:xlink="http://www.w3.org/1999/xlink" contentScriptType="application/ecmascript" contentStyleType="text/css" height="534px" preserveAspectRatio="none" style="width:613px;height:534px;background:#FFFFFF;" version="1.1" viewBox="0 0 613 534" width="613px" zoomAndPan="magnify"><defs><filter height="300%" id="f1rpj2drwyma76" width="300%" x="-1" y="-1"><feGaussianBlur result="blurOut" stdDeviation="2.0"/><feColorMatrix in="blurOut" result="blurOut2" type="matrix" values="0 0 0 0 0 0 0 0 0 0 0 0 0 0 0 0 0 0 .4 0"/><feOffset dx="4.0" dy="4.0" in="blurOut2" result="blurOut3"/><feBlend in="SourceGraphic" in2="blurOut3" mode="normal"/></filter></defs><g><!--MD5=[1035137668336d8ecd6582f6df806ab3]
cluster ca--><polygon fill="#FFFFFF" filter="url(#f1rpj2drwyma76)" points="16,6,135,6,142,28.4883,596,28.4883,596,527,16,527,16,6" style="stroke:#000000;stroke-width:1.5;"/><line style="stroke:#000000;stroke-width:1.5;" x1="16" x2="142" y1="28.4883" y2="28.4883"/><text fill="#000000" font-family="sans-serif" font-size="14" font-weight="bold" lengthAdjust="spacing" textLength="113" x="20" y="21.5352">Company ACME</text><!--MD5=[dea034dd557578f17a57532622942fa0]
cluster ca_scp1--><polygon fill="#FFFFFF" filter="url(#f1rpj2drwyma76)" points="40,49,200,49,207,71.4883,532,71.4883,532,503,40,503,40,49" style="stroke:#000000;stroke-width:1.5;"/><line style="stroke:#000000;stroke-width:1.5;" x1="40" x2="207" y1="71.4883" y2="71.4883"/><text fill="#000000" font-family="sans-serif" font-size="14" font-weight="bold" lengthAdjust="spacing" textLength="154" x="44" y="64.5352">Networking (Scope 1)</text><!--MD5=[d48fbda33315262dba176fdfb6aaed82]
cluster ca_scp1_d4_prxy--><rect fill="#FFFFFF" filter="url(#f1rpj2drwyma76)" height="104" style="stroke:#000000;stroke-width:1.5;" width="102" x="357" y="92"/><line style="stroke:#000000;stroke-width:1.5;" x1="357" x2="459" y1="112.4883" y2="112.4883"/><text fill="#000000" font-family="sans-serif" font-size="14" font-weight="bold" lengthAdjust="spacing" textLength="63" x="376.5" y="107.5352">d4 proxy</text><!--MD5=[a172b5daa5e9006c18af5cf4701e7a0c]
cluster ca_scp1_d4_cache--><rect fill="#FFFFFF" filter="url(#f1rpj2drwyma76)" height="104" style="stroke:#000000;stroke-width:1.5;" width="219" x="289" y="245"/><line style="stroke:#000000;stroke-width:1.5;" x1="289" x2="508" y1="265.4883" y2="265.4883"/><text fill="#000000" font-family="sans-serif" font-size="14" font-weight="bold" lengthAdjust="spacing" textLength="62" x="367.5" y="260.5352">d4 cache</text><!--MD5=[fabf52ac740be3bee4e1c249ef44a8fc]
cluster ca_scp1_d4_adpt--><rect fill="#FFFFFF" filter="url(#f1rpj2drwyma76)" height="99" style="stroke:#000000;stroke-width:1.5;" width="189" x="64" y="247.5"/><line style="stroke:#000000;stroke-width:1.5;" x1="64" x2="253" y1="267.9883" y2="267.9883"/><text fill="#000000" font-family="sans-serif" font-size="14" font-weight="bold" lengthAdjust="spacing" textLength="77" x="120" y="263.0352">d4 adapter</text><!--MD5=[bf23e4a353df9dda7ef9d9f285c801d6]
entity ca_scp1_d4_actor_rproxy--><ellipse cx="564" cy="275.5" fill="#FEFECE" filter="url(#f1rpj2drwyma76)" rx="8" ry="8" style="stroke:#A80036;stroke-width:1.5;"/><path d="M564,283.5 L564,310.5 M551,291.5 L577,291.5 M564,310.5 L551,325.5 M564,310.5 L577,325.5 " fill="none" filter="url(#f1rpj2drwyma76)" style="stroke:#A80036;stroke-width:1.5;"/><text fill="#000000" font-family="sans-serif" font-size="14" lengthAdjust="spacing" textLength="31" x="548.5" y="344.5352">User</text><!--MD5=[5a96453d9da75a3ce2c408dca49ca6c1]
entity ca_scp1_ds1--><polygon fill="#FEFECE" filter="url(#f1rpj2drwyma76)" points="89.5,418,99.5,408,218.5,408,218.5,477.4648,208.5,487.4648,89.5,487.4648,89.5,418" style="stroke:#000000;stroke-width:1.5;"/><line style="stroke:#000000;stroke-width:1.5;" x1="208.5" x2="218.5" y1="418" y2="408"/><line style="stroke:#000000;stroke-width:1.5;" x1="89.5" x2="208.5" y1="418" y2="418"/><line style="stroke:#000000;stroke-width:1.5;" x1="208.5" x2="208.5" y1="418" y2="487.4648"/><text fill="#000000" font-family="sans-serif" font-size="14" lengthAdjust="spacing" textLength="60" x="104.5" y="441.5352">(foreign)</text><text fill="#000000" font-family="sans-serif" font-size="14" lengthAdjust="spacing" textLength="89" x="104.5" y="458.0234">datasource 1</text><text fill="#000000" font-family="sans-serif" font-size="14" lengthAdjust="spacing" textLength="88" x="104.5" y="474.5117">firewall rules</text><!--MD5=[494834349b401b36fa832acd8798cb44]
entity ca_scp1_ds2--><polygon fill="#FEFECE" filter="url(#f1rpj2drwyma76)" points="254,418,264,408,390,408,390,477.4648,380,487.4648,254,487.4648,254,418" style="stroke:#000000;stroke-width:1.5;"/><line style="stroke:#000000;stroke-width:1.5;" x1="380" x2="390" y1="418" y2="408"/><line style="stroke:#000000;stroke-width:1.5;" x1="254" x2="380" y1="418" y2="418"/><line style="stroke:#000000;stroke-width:1.5;" x1="380" x2="380" y1="418" y2="487.4648"/><text fill="#000000" font-family="sans-serif" font-size="14" lengthAdjust="spacing" textLength="60" x="269" y="441.5352">(foreign)</text><text fill="#000000" font-family="sans-serif" font-size="14" lengthAdjust="spacing" textLength="89" x="269" y="458.0234">datasource 2</text><text fill="#000000" font-family="sans-serif" font-size="14" lengthAdjust="spacing" textLength="96" x="269" y="474.5117">routing tables</text><!--MD5=[df9798fedb3f6cd9fa6e5f247874aa33]
entity ca_scp1_d4_prxy_conv--><rect fill="#FEFECE" filter="url(#f1rpj2drwyma76)" height="52.9766" style="stroke:#000000;stroke-width:1.5;" width="70" x="373" y="127"/><text fill="#000000" font-family="sans-serif" font-size="14" lengthAdjust="spacing" textLength="50" x="383" y="150.5352">reverse</text><text fill="#000000" font-family="sans-serif" font-size="14" lengthAdjust="spacing" textLength="40" x="383" y="167.0234">proxy</text><!--MD5=[e1dbf49cf27afbeba64e24a0ce70e6ae]
entity ca_scp1_d4_cache_rest--><rect fill="#FEFECE" filter="url(#f1rpj2drwyma76)" height="52.9766" style="stroke:#000000;stroke-width:1.5;" width="80" x="305" y="280"/><text fill="#000000" font-family="sans-serif" font-size="14" lengthAdjust="spacing" textLength="42" x="315" y="303.5352">REST-</text><text fill="#000000" font-family="sans-serif" font-size="14" lengthAdjust="spacing" textLength="60" x="315" y="320.0234">interface</text><!--MD5=[e1975c8101ca07b4f270cc47b82c0507]
entity ca_scp1_d4_cache_store--><rect fill="#FEFECE" filter="url(#f1rpj2drwyma76)" height="52.9766" rx="35" ry="35" style="stroke:#000000;stroke-width:1.5;" width="72" x="420" y="280"/><text fill="#000000" font-family="sans-serif" font-size="14" lengthAdjust="spacing" textLength="49" x="430" y="303.5352">volatile</text><text fill="#000000" font-family="sans-serif" font-size="14" lengthAdjust="spacing" textLength="52" x="430" y="320.0234">storage</text><!--MD5=[99ca27a3366a70301b91daf5299cc400]
entity ca_scp1_d4_adpt_timer--><ellipse cx="98" cy="298.5" fill="#FEFECE" filter="url(#f1rpj2drwyma76)" rx="12" ry="12" style="stroke:#A80036;stroke-width:1.5;"/><polygon fill="#A80036" points="94,286.5,100,281.5,98,286.5,100,291.5,94,286.5" style="stroke:#A80036;stroke-width:1.0;"/><text fill="#000000" font-family="sans-serif" font-size="14" lengthAdjust="spacing" textLength="36" x="80" y="328.0352">timer</text><!--MD5=[22101d0641ed2f80e49c63bcd53fe6bb]
entity ca_scp1_d4_adpt_conv--><rect fill="#FEFECE" filter="url(#f1rpj2drwyma76)" height="36.4883" style="stroke:#000000;stroke-width:1.5;" width="85" x="151.5" y="288.5"/><text fill="#000000" font-family="sans-serif" font-size="14" lengthAdjust="spacing" textLength="65" x="161.5" y="312.0352">converter</text><!--MD5=[4f8664ab5dc667180f9cba4786c5fbf7]
link ca_scp1_d4_cache_rest to ca_scp1_d4_cache_store--><path d="M390.45,306.5 C398.56,306.5 406.67,306.5 414.78,306.5 " fill="none" id="ca_scp1_d4_cache_rest-ca_scp1_d4_cache_store" style="stroke:#008000;stroke-width:1.0;"/><polygon fill="#008000" points="419.83,306.5,410.83,302.5,414.83,306.5,410.83,310.5,419.83,306.5" style="stroke:#008000;stroke-width:1.0;"/><polygon fill="#008000" points="385.32,306.5,394.32,310.5,390.32,306.5,394.32,302.5,385.32,306.5" style="stroke:#008000;stroke-width:1.0;"/><!--MD5=[4b5965c76b5b5f656aeae5e76be5074b]
link ca_scp1_d4_adpt_timer to ca_scp1_d4_adpt_conv--><path d="M116.38,306.5 C128,306.5 139.62,306.5 151.25,306.5 " fill="none" id="ca_scp1_d4_adpt_timer-ca_scp1_d4_adpt_conv" style="stroke:#A80036;stroke-width:1.0;"/><!--MD5=[3637ca738a5c7b0320b423c41ff7e0a5]
link ca_scp1_d4_adpt_conv to ca_scp1_ds1--><path d="M189.1,324.54 C183.17,345.13 173.02,380.4 165.16,407.73 " fill="none" id="ca_scp1_d4_adpt_conv-ca_scp1_ds1" style="stroke:#A80036;stroke-width:1.0;stroke-dasharray:7.0,7.0;"/><!--MD5=[294e57bf6f39a09d9b12b04ec6d40614]
link ca_scp1_d4_adpt_conv to ca_scp1_ds2--><path d="M209.7,324.54 C228.65,345.13 261.13,380.4 286.3,407.73 " fill="none" id="ca_scp1_d4_adpt_conv-ca_scp1_ds2" style="stroke:#A80036;stroke-width:1.0;stroke-dasharray:7.0,7.0;"/><!--MD5=[1635e604997374ea39dbea3fd2780885]
link ca_scp1_d4_adpt_conv to ca_scp1_d4_cache_rest--><path d="M236.87,306.5 C256.48,306.5 279.72,306.5 299.63,306.5 " fill="none" id="ca_scp1_d4_adpt_conv-to-ca_scp1_d4_cache_rest" style="stroke:#A80036;stroke-width:1.0;"/><polygon fill="#A80036" points="304.88,306.5,295.88,302.5,299.88,306.5,295.88,310.5,304.88,306.5" style="stroke:#A80036;stroke-width:1.0;"/><text fill="#000000" font-family="sans-serif" font-size="13" lengthAdjust="spacing" textLength="32" x="254.75" y="300.0684">POST</text><!--MD5=[e19cfeb4065a7d2bee32219cbaf8769e]
link ca_scp1_d4_prxy_conv to ca_scp1_d4_cache_rest--><path d="M392.44,180.02 C386.84,189.81 380.73,201.23 376,212 C367.07,232.32 359.23,256.07 353.66,274.55 " fill="none" id="ca_scp1_d4_prxy_conv-to-ca_scp1_d4_cache_rest" style="stroke:#A80036;stroke-width:1.0;"/><polygon fill="#A80036" points="352.16,279.62,358.5672,272.1402,353.5902,274.8289,350.9014,269.8519,352.16,279.62" style="stroke:#A80036;stroke-width:1.0;"/><text fill="#000000" font-family="sans-serif" font-size="13" lengthAdjust="spacing" textLength="24" x="377" y="225.5684">GET</text><!--MD5=[ce77f58c227519b5fb632af12b639bb5]
reverse link ca_scp1_d4_prxy_conv to ca_scp1_d4_actor_rproxy--><path d="M446.58,183.43 C465.81,198.56 488.96,217.87 508,237 C522.74,251.8 537.62,270.21 548.34,284.22 " fill="none" id="ca_scp1_d4_prxy_conv-backto-ca_scp1_d4_actor_rproxy" style="stroke:#A80036;stroke-width:1.0;"/><polygon fill="#A80036" points="442.29,180.07,446.897,188.7749,446.2221,183.1585,451.8385,182.4836,442.29,180.07" style="stroke:#A80036;stroke-width:1.0;"/><!--MD5=[882dfde78b377e388b1db00db909426f]
@startuml
!include include/d4_inc_scope.puml

package ca as "Company ACME" {
    $d4scope(ca, scp1, "Networking (Scope 1)", $show_ds1=true, $show_ds2=true, $show_rproxy=true, $show_cache=true, $show_ui=false, $show_ui_user=false, $show_adpt=true)
    actor ca_scp1_d4_actor_rproxy as "User"
    ca_scp1_d4_prxy_conv <- - ca_scp1_d4_actor_rproxy

}

@enduml

@startuml

skinparam LegendFontSize 8










package ca as "Company ACME" {
        package ca_scp1 as "Networking (Scope 1)" {

            node ca_scp1_ds1 as "(foreign)\ndatasource 1\nfirewall rules"

            node ca_scp1_ds2 as "(foreign)\ndatasource 2\nrouting tables"




                card ca_scp1_d4_prxy as "d4 proxy" {
        rectangle ca_scp1_d4_prxy_conv as "reverse\nproxy"
    }

                card ca_scp1_d4_cache as "d4 cache" {
        rectangle ca_scp1_d4_cache_rest as "REST-\ninterface"
        storage ca_scp1_d4_cache_store as "volatile\nstorage"
        ca_scp1_d4_cache_store <-l-> ca_scp1_d4_cache_rest #green
    }




                card ca_scp1_d4_adpt as "d4 adapter" {
        control ca_scp1_d4_adpt_timer as "timer"
        rectangle ca_scp1_d4_adpt_conv as "converter"
        ca_scp1_d4_adpt_timer -r- ca_scp1_d4_adpt_conv
    }


            ca_scp1_ds1 .u. ca_scp1_d4_adpt_conv

            ca_scp1_ds2 .u. ca_scp1_d4_adpt_conv



            ca_scp1_d4_adpt_conv -r-> ca_scp1_d4_cache_rest : POST

            ca_scp1_d4_prxy_conv -d-> ca_scp1_d4_cache_rest : GET


    }
    actor ca_scp1_d4_actor_rproxy as "User"
    ca_scp1_d4_prxy_conv <- - ca_scp1_d4_actor_rproxy

}

@enduml

PlantUML version 1.2021.14(Fri Nov 12 17:46:50 CET 2021)
(GPL source distribution)
Java Runtime: OpenJDK Runtime Environment
JVM: OpenJDK 64-Bit Server VM
Default Encoding: UTF-8
Language: de
Country: DE
--></g></svg>