<?xml version="1.0" encoding="UTF-8" standalone="no"?><svg xmlns="http://www.w3.org/2000/svg" xmlns:xlink="http://www.w3.org/1999/xlink" contentScriptType="application/ecmascript" contentStyleType="text/css" height="719px" preserveAspectRatio="none" style="width:1205px;height:719px;background:#FFFFFF;" version="1.1" viewBox="0 0 1205 719" width="1205px" zoomAndPan="magnify"><defs><filter height="300%" id="f1fmjixruy6jxd" width="300%" x="-1" y="-1"><feGaussianBlur result="blurOut" stdDeviation="2.0"/><feColorMatrix in="blurOut" result="blurOut2" type="matrix" values="0 0 0 0 0 0 0 0 0 0 0 0 0 0 0 0 0 0 .4 0"/><feOffset dx="4.0" dy="4.0" in="blurOut2" result="blurOut3"/><feBlend in="SourceGraphic" in2="blurOut3" mode="normal"/></filter></defs><g><!--MD5=[1035137668336d8ecd6582f6df806ab3]
cluster ca--><polygon fill="#FFFFFF" filter="url(#f1fmjixruy6jxd)" points="16,6,135,6,142,28.4883,1188,28.4883,1188,712,16,712,16,6" style="stroke:#000000;stroke-width:1.5;"/><line style="stroke:#000000;stroke-width:1.5;" x1="16" x2="142" y1="28.4883" y2="28.4883"/><text fill="#000000" font-family="sans-serif" font-size="14" font-weight="bold" lengthAdjust="spacing" textLength="113" x="20" y="21.5352">Company ACME</text><!--MD5=[dea034dd557578f17a57532622942fa0]
cluster ca_scp1--><polygon fill="#FFFFFF" filter="url(#f1fmjixruy6jxd)" points="614,49,675,49,682,71.4883,1164,71.4883,1164,688,614,688,614,49" style="stroke:#000000;stroke-width:1.5;"/><line style="stroke:#000000;stroke-width:1.5;" x1="614" x2="682" y1="71.4883" y2="71.4883"/><text fill="#000000" font-family="sans-serif" font-size="14" font-weight="bold" lengthAdjust="spacing" textLength="55" x="618" y="64.5352">Scope 1</text><!--MD5=[8694e91e1d565d0785daf3633727225c]
cluster ca_scp1_ds3--><polygon fill="#FFFFFF" filter="url(#f1fmjixruy6jxd)" points="638,458,648,448,959,448,959,654,949,664,638,664,638,458" style="stroke:#000000;stroke-width:1.5;"/><line style="stroke:#000000;stroke-width:1.5;" x1="949" x2="959" y1="458" y2="448"/><line style="stroke:#000000;stroke-width:1.5;" x1="638" x2="949" y1="458" y2="458"/><line style="stroke:#000000;stroke-width:1.5;" x1="949" x2="949" y1="458" y2="664"/><text fill="#000000" font-family="sans-serif" font-size="14" font-weight="bold" lengthAdjust="spacing" textLength="137" x="726" y="474.5352">(own) datasource 3</text><!--MD5=[b2c47d5ceb36a176edb16903e1db70db]
cluster ca_scp1_d4_spot--><rect fill="#FFFFFF" filter="url(#f1fmjixruy6jxd)" height="139" style="stroke:#000000;stroke-width:1.5;" width="273" x="662" y="501"/><line style="stroke:#000000;stroke-width:1.5;" x1="662" x2="935" y1="521.4883" y2="521.4883"/><text fill="#000000" font-family="sans-serif" font-size="14" font-weight="bold" lengthAdjust="spacing" textLength="55" x="771" y="516.5352">d4 spot</text><!--MD5=[d48fbda33315262dba176fdfb6aaed82]
cluster ca_scp1_d4_prxy--><rect fill="#FFFFFF" filter="url(#f1fmjixruy6jxd)" height="123" style="stroke:#000000;stroke-width:1.5;" width="102" x="965" y="92"/><line style="stroke:#000000;stroke-width:1.5;" x1="965" x2="1067" y1="112.4883" y2="112.4883"/><text fill="#000000" font-family="sans-serif" font-size="14" font-weight="bold" lengthAdjust="spacing" textLength="63" x="984.5" y="107.5352">d4 proxy</text><!--MD5=[a172b5daa5e9006c18af5cf4701e7a0c]
cluster ca_scp1_d4_cache--><rect fill="#FFFFFF" filter="url(#f1fmjixruy6jxd)" height="123" style="stroke:#000000;stroke-width:1.5;" width="219" x="921" y="264"/><line style="stroke:#000000;stroke-width:1.5;" x1="921" x2="1140" y1="284.4883" y2="284.4883"/><text fill="#000000" font-family="sans-serif" font-size="14" font-weight="bold" lengthAdjust="spacing" textLength="62" x="999.5" y="279.5352">d4 cache</text><!--MD5=[693e33cdd78bcd323bc2a981fb44285c]
cluster ca_scp1_d4_ui--><rect fill="#FFFFFF" filter="url(#f1fmjixruy6jxd)" height="123" style="stroke:#000000;stroke-width:1.5;" width="94" x="842" y="92"/><line style="stroke:#000000;stroke-width:1.5;" x1="842" x2="936" y1="112.4883" y2="112.4883"/><text fill="#000000" font-family="sans-serif" font-size="14" font-weight="bold" lengthAdjust="spacing" textLength="38" x="870" y="107.5352">d4 UI</text><!--MD5=[fabf52ac740be3bee4e1c249ef44a8fc]
cluster ca_scp1_d4_adpt--><rect fill="#FFFFFF" filter="url(#f1fmjixruy6jxd)" height="118" style="stroke:#000000;stroke-width:1.5;" width="189" x="638" y="266.5"/><line style="stroke:#000000;stroke-width:1.5;" x1="638" x2="827" y1="286.9883" y2="286.9883"/><text fill="#000000" font-family="sans-serif" font-size="14" font-weight="bold" lengthAdjust="spacing" textLength="77" x="694" y="282.0352">d4 adapter</text><!--MD5=[de8b6c6ae91bde3b34a9009c86eb3982]
cluster ca_scp2--><polygon fill="#FFFFFF" filter="url(#f1fmjixruy6jxd)" points="40,49,101,49,108,71.4883,590,71.4883,590,688,40,688,40,49" style="stroke:#000000;stroke-width:1.5;"/><line style="stroke:#000000;stroke-width:1.5;" x1="40" x2="108" y1="71.4883" y2="71.4883"/><text fill="#000000" font-family="sans-serif" font-size="14" font-weight="bold" lengthAdjust="spacing" textLength="55" x="44" y="64.5352">Scope 2</text><!--MD5=[1ebeedf447406565d7a0589cf1250dc1]
cluster ca_scp2_ds3--><polygon fill="#FFFFFF" filter="url(#f1fmjixruy6jxd)" points="64,458,74,448,385,448,385,654,375,664,64,664,64,458" style="stroke:#000000;stroke-width:1.5;"/><line style="stroke:#000000;stroke-width:1.5;" x1="375" x2="385" y1="458" y2="448"/><line style="stroke:#000000;stroke-width:1.5;" x1="64" x2="375" y1="458" y2="458"/><line style="stroke:#000000;stroke-width:1.5;" x1="375" x2="375" y1="458" y2="664"/><text fill="#000000" font-family="sans-serif" font-size="14" font-weight="bold" lengthAdjust="spacing" textLength="137" x="152" y="474.5352">(own) datasource 3</text><!--MD5=[9e47f21328eff3ff60daea30e2b03ef4]
cluster ca_scp2_d4_spot--><rect fill="#FFFFFF" filter="url(#f1fmjixruy6jxd)" height="139" style="stroke:#000000;stroke-width:1.5;" width="273" x="88" y="501"/><line style="stroke:#000000;stroke-width:1.5;" x1="88" x2="361" y1="521.4883" y2="521.4883"/><text fill="#000000" font-family="sans-serif" font-size="14" font-weight="bold" lengthAdjust="spacing" textLength="55" x="197" y="516.5352">d4 spot</text><!--MD5=[41fd419428b5dce0a22f5730d7e17cef]
cluster ca_scp2_d4_prxy--><rect fill="#FFFFFF" filter="url(#f1fmjixruy6jxd)" height="123" style="stroke:#000000;stroke-width:1.5;" width="102" x="407" y="92"/><line style="stroke:#000000;stroke-width:1.5;" x1="407" x2="509" y1="112.4883" y2="112.4883"/><text fill="#000000" font-family="sans-serif" font-size="14" font-weight="bold" lengthAdjust="spacing" textLength="63" x="426.5" y="107.5352">d4 proxy</text><!--MD5=[0ed037634904448588212b030c8939eb]
cluster ca_scp2_d4_cache--><rect fill="#FFFFFF" filter="url(#f1fmjixruy6jxd)" height="123" style="stroke:#000000;stroke-width:1.5;" width="219" x="347" y="264"/><line style="stroke:#000000;stroke-width:1.5;" x1="347" x2="566" y1="284.4883" y2="284.4883"/><text fill="#000000" font-family="sans-serif" font-size="14" font-weight="bold" lengthAdjust="spacing" textLength="62" x="425.5" y="279.5352">d4 cache</text><!--MD5=[d78ee1ad341bcfdeaa88ab38da703927]
cluster ca_scp2_d4_ui--><rect fill="#FFFFFF" filter="url(#f1fmjixruy6jxd)" height="123" style="stroke:#000000;stroke-width:1.5;" width="94" x="265" y="92"/><line style="stroke:#000000;stroke-width:1.5;" x1="265" x2="359" y1="112.4883" y2="112.4883"/><text fill="#000000" font-family="sans-serif" font-size="14" font-weight="bold" lengthAdjust="spacing" textLength="38" x="293" y="107.5352">d4 UI</text><!--MD5=[af61b450baf6975ad9d8be86dae42258]
cluster ca_scp2_d4_adpt--><rect fill="#FFFFFF" filter="url(#f1fmjixruy6jxd)" height="118" style="stroke:#000000;stroke-width:1.5;" width="189" x="64" y="266.5"/><line style="stroke:#000000;stroke-width:1.5;" x1="64" x2="253" y1="286.9883" y2="286.9883"/><text fill="#000000" font-family="sans-serif" font-size="14" font-weight="bold" lengthAdjust="spacing" textLength="77" x="120" y="282.0352">d4 adapter</text><!--MD5=[5a96453d9da75a3ce2c408dca49ca6c1]
entity ca_scp1_ds1--><polygon fill="#FEFECE" filter="url(#f1fmjixruy6jxd)" points="975.5,560,985.5,550,1104.5,550,1104.5,619.4648,1094.5,629.4648,975.5,629.4648,975.5,560" style="stroke:#000000;stroke-width:1.5;"/><line style="stroke:#000000;stroke-width:1.5;" x1="1094.5" x2="1104.5" y1="560" y2="550"/><line style="stroke:#000000;stroke-width:1.5;" x1="975.5" x2="1094.5" y1="560" y2="560"/><line style="stroke:#000000;stroke-width:1.5;" x1="1094.5" x2="1094.5" y1="560" y2="629.4648"/><text fill="#000000" font-family="sans-serif" font-size="14" lengthAdjust="spacing" textLength="60" x="990.5" y="583.5352">(foreign)</text><text fill="#000000" font-family="sans-serif" font-size="14" lengthAdjust="spacing" textLength="89" x="990.5" y="600.0234">datasource 1</text><text fill="#000000" font-family="sans-serif" font-size="14" lengthAdjust="spacing" textLength="88" x="990.5" y="616.5117">firewall rules</text><!--MD5=[d6572d05bae0b45f86894e05bbb0566c]
entity ca_scp1_d4_actor_ui--><ellipse cx="861" cy="313.5" fill="#FEFECE" filter="url(#f1fmjixruy6jxd)" rx="8" ry="8" style="stroke:#A80036;stroke-width:1.5;"/><path d="M861,321.5 L861,348.5 M848,329.5 L874,329.5 M861,348.5 L848,363.5 M861,348.5 L874,363.5 " fill="none" filter="url(#f1fmjixruy6jxd)" style="stroke:#A80036;stroke-width:1.5;"/><text fill="#000000" font-family="sans-serif" font-size="14" lengthAdjust="spacing" textLength="31" x="845.5" y="382.5352">User</text><!--MD5=[375233d82fbdbb3247fc200020c71284]
entity ca_scp1_d4_spot_store--><rect fill="#FEFECE" filter="url(#f1fmjixruy6jxd)" height="52.9766" rx="35" ry="35" style="stroke:#000000;stroke-width:1.5;" width="72" x="678" y="563"/><text fill="#000000" font-family="sans-serif" font-size="14" lengthAdjust="spacing" textLength="51" x="688" y="586.5352">reliable</text><text fill="#000000" font-family="sans-serif" font-size="14" lengthAdjust="spacing" textLength="52" x="688" y="603.0234">storage</text><!--MD5=[0106005fcebc07bf744eb475c1308f40]
entity ca_scp1_d4_spot_webio--><rect fill="#FEFECE" filter="url(#f1fmjixruy6jxd)" height="69.4648" style="stroke:#000000;stroke-width:1.5;" width="134" x="785" y="555"/><text fill="#000000" font-family="sans-serif" font-size="14" lengthAdjust="spacing" textLength="72" x="795" y="578.5352">UI-Form &amp;</text><text fill="#000000" font-family="sans-serif" font-size="14" lengthAdjust="spacing" textLength="114" x="795" y="595.0234">UI-Im-/Export &amp;</text><text fill="#000000" font-family="sans-serif" font-size="14" lengthAdjust="spacing" textLength="102" x="795" y="611.5117">REST-Interface</text><!--MD5=[df9798fedb3f6cd9fa6e5f247874aa33]
entity ca_scp1_d4_prxy_conv--><rect fill="#FEFECE" filter="url(#f1fmjixruy6jxd)" height="52.9766" style="stroke:#000000;stroke-width:1.5;" width="70" x="981" y="146"/><text fill="#000000" font-family="sans-serif" font-size="14" lengthAdjust="spacing" textLength="50" x="991" y="169.5352">reverse</text><text fill="#000000" font-family="sans-serif" font-size="14" lengthAdjust="spacing" textLength="40" x="991" y="186.0234">proxy</text><!--MD5=[e1dbf49cf27afbeba64e24a0ce70e6ae]
entity ca_scp1_d4_cache_rest--><rect fill="#FEFECE" filter="url(#f1fmjixruy6jxd)" height="52.9766" style="stroke:#000000;stroke-width:1.5;" width="80" x="937" y="318"/><text fill="#000000" font-family="sans-serif" font-size="14" lengthAdjust="spacing" textLength="42" x="947" y="341.5352">REST-</text><text fill="#000000" font-family="sans-serif" font-size="14" lengthAdjust="spacing" textLength="60" x="947" y="358.0234">interface</text><!--MD5=[e1975c8101ca07b4f270cc47b82c0507]
entity ca_scp1_d4_cache_store--><rect fill="#FEFECE" filter="url(#f1fmjixruy6jxd)" height="52.9766" rx="35" ry="35" style="stroke:#000000;stroke-width:1.5;" width="72" x="1052" y="318"/><text fill="#000000" font-family="sans-serif" font-size="14" lengthAdjust="spacing" textLength="49" x="1062" y="341.5352">volatile</text><text fill="#000000" font-family="sans-serif" font-size="14" lengthAdjust="spacing" textLength="52" x="1062" y="358.0234">storage</text><!--MD5=[5989dfe0837aa72763db7b4609e408c6]
entity ca_scp1_d4_ui_srv--><rect fill="#FEFECE" filter="url(#f1fmjixruy6jxd)" height="52.9766" style="stroke:#000000;stroke-width:1.5;" width="62" x="858" y="146"/><text fill="#000000" font-family="sans-serif" font-size="14" lengthAdjust="spacing" textLength="14" x="868" y="169.5352">UI</text><text fill="#000000" font-family="sans-serif" font-size="14" lengthAdjust="spacing" textLength="42" x="868" y="186.0234">server</text><!--MD5=[99ca27a3366a70301b91daf5299cc400]
entity ca_scp1_d4_adpt_timer--><ellipse cx="672" cy="336.5" fill="#FEFECE" filter="url(#f1fmjixruy6jxd)" rx="12" ry="12" style="stroke:#A80036;stroke-width:1.5;"/><polygon fill="#A80036" points="668,324.5,674,319.5,672,324.5,674,329.5,668,324.5" style="stroke:#A80036;stroke-width:1.0;"/><text fill="#000000" font-family="sans-serif" font-size="14" lengthAdjust="spacing" textLength="36" x="654" y="366.0352">timer</text><!--MD5=[22101d0641ed2f80e49c63bcd53fe6bb]
entity ca_scp1_d4_adpt_conv--><rect fill="#FEFECE" filter="url(#f1fmjixruy6jxd)" height="36.4883" style="stroke:#000000;stroke-width:1.5;" width="85" x="725.5" y="326.5"/><text fill="#000000" font-family="sans-serif" font-size="14" lengthAdjust="spacing" textLength="65" x="735.5" y="350.0352">converter</text><!--MD5=[99b9b418dff33563fc7cf7b50558d3ec]
entity ca_scp2_ds1--><polygon fill="#FEFECE" filter="url(#f1fmjixruy6jxd)" points="401.5,560,411.5,550,530.5,550,530.5,619.4648,520.5,629.4648,401.5,629.4648,401.5,560" style="stroke:#000000;stroke-width:1.5;"/><line style="stroke:#000000;stroke-width:1.5;" x1="520.5" x2="530.5" y1="560" y2="550"/><line style="stroke:#000000;stroke-width:1.5;" x1="401.5" x2="520.5" y1="560" y2="560"/><line style="stroke:#000000;stroke-width:1.5;" x1="520.5" x2="520.5" y1="560" y2="629.4648"/><text fill="#000000" font-family="sans-serif" font-size="14" lengthAdjust="spacing" textLength="60" x="416.5" y="583.5352">(foreign)</text><text fill="#000000" font-family="sans-serif" font-size="14" lengthAdjust="spacing" textLength="89" x="416.5" y="600.0234">datasource 1</text><text fill="#000000" font-family="sans-serif" font-size="14" lengthAdjust="spacing" textLength="88" x="416.5" y="616.5117">firewall rules</text><!--MD5=[22a083cebd7e8c2d380952c943560548]
entity ca_scp2_d4_actor_ui--><ellipse cx="287" cy="313.5" fill="#FEFECE" filter="url(#f1fmjixruy6jxd)" rx="8" ry="8" style="stroke:#A80036;stroke-width:1.5;"/><path d="M287,321.5 L287,348.5 M274,329.5 L300,329.5 M287,348.5 L274,363.5 M287,348.5 L300,363.5 " fill="none" filter="url(#f1fmjixruy6jxd)" style="stroke:#A80036;stroke-width:1.5;"/><text fill="#000000" font-family="sans-serif" font-size="14" lengthAdjust="spacing" textLength="31" x="271.5" y="382.5352">User</text><!--MD5=[481c69c22ad4d8a6e72b66e6d0dc74ae]
entity ca_scp2_d4_spot_store--><rect fill="#FEFECE" filter="url(#f1fmjixruy6jxd)" height="52.9766" rx="35" ry="35" style="stroke:#000000;stroke-width:1.5;" width="72" x="104" y="563"/><text fill="#000000" font-family="sans-serif" font-size="14" lengthAdjust="spacing" textLength="51" x="114" y="586.5352">reliable</text><text fill="#000000" font-family="sans-serif" font-size="14" lengthAdjust="spacing" textLength="52" x="114" y="603.0234">storage</text><!--MD5=[88ee95ae676605f3409039147f1547fb]
entity ca_scp2_d4_spot_webio--><rect fill="#FEFECE" filter="url(#f1fmjixruy6jxd)" height="69.4648" style="stroke:#000000;stroke-width:1.5;" width="134" x="211" y="555"/><text fill="#000000" font-family="sans-serif" font-size="14" lengthAdjust="spacing" textLength="72" x="221" y="578.5352">UI-Form &amp;</text><text fill="#000000" font-family="sans-serif" font-size="14" lengthAdjust="spacing" textLength="114" x="221" y="595.0234">UI-Im-/Export &amp;</text><text fill="#000000" font-family="sans-serif" font-size="14" lengthAdjust="spacing" textLength="102" x="221" y="611.5117">REST-Interface</text><!--MD5=[46383afacf8ea18edf5241e594b1c30f]
entity ca_scp2_d4_prxy_conv--><rect fill="#FEFECE" filter="url(#f1fmjixruy6jxd)" height="52.9766" style="stroke:#000000;stroke-width:1.5;" width="70" x="423" y="146"/><text fill="#000000" font-family="sans-serif" font-size="14" lengthAdjust="spacing" textLength="50" x="433" y="169.5352">reverse</text><text fill="#000000" font-family="sans-serif" font-size="14" lengthAdjust="spacing" textLength="40" x="433" y="186.0234">proxy</text><!--MD5=[64b92ba91121dfb82294f6eb968aa6ae]
entity ca_scp2_d4_cache_rest--><rect fill="#FEFECE" filter="url(#f1fmjixruy6jxd)" height="52.9766" style="stroke:#000000;stroke-width:1.5;" width="80" x="363" y="318"/><text fill="#000000" font-family="sans-serif" font-size="14" lengthAdjust="spacing" textLength="42" x="373" y="341.5352">REST-</text><text fill="#000000" font-family="sans-serif" font-size="14" lengthAdjust="spacing" textLength="60" x="373" y="358.0234">interface</text><!--MD5=[c79392e4c8fe37ef2ac1df4b129732fa]
entity ca_scp2_d4_cache_store--><rect fill="#FEFECE" filter="url(#f1fmjixruy6jxd)" height="52.9766" rx="35" ry="35" style="stroke:#000000;stroke-width:1.5;" width="72" x="478" y="318"/><text fill="#000000" font-family="sans-serif" font-size="14" lengthAdjust="spacing" textLength="49" x="488" y="341.5352">volatile</text><text fill="#000000" font-family="sans-serif" font-size="14" lengthAdjust="spacing" textLength="52" x="488" y="358.0234">storage</text><!--MD5=[5b27b641ebd465d9b5f7d38c161f7300]
entity ca_scp2_d4_ui_srv--><rect fill="#FEFECE" filter="url(#f1fmjixruy6jxd)" height="52.9766" style="stroke:#000000;stroke-width:1.5;" width="62" x="281" y="146"/><text fill="#000000" font-family="sans-serif" font-size="14" lengthAdjust="spacing" textLength="14" x="291" y="169.5352">UI</text><text fill="#000000" font-family="sans-serif" font-size="14" lengthAdjust="spacing" textLength="42" x="291" y="186.0234">server</text><!--MD5=[2ccf01c1d642166b56b9c9fba395c0b1]
entity ca_scp2_d4_adpt_timer--><ellipse cx="98" cy="336.5" fill="#FEFECE" filter="url(#f1fmjixruy6jxd)" rx="12" ry="12" style="stroke:#A80036;stroke-width:1.5;"/><polygon fill="#A80036" points="94,324.5,100,319.5,98,324.5,100,329.5,94,324.5" style="stroke:#A80036;stroke-width:1.0;"/><text fill="#000000" font-family="sans-serif" font-size="14" lengthAdjust="spacing" textLength="36" x="80" y="366.0352">timer</text><!--MD5=[c3501e5f4a2180a94e242530c84fc64e]
entity ca_scp2_d4_adpt_conv--><rect fill="#FEFECE" filter="url(#f1fmjixruy6jxd)" height="36.4883" style="stroke:#000000;stroke-width:1.5;" width="85" x="151.5" y="326.5"/><text fill="#000000" font-family="sans-serif" font-size="14" lengthAdjust="spacing" textLength="65" x="161.5" y="350.0352">converter</text><!--MD5=[199b1aca994ea135d023cfa756bd8265]
link ca_scp1_d4_spot_store to ca_scp1_d4_spot_webio--><path d="M755.26,589.5 C763.4,589.5 771.53,589.5 779.67,589.5 " fill="none" id="ca_scp1_d4_spot_store-ca_scp1_d4_spot_webio" style="stroke:#008000;stroke-width:1.0;"/><polygon fill="#008000" points="784.74,589.5,775.74,585.5,779.74,589.5,775.74,593.5,784.74,589.5" style="stroke:#008000;stroke-width:1.0;"/><polygon fill="#008000" points="750.12,589.5,759.12,593.5,755.12,589.5,759.12,585.5,750.12,589.5" style="stroke:#008000;stroke-width:1.0;"/><!--MD5=[4f8664ab5dc667180f9cba4786c5fbf7]
link ca_scp1_d4_cache_rest to ca_scp1_d4_cache_store--><path d="M1022.45,344.5 C1030.56,344.5 1038.67,344.5 1046.78,344.5 " fill="none" id="ca_scp1_d4_cache_rest-ca_scp1_d4_cache_store" style="stroke:#008000;stroke-width:1.0;"/><polygon fill="#008000" points="1051.83,344.5,1042.83,340.5,1046.83,344.5,1042.83,348.5,1051.83,344.5" style="stroke:#008000;stroke-width:1.0;"/><polygon fill="#008000" points="1017.32,344.5,1026.32,348.5,1022.32,344.5,1026.32,340.5,1017.32,344.5" style="stroke:#008000;stroke-width:1.0;"/><!--MD5=[b559d16a1afa1d8882db837bc2226fdb]
reverse link ca_scp1_d4_ui_srv to ca_scp1_d4_actor_ui--><path d="M883.92,204.37 C879.32,232.27 872.53,273.49 867.54,303.82 " fill="none" id="ca_scp1_d4_ui_srv-backto-ca_scp1_d4_actor_ui" style="stroke:#A80036;stroke-width:1.0;"/><polygon fill="#A80036" points="884.75,199.32,879.3364,207.5476,883.935,204.2531,887.2294,208.8517,884.75,199.32" style="stroke:#A80036;stroke-width:1.0;"/><text fill="#000000" font-family="sans-serif" font-size="13" lengthAdjust="spacing" textLength="24" x="881" y="244.5684">GET</text><!--MD5=[1f6dc1d2a6a79b65dd140f087e1b8aac]
reverse link ca_scp1_d4_cache_rest to ca_scp1_d4_actor_ui--><path d="M931.3,344.5 C911.94,344.5 890.66,344.5 876.64,344.5 " fill="none" id="ca_scp1_d4_cache_rest-backto-ca_scp1_d4_actor_ui" style="stroke:#A80036;stroke-width:1.0;"/><polygon fill="#A80036" points="936.7,344.5,927.7,340.5,931.7,344.5,927.7,348.5,936.7,344.5" style="stroke:#A80036;stroke-width:1.0;"/><text fill="#000000" font-family="sans-serif" font-size="13" lengthAdjust="spacing" textLength="24" x="894.75" y="338.0684">GET</text><!--MD5=[4b5965c76b5b5f656aeae5e76be5074b]
link ca_scp1_d4_adpt_timer to ca_scp1_d4_adpt_conv--><path d="M690.38,344.5 C702,344.5 713.62,344.5 725.25,344.5 " fill="none" id="ca_scp1_d4_adpt_timer-ca_scp1_d4_adpt_conv" style="stroke:#A80036;stroke-width:1.0;"/><!--MD5=[e569c080027031fdb87577ace6e40639]
link ca_scp1_d4_adpt_conv to ca_scp1_d4_spot_webio--><path d="M772.77,362.51 C777.76,380.02 785.98,408.06 794,432 C807.59,472.55 824.79,518.37 836.92,549.9 " fill="none" id="ca_scp1_d4_adpt_conv-to-ca_scp1_d4_spot_webio" style="stroke:#A80036;stroke-width:1.0;"/><polygon fill="#A80036" points="838.82,554.83,839.3165,544.9937,837.0222,550.1644,831.8515,547.8701,838.82,554.83" style="stroke:#A80036;stroke-width:1.0;"/><text fill="#000000" font-family="sans-serif" font-size="13" lengthAdjust="spacing" textLength="24" x="795" y="428.5684">GET</text><!--MD5=[3637ca738a5c7b0320b423c41ff7e0a5]
link ca_scp1_d4_adpt_conv to ca_scp1_ds1--><path d="M780.48,362.56 C788.94,373.11 800.93,386.27 814,395 C861.71,426.88 889.52,405.02 935,440 C973.17,469.36 1003.12,516.44 1021.1,549.7 " fill="none" id="ca_scp1_d4_adpt_conv-ca_scp1_ds1" style="stroke:#A80036;stroke-width:1.0;stroke-dasharray:7.0,7.0;"/><!--MD5=[1635e604997374ea39dbea3fd2780885]
link ca_scp1_d4_adpt_conv to ca_scp1_d4_cache_rest--><path d="M770.56,326.47 C774.68,304.96 785.03,269.94 810,254 C827.76,242.66 890.99,229.32 933,256 C952.76,268.55 963.96,292.86 970.1,312.83 " fill="none" id="ca_scp1_d4_adpt_conv-to-ca_scp1_d4_cache_rest" style="stroke:#A80036;stroke-width:1.0;"/><polygon fill="#A80036" points="971.56,317.81,972.8722,308.0489,970.1561,313.0111,965.194,310.2951,971.56,317.81" style="stroke:#A80036;stroke-width:1.0;"/><text fill="#000000" font-family="sans-serif" font-size="13" lengthAdjust="spacing" textLength="32" x="811" y="244.5684">POST</text><!--MD5=[e19cfeb4065a7d2bee32219cbaf8769e]
link ca_scp1_d4_prxy_conv to ca_scp1_d4_cache_rest--><path d="M1010.08,199.32 C1003.08,229.83 991.45,280.52 984.01,312.95 " fill="none" id="ca_scp1_d4_prxy_conv-to-ca_scp1_d4_cache_rest" style="stroke:#A80036;stroke-width:1.0;"/><polygon fill="#A80036" points="982.85,317.99,988.7511,310.1048,983.9618,313.1152,980.9514,308.3259,982.85,317.99" style="stroke:#A80036;stroke-width:1.0;"/><text fill="#000000" font-family="sans-serif" font-size="13" lengthAdjust="spacing" textLength="24" x="1003" y="244.5684">GET</text><!--MD5=[f8db02ad10b224b6486600b7aa8dd634]
link ca_scp1_d4_ui_srv to ca_scp1_d4_cache_rest--><path d="M902.83,199.06 C911.58,215.31 923.07,236.83 933,256 C942.79,274.91 953.53,296.25 961.95,313.13 " fill="none" id="ca_scp1_d4_ui_srv-to-ca_scp1_d4_cache_rest" style="stroke:#A80036;stroke-width:1.0;"/><polygon fill="#A80036" points="964.26,317.77,963.8254,307.9307,962.0297,313.295,956.6654,311.4993,964.26,317.77" style="stroke:#A80036;stroke-width:1.0;"/><text fill="#000000" font-family="sans-serif" font-size="13" lengthAdjust="spacing" textLength="24" x="930" y="244.5684">GET</text><!--MD5=[cfc8ac851e9c7141643ddcf28e23a2a9]
link ca_scp2_d4_spot_store to ca_scp2_d4_spot_webio--><path d="M181.26,589.5 C189.4,589.5 197.53,589.5 205.67,589.5 " fill="none" id="ca_scp2_d4_spot_store-ca_scp2_d4_spot_webio" style="stroke:#008000;stroke-width:1.0;"/><polygon fill="#008000" points="210.74,589.5,201.74,585.5,205.74,589.5,201.74,593.5,210.74,589.5" style="stroke:#008000;stroke-width:1.0;"/><polygon fill="#008000" points="176.12,589.5,185.12,593.5,181.12,589.5,185.12,585.5,176.12,589.5" style="stroke:#008000;stroke-width:1.0;"/><!--MD5=[e550bb526413d9010581ae86a23b10f6]
link ca_scp2_d4_cache_rest to ca_scp2_d4_cache_store--><path d="M448.45,344.5 C456.56,344.5 464.67,344.5 472.78,344.5 " fill="none" id="ca_scp2_d4_cache_rest-ca_scp2_d4_cache_store" style="stroke:#008000;stroke-width:1.0;"/><polygon fill="#008000" points="477.83,344.5,468.83,340.5,472.83,344.5,468.83,348.5,477.83,344.5" style="stroke:#008000;stroke-width:1.0;"/><polygon fill="#008000" points="443.32,344.5,452.32,348.5,448.32,344.5,452.32,340.5,443.32,344.5" style="stroke:#008000;stroke-width:1.0;"/><!--MD5=[5a8da06cc006107840f1e659d3f90861]
reverse link ca_scp2_d4_ui_srv to ca_scp2_d4_actor_ui--><path d="M294.08,203.82 C289.94,212.33 286.13,221.78 284,231 C278.51,254.8 279.1,282.18 281.14,303.97 " fill="none" id="ca_scp2_d4_ui_srv-backto-ca_scp2_d4_actor_ui" style="stroke:#A80036;stroke-width:1.0;"/><polygon fill="#A80036" points="296.41,199.19,288.7754,205.412,294.1511,203.6506,295.9125,209.0263,296.41,199.19" style="stroke:#A80036;stroke-width:1.0;"/><text fill="#000000" font-family="sans-serif" font-size="13" lengthAdjust="spacing" textLength="24" x="285" y="244.5684">GET</text><!--MD5=[0e0f78942f03777cb85353fc45015885]
reverse link ca_scp2_d4_cache_rest to ca_scp2_d4_actor_ui--><path d="M357.3,344.5 C337.94,344.5 316.66,344.5 302.64,344.5 " fill="none" id="ca_scp2_d4_cache_rest-backto-ca_scp2_d4_actor_ui" style="stroke:#A80036;stroke-width:1.0;"/><polygon fill="#A80036" points="362.7,344.5,353.7,340.5,357.7,344.5,353.7,348.5,362.7,344.5" style="stroke:#A80036;stroke-width:1.0;"/><text fill="#000000" font-family="sans-serif" font-size="13" lengthAdjust="spacing" textLength="24" x="320.75" y="338.0684">GET</text><!--MD5=[b614ff47d788ed0398363111d71d82bd]
link ca_scp2_d4_adpt_timer to ca_scp2_d4_adpt_conv--><path d="M116.38,344.5 C128,344.5 139.62,344.5 151.25,344.5 " fill="none" id="ca_scp2_d4_adpt_timer-ca_scp2_d4_adpt_conv" style="stroke:#A80036;stroke-width:1.0;"/><!--MD5=[dc3f810f9442683d658d84e4ca78dc20]
link ca_scp2_d4_adpt_conv to ca_scp2_d4_spot_webio--><path d="M198.77,362.51 C203.76,380.02 211.98,408.06 220,432 C233.59,472.55 250.79,518.37 262.92,549.9 " fill="none" id="ca_scp2_d4_adpt_conv-to-ca_scp2_d4_spot_webio" style="stroke:#A80036;stroke-width:1.0;"/><polygon fill="#A80036" points="264.82,554.83,265.3165,544.9937,263.0222,550.1644,257.8515,547.8701,264.82,554.83" style="stroke:#A80036;stroke-width:1.0;"/><text fill="#000000" font-family="sans-serif" font-size="13" lengthAdjust="spacing" textLength="24" x="221" y="428.5684">GET</text><!--MD5=[1816903b9d1152228cdcb92d23144e48]
link ca_scp2_d4_adpt_conv to ca_scp2_ds1--><path d="M206.48,362.56 C214.94,373.11 226.93,386.27 240,395 C287.71,426.88 315.52,405.02 361,440 C399.17,469.36 429.12,516.44 447.1,549.7 " fill="none" id="ca_scp2_d4_adpt_conv-ca_scp2_ds1" style="stroke:#A80036;stroke-width:1.0;stroke-dasharray:7.0,7.0;"/><!--MD5=[46e2eedb1ee72f94afeeaca75169cf83]
link ca_scp2_d4_adpt_conv to ca_scp2_d4_cache_rest--><path d="M197.73,326.16 C203.09,305.11 215.18,271.51 240,256 C282.22,229.62 302.7,247.09 352,254 C378.68,257.74 391.59,287.92 397.71,312.42 " fill="none" id="ca_scp2_d4_adpt_conv-to-ca_scp2_d4_cache_rest" style="stroke:#A80036;stroke-width:1.0;"/><polygon fill="#A80036" points="398.92,317.55,400.7586,307.8743,397.778,312.6822,392.9701,309.7015,398.92,317.55" style="stroke:#A80036;stroke-width:1.0;"/><text fill="#000000" font-family="sans-serif" font-size="13" lengthAdjust="spacing" textLength="32" x="319" y="244.5684">POST</text><!--MD5=[eaa82ef11c142f0408b80aa34f6b413c]
link ca_scp2_d4_prxy_conv to ca_scp2_d4_cache_rest--><path d="M449.65,199.32 C439.78,229.83 423.38,280.52 412.88,312.95 " fill="none" id="ca_scp2_d4_prxy_conv-to-ca_scp2_d4_cache_rest" style="stroke:#A80036;stroke-width:1.0;"/><polygon fill="#A80036" points="411.25,317.99,417.8314,310.663,412.7925,313.2339,410.2217,308.195,411.25,317.99" style="stroke:#A80036;stroke-width:1.0;"/><text fill="#000000" font-family="sans-serif" font-size="13" lengthAdjust="spacing" textLength="24" x="440" y="244.5684">GET</text><!--MD5=[cc73ec511a5fca8a2ab6a0d1abbc92a4]
link ca_scp2_d4_ui_srv to ca_scp2_d4_cache_rest--><path d="M331.93,199.1 C339.03,208.81 346.8,220.14 353,231 C368.24,257.69 382.13,289.88 391.38,312.98 " fill="none" id="ca_scp2_d4_ui_srv-to-ca_scp2_d4_cache_rest" style="stroke:#A80036;stroke-width:1.0;"/><polygon fill="#A80036" points="393.29,317.77,393.6614,307.9281,391.433,313.1276,386.2336,310.8993,393.29,317.77" style="stroke:#A80036;stroke-width:1.0;"/><text fill="#000000" font-family="sans-serif" font-size="13" lengthAdjust="spacing" textLength="24" x="362" y="244.5684">GET</text><!--MD5=[72bda787580bce7d80f5e1ed358aa830]
@startuml
!include include/d4_inc_scope.puml

package ca as "Company ACME" {
    $d4scope(ca, scp1, "Scope 1", $show_ds1=true, $show_ds2=false, $show_ds3=true, $show_rproxy=true, $show_cache=true, $show_ui=true, $show_adpt=true)
    $d4scope(ca, scp2, "Scope 2", $show_ds1=true, $show_ds2=false, $show_ds3=true, $show_rproxy=true, $show_cache=true, $show_ui=true, $show_adpt=true)
}

@enduml

@startuml

skinparam LegendFontSize 8










package ca as "Company ACME" {
        package ca_scp1 as "Scope 1" {

            node ca_scp1_ds1 as "(foreign)\ndatasource 1\nfirewall rules"


            node ca_scp1_ds3 as "(own) datasource 3"{
                    card ca_scp1_d4_spot as "d4 spot" {
        storage ca_scp1_d4_spot_store as "reliable\nstorage"
        rectangle ca_scp1_d4_spot_webio as "UI-Form &\nUI-Im-/Export &\nREST-Interface"
        ca_scp1_d4_spot_store <-[#green]> ca_scp1_d4_spot_webio
        }
            }



                card ca_scp1_d4_prxy as "d4 proxy" {
        rectangle ca_scp1_d4_prxy_conv as "reverse\nproxy"
    }

                card ca_scp1_d4_cache as "d4 cache" {
        rectangle ca_scp1_d4_cache_rest as "REST-\ninterface"
        storage ca_scp1_d4_cache_store as "volatile\nstorage"
        ca_scp1_d4_cache_store <-l-> ca_scp1_d4_cache_rest #green
    }

                card ca_scp1_d4_ui as "d4 UI" {
        rectangle ca_scp1_d4_ui_srv as "UI\nserver"
    }

            actor ca_scp1_d4_actor_ui as "User"
            ca_scp1_d4_actor_ui -l-> ca_scp1_d4_ui_srv : GET

            ca_scp1_d4_cache_rest <- ca_scp1_d4_actor_ui : GET

                card ca_scp1_d4_adpt as "d4 adapter" {
        control ca_scp1_d4_adpt_timer as "timer"
        rectangle ca_scp1_d4_adpt_conv as "converter"
        ca_scp1_d4_adpt_timer -r- ca_scp1_d4_adpt_conv
    }

            ca_scp1_d4_spot_webio <-u- ca_scp1_d4_adpt_conv : GET

            ca_scp1_ds1 .u. ca_scp1_d4_adpt_conv




            ca_scp1_d4_adpt_conv -r-> ca_scp1_d4_cache_rest : POST

            ca_scp1_d4_prxy_conv -d-> ca_scp1_d4_cache_rest : GET

            ca_scp1_d4_ui_srv -d-> ca_scp1_d4_cache_rest : GET

    }
        package ca_scp2 as "Scope 2" {

            node ca_scp2_ds1 as "(foreign)\ndatasource 1\nfirewall rules"


            node ca_scp2_ds3 as "(own) datasource 3"{
                    card ca_scp2_d4_spot as "d4 spot" {
        storage ca_scp2_d4_spot_store as "reliable\nstorage"
        rectangle ca_scp2_d4_spot_webio as "UI-Form &\nUI-Im-/Export &\nREST-Interface"
        ca_scp2_d4_spot_store <-[#green]> ca_scp2_d4_spot_webio
        }
            }



                card ca_scp2_d4_prxy as "d4 proxy" {
        rectangle ca_scp2_d4_prxy_conv as "reverse\nproxy"
    }

                card ca_scp2_d4_cache as "d4 cache" {
        rectangle ca_scp2_d4_cache_rest as "REST-\ninterface"
        storage ca_scp2_d4_cache_store as "volatile\nstorage"
        ca_scp2_d4_cache_store <-l-> ca_scp2_d4_cache_rest #green
    }

                card ca_scp2_d4_ui as "d4 UI" {
        rectangle ca_scp2_d4_ui_srv as "UI\nserver"
    }

            actor ca_scp2_d4_actor_ui as "User"
            ca_scp2_d4_actor_ui -l-> ca_scp2_d4_ui_srv : GET

            ca_scp2_d4_cache_rest <- ca_scp2_d4_actor_ui : GET

                card ca_scp2_d4_adpt as "d4 adapter" {
        control ca_scp2_d4_adpt_timer as "timer"
        rectangle ca_scp2_d4_adpt_conv as "converter"
        ca_scp2_d4_adpt_timer -r- ca_scp2_d4_adpt_conv
    }

            ca_scp2_d4_spot_webio <-u- ca_scp2_d4_adpt_conv : GET

            ca_scp2_ds1 .u. ca_scp2_d4_adpt_conv




            ca_scp2_d4_adpt_conv -r-> ca_scp2_d4_cache_rest : POST

            ca_scp2_d4_prxy_conv -d-> ca_scp2_d4_cache_rest : GET

            ca_scp2_d4_ui_srv -d-> ca_scp2_d4_cache_rest : GET

    }
}

@enduml

PlantUML version 1.2021.14(Fri Nov 12 17:46:50 CET 2021)
(GPL source distribution)
Java Runtime: OpenJDK Runtime Environment
JVM: OpenJDK 64-Bit Server VM
Default Encoding: UTF-8
Language: de
Country: DE
--></g></svg>