<?xml version="1.0" encoding="UTF-8" standalone="no"?><svg xmlns="http://www.w3.org/2000/svg" xmlns:xlink="http://www.w3.org/1999/xlink" contentScriptType="application/ecmascript" contentStyleType="text/css" height="210px" preserveAspectRatio="none" style="width:414px;height:210px;background:#FFFFFF;" version="1.1" viewBox="0 0 414 210" width="414px" zoomAndPan="magnify"><defs><filter height="300%" id="f5wjyebris56v" width="300%" x="-1" y="-1"><feGaussianBlur result="blurOut" stdDeviation="2.0"/><feColorMatrix in="blurOut" result="blurOut2" type="matrix" values="0 0 0 0 0 0 0 0 0 0 0 0 0 0 0 0 0 0 .4 0"/><feOffset dx="4.0" dy="4.0" in="blurOut2" result="blurOut3"/><feBlend in="SourceGraphic" in2="blurOut3" mode="normal"/></filter></defs><g><!--MD5=[1035137668336d8ecd6582f6df806ab3]
cluster ca--><polygon fill="#FFFFFF" filter="url(#f5wjyebris56v)" points="16,6,135,6,142,28.4883,397,28.4883,397,203,16,203,16,6" style="stroke:#000000;stroke-width:1.5;"/><line style="stroke:#000000;stroke-width:1.5;" x1="16" x2="142" y1="28.4883" y2="28.4883"/><text fill="#000000" font-family="sans-serif" font-size="14" font-weight="bold" lengthAdjust="spacing" textLength="113" x="20" y="21.5352">Company ACME</text><!--MD5=[dea034dd557578f17a57532622942fa0]
cluster ca_scp1--><polygon fill="#FFFFFF" filter="url(#f5wjyebris56v)" points="40,49,200,49,207,71.4883,373,71.4883,373,179,40,179,40,49" style="stroke:#000000;stroke-width:1.5;"/><line style="stroke:#000000;stroke-width:1.5;" x1="40" x2="207" y1="71.4883" y2="71.4883"/><text fill="#000000" font-family="sans-serif" font-size="14" font-weight="bold" lengthAdjust="spacing" textLength="154" x="44" y="64.5352">Networking (Scope 1)</text><!--MD5=[5a96453d9da75a3ce2c408dca49ca6c1]
entity ca_scp1_ds1--><polygon fill="#FEFECE" filter="url(#f5wjyebris56v)" points="227.5,94,237.5,84,356.5,84,356.5,153.4648,346.5,163.4648,227.5,163.4648,227.5,94" style="stroke:#000000;stroke-width:1.5;"/><line style="stroke:#000000;stroke-width:1.5;" x1="346.5" x2="356.5" y1="94" y2="84"/><line style="stroke:#000000;stroke-width:1.5;" x1="227.5" x2="346.5" y1="94" y2="94"/><line style="stroke:#000000;stroke-width:1.5;" x1="346.5" x2="346.5" y1="94" y2="163.4648"/><text fill="#000000" font-family="sans-serif" font-size="14" lengthAdjust="spacing" textLength="60" x="242.5" y="117.5352">(foreign)</text><text fill="#000000" font-family="sans-serif" font-size="14" lengthAdjust="spacing" textLength="89" x="242.5" y="134.0234">datasource 1</text><text fill="#000000" font-family="sans-serif" font-size="14" lengthAdjust="spacing" textLength="88" x="242.5" y="150.5117">firewall rules</text><!--MD5=[494834349b401b36fa832acd8798cb44]
entity ca_scp1_ds2--><polygon fill="#FEFECE" filter="url(#f5wjyebris56v)" points="56,94,66,84,192,84,192,153.4648,182,163.4648,56,163.4648,56,94" style="stroke:#000000;stroke-width:1.5;"/><line style="stroke:#000000;stroke-width:1.5;" x1="182" x2="192" y1="94" y2="84"/><line style="stroke:#000000;stroke-width:1.5;" x1="56" x2="182" y1="94" y2="94"/><line style="stroke:#000000;stroke-width:1.5;" x1="182" x2="182" y1="94" y2="163.4648"/><text fill="#000000" font-family="sans-serif" font-size="14" lengthAdjust="spacing" textLength="60" x="71" y="117.5352">(foreign)</text><text fill="#000000" font-family="sans-serif" font-size="14" lengthAdjust="spacing" textLength="89" x="71" y="134.0234">datasource 2</text><text fill="#000000" font-family="sans-serif" font-size="14" lengthAdjust="spacing" textLength="96" x="71" y="150.5117">routing tables</text><!--MD5=[f2f1a2b49bf5f8c0690a808116ca6b0b]
@startuml
!include include/d4_inc_scope.puml

package ca as "Company ACME" {
    $d4scope(ca, scp1, "Networking (Scope 1)", $show_ds1=true, $show_ds2=true, $show_rproxy=false, $show_cache=false, $show_ui=false, $show_adpt=false)
}

@enduml

@startuml

skinparam LegendFontSize 8










package ca as "Company ACME" {
        package ca_scp1 as "Networking (Scope 1)" {

            node ca_scp1_ds1 as "(foreign)\ndatasource 1\nfirewall rules"

            node ca_scp1_ds2 as "(foreign)\ndatasource 2\nrouting tables"


















    }
}

@enduml

PlantUML version 1.2021.14(Fri Nov 12 17:46:50 CET 2021)
(GPL source distribution)
Java Runtime: OpenJDK Runtime Environment
JVM: OpenJDK 64-Bit Server VM
Default Encoding: UTF-8
Language: de
Country: DE
--></g></svg>