<?xml version="1.0" encoding="UTF-8" standalone="no"?><svg xmlns="http://www.w3.org/2000/svg" xmlns:xlink="http://www.w3.org/1999/xlink" contentScriptType="application/ecmascript" contentStyleType="text/css" height="369px" preserveAspectRatio="none" style="width:573px;height:369px;background:#FFFFFF;" version="1.1" viewBox="0 0 573 369" width="573px" zoomAndPan="magnify"><defs><filter height="300%" id="fns9mo0gsz3me" width="300%" x="-1" y="-1"><feGaussianBlur result="blurOut" stdDeviation="2.0"/><feColorMatrix in="blurOut" result="blurOut2" type="matrix" values="0 0 0 0 0 0 0 0 0 0 0 0 0 0 0 0 0 0 .4 0"/><feOffset dx="4.0" dy="4.0" in="blurOut2" result="blurOut3"/><feBlend in="SourceGraphic" in2="blurOut3" mode="normal"/></filter></defs><g><!--MD5=[1035137668336d8ecd6582f6df806ab3]
cluster ca--><polygon fill="#FFFFFF" filter="url(#fns9mo0gsz3me)" points="16,6,135,6,142,28.4883,556,28.4883,556,362,16,362,16,6" style="stroke:#000000;stroke-width:1.5;"/><line style="stroke:#000000;stroke-width:1.5;" x1="16" x2="142" y1="28.4883" y2="28.4883"/><text fill="#000000" font-family="sans-serif" font-size="14" font-weight="bold" lengthAdjust="spacing" textLength="113" x="20" y="21.5352">Company ACME</text><!--MD5=[dea034dd557578f17a57532622942fa0]
cluster ca_scp1--><polygon fill="#FFFFFF" filter="url(#fns9mo0gsz3me)" points="40,49,200,49,207,71.4883,532,71.4883,532,338,40,338,40,49" style="stroke:#000000;stroke-width:1.5;"/><line style="stroke:#000000;stroke-width:1.5;" x1="40" x2="207" y1="71.4883" y2="71.4883"/><text fill="#000000" font-family="sans-serif" font-size="14" font-weight="bold" lengthAdjust="spacing" textLength="154" x="44" y="64.5352">Networking (Scope 1)</text><!--MD5=[a172b5daa5e9006c18af5cf4701e7a0c]
cluster ca_scp1_d4_cache--><rect fill="#FFFFFF" filter="url(#fns9mo0gsz3me)" height="104" style="stroke:#000000;stroke-width:1.5;" width="219" x="289" y="92"/><line style="stroke:#000000;stroke-width:1.5;" x1="289" x2="508" y1="112.4883" y2="112.4883"/><text fill="#000000" font-family="sans-serif" font-size="14" font-weight="bold" lengthAdjust="spacing" textLength="62" x="367.5" y="107.5352">d4 cache</text><!--MD5=[fabf52ac740be3bee4e1c249ef44a8fc]
cluster ca_scp1_d4_adpt--><rect fill="#FFFFFF" filter="url(#fns9mo0gsz3me)" height="99" style="stroke:#000000;stroke-width:1.5;" width="189" x="64" y="94.5"/><line style="stroke:#000000;stroke-width:1.5;" x1="64" x2="253" y1="114.9883" y2="114.9883"/><text fill="#000000" font-family="sans-serif" font-size="14" font-weight="bold" lengthAdjust="spacing" textLength="77" x="120" y="110.0352">d4 adapter</text><!--MD5=[5a96453d9da75a3ce2c408dca49ca6c1]
entity ca_scp1_ds1--><polygon fill="#FEFECE" filter="url(#fns9mo0gsz3me)" points="89.5,253,99.5,243,218.5,243,218.5,312.4648,208.5,322.4648,89.5,322.4648,89.5,253" style="stroke:#000000;stroke-width:1.5;"/><line style="stroke:#000000;stroke-width:1.5;" x1="208.5" x2="218.5" y1="253" y2="243"/><line style="stroke:#000000;stroke-width:1.5;" x1="89.5" x2="208.5" y1="253" y2="253"/><line style="stroke:#000000;stroke-width:1.5;" x1="208.5" x2="208.5" y1="253" y2="322.4648"/><text fill="#000000" font-family="sans-serif" font-size="14" lengthAdjust="spacing" textLength="60" x="104.5" y="276.5352">(foreign)</text><text fill="#000000" font-family="sans-serif" font-size="14" lengthAdjust="spacing" textLength="89" x="104.5" y="293.0234">datasource 1</text><text fill="#000000" font-family="sans-serif" font-size="14" lengthAdjust="spacing" textLength="88" x="104.5" y="309.5117">firewall rules</text><!--MD5=[494834349b401b36fa832acd8798cb44]
entity ca_scp1_ds2--><polygon fill="#FEFECE" filter="url(#fns9mo0gsz3me)" points="254,253,264,243,390,243,390,312.4648,380,322.4648,254,322.4648,254,253" style="stroke:#000000;stroke-width:1.5;"/><line style="stroke:#000000;stroke-width:1.5;" x1="380" x2="390" y1="253" y2="243"/><line style="stroke:#000000;stroke-width:1.5;" x1="254" x2="380" y1="253" y2="253"/><line style="stroke:#000000;stroke-width:1.5;" x1="380" x2="380" y1="253" y2="322.4648"/><text fill="#000000" font-family="sans-serif" font-size="14" lengthAdjust="spacing" textLength="60" x="269" y="276.5352">(foreign)</text><text fill="#000000" font-family="sans-serif" font-size="14" lengthAdjust="spacing" textLength="89" x="269" y="293.0234">datasource 2</text><text fill="#000000" font-family="sans-serif" font-size="14" lengthAdjust="spacing" textLength="96" x="269" y="309.5117">routing tables</text><!--MD5=[e1dbf49cf27afbeba64e24a0ce70e6ae]
entity ca_scp1_d4_cache_rest--><rect fill="#FEFECE" filter="url(#fns9mo0gsz3me)" height="52.9766" style="stroke:#000000;stroke-width:1.5;" width="80" x="305" y="127"/><text fill="#000000" font-family="sans-serif" font-size="14" lengthAdjust="spacing" textLength="42" x="315" y="150.5352">REST-</text><text fill="#000000" font-family="sans-serif" font-size="14" lengthAdjust="spacing" textLength="60" x="315" y="167.0234">interface</text><!--MD5=[e1975c8101ca07b4f270cc47b82c0507]
entity ca_scp1_d4_cache_store--><rect fill="#FEFECE" filter="url(#fns9mo0gsz3me)" height="52.9766" rx="35" ry="35" style="stroke:#000000;stroke-width:1.5;" width="72" x="420" y="127"/><text fill="#000000" font-family="sans-serif" font-size="14" lengthAdjust="spacing" textLength="49" x="430" y="150.5352">volatile</text><text fill="#000000" font-family="sans-serif" font-size="14" lengthAdjust="spacing" textLength="52" x="430" y="167.0234">storage</text><!--MD5=[99ca27a3366a70301b91daf5299cc400]
entity ca_scp1_d4_adpt_timer--><ellipse cx="98" cy="145.5" fill="#FEFECE" filter="url(#fns9mo0gsz3me)" rx="12" ry="12" style="stroke:#A80036;stroke-width:1.5;"/><polygon fill="#A80036" points="94,133.5,100,128.5,98,133.5,100,138.5,94,133.5" style="stroke:#A80036;stroke-width:1.0;"/><text fill="#000000" font-family="sans-serif" font-size="14" lengthAdjust="spacing" textLength="36" x="80" y="175.0352">timer</text><!--MD5=[22101d0641ed2f80e49c63bcd53fe6bb]
entity ca_scp1_d4_adpt_conv--><rect fill="#FEFECE" filter="url(#fns9mo0gsz3me)" height="36.4883" style="stroke:#000000;stroke-width:1.5;" width="85" x="151.5" y="135.5"/><text fill="#000000" font-family="sans-serif" font-size="14" lengthAdjust="spacing" textLength="65" x="161.5" y="159.0352">converter</text><!--MD5=[4f8664ab5dc667180f9cba4786c5fbf7]
link ca_scp1_d4_cache_rest to ca_scp1_d4_cache_store--><path d="M390.45,153.5 C398.56,153.5 406.67,153.5 414.78,153.5 " fill="none" id="ca_scp1_d4_cache_rest-ca_scp1_d4_cache_store" style="stroke:#008000;stroke-width:1.0;"/><polygon fill="#008000" points="419.83,153.5,410.83,149.5,414.83,153.5,410.83,157.5,419.83,153.5" style="stroke:#008000;stroke-width:1.0;"/><polygon fill="#008000" points="385.32,153.5,394.32,157.5,390.32,153.5,394.32,149.5,385.32,153.5" style="stroke:#008000;stroke-width:1.0;"/><!--MD5=[4b5965c76b5b5f656aeae5e76be5074b]
link ca_scp1_d4_adpt_timer to ca_scp1_d4_adpt_conv--><path d="M116.38,153.5 C128,153.5 139.62,153.5 151.25,153.5 " fill="none" id="ca_scp1_d4_adpt_timer-ca_scp1_d4_adpt_conv" style="stroke:#A80036;stroke-width:1.0;"/><!--MD5=[3637ca738a5c7b0320b423c41ff7e0a5]
link ca_scp1_d4_adpt_conv to ca_scp1_ds1--><path d="M188.61,171.63 C182.89,189.77 173.68,219.03 166.19,242.79 " fill="none" id="ca_scp1_d4_adpt_conv-ca_scp1_ds1" style="stroke:#A80036;stroke-width:1.0;stroke-dasharray:7.0,7.0;"/><!--MD5=[294e57bf6f39a09d9b12b04ec6d40614]
link ca_scp1_d4_adpt_conv to ca_scp1_ds2--><path d="M211.26,171.63 C229.55,189.77 259.03,219.03 282.98,242.79 " fill="none" id="ca_scp1_d4_adpt_conv-ca_scp1_ds2" style="stroke:#A80036;stroke-width:1.0;stroke-dasharray:7.0,7.0;"/><!--MD5=[1635e604997374ea39dbea3fd2780885]
link ca_scp1_d4_adpt_conv to ca_scp1_d4_cache_rest--><path d="M236.87,153.5 C256.48,153.5 279.72,153.5 299.63,153.5 " fill="none" id="ca_scp1_d4_adpt_conv-to-ca_scp1_d4_cache_rest" style="stroke:#A80036;stroke-width:1.0;"/><polygon fill="#A80036" points="304.88,153.5,295.88,149.5,299.88,153.5,295.88,157.5,304.88,153.5" style="stroke:#A80036;stroke-width:1.0;"/><text fill="#000000" font-family="sans-serif" font-size="13" lengthAdjust="spacing" textLength="32" x="254.75" y="147.0684">POST</text><!--MD5=[8b8e8408c9f73d431dedae9b017541fb]
@startuml
!include include/d4_inc_scope.puml

package ca as "Company ACME" {
    $d4scope(ca, scp1, "Networking (Scope 1)", $show_ds1=true, $show_ds2=true, $show_rproxy=false, $show_cache=true, $show_ui=false, $show_adpt=true)
}

@enduml

@startuml

skinparam LegendFontSize 8










package ca as "Company ACME" {
        package ca_scp1 as "Networking (Scope 1)" {

            node ca_scp1_ds1 as "(foreign)\ndatasource 1\nfirewall rules"

            node ca_scp1_ds2 as "(foreign)\ndatasource 2\nrouting tables"





                card ca_scp1_d4_cache as "d4 cache" {
        rectangle ca_scp1_d4_cache_rest as "REST-\ninterface"
        storage ca_scp1_d4_cache_store as "volatile\nstorage"
        ca_scp1_d4_cache_store <-l-> ca_scp1_d4_cache_rest #green
    }




                card ca_scp1_d4_adpt as "d4 adapter" {
        control ca_scp1_d4_adpt_timer as "timer"
        rectangle ca_scp1_d4_adpt_conv as "converter"
        ca_scp1_d4_adpt_timer -r- ca_scp1_d4_adpt_conv
    }


            ca_scp1_ds1 .u. ca_scp1_d4_adpt_conv

            ca_scp1_ds2 .u. ca_scp1_d4_adpt_conv



            ca_scp1_d4_adpt_conv -r-> ca_scp1_d4_cache_rest : POST



    }
}

@enduml

PlantUML version 1.2021.14(Fri Nov 12 17:46:50 CET 2021)
(GPL source distribution)
Java Runtime: OpenJDK Runtime Environment
JVM: OpenJDK 64-Bit Server VM
Default Encoding: UTF-8
Language: de
Country: DE
--></g></svg>