<?xml version="1.0" encoding="UTF-8" standalone="no"?><svg xmlns="http://www.w3.org/2000/svg" xmlns:xlink="http://www.w3.org/1999/xlink" contentScriptType="application/ecmascript" contentStyleType="text/css" height="194px" preserveAspectRatio="none" style="width:407px;height:194px;background:#FFFFFF;" version="1.1" viewBox="0 0 407 194" width="407px" zoomAndPan="magnify"><defs><filter height="300%" id="fw8yyxqhbk6r" width="300%" x="-1" y="-1"><feGaussianBlur result="blurOut" stdDeviation="2.0"/><feColorMatrix in="blurOut" result="blurOut2" type="matrix" values="0 0 0 0 0 0 0 0 0 0 0 0 0 0 0 0 0 0 .4 0"/><feOffset dx="4.0" dy="4.0" in="blurOut2" result="blurOut3"/><feBlend in="SourceGraphic" in2="blurOut3" mode="normal"/></filter></defs><g><!--MD5=[1035137668336d8ecd6582f6df806ab3]
cluster ca--><polygon fill="#FFFFFF" filter="url(#fw8yyxqhbk6r)" points="16,6,135,6,142,28.4883,390,28.4883,390,187,16,187,16,6" style="stroke:#000000;stroke-width:1.5;"/><line style="stroke:#000000;stroke-width:1.5;" x1="16" x2="142" y1="28.4883" y2="28.4883"/><text fill="#000000" font-family="sans-serif" font-size="14" font-weight="bold" lengthAdjust="spacing" textLength="113" x="20" y="21.5352">Company ACME</text><!--MD5=[dea034dd557578f17a57532622942fa0]
cluster ca_scp1--><polygon fill="#FFFFFF" filter="url(#fw8yyxqhbk6r)" points="40,49,200,49,207,71.4883,366,71.4883,366,163,40,163,40,49" style="stroke:#000000;stroke-width:1.5;"/><line style="stroke:#000000;stroke-width:1.5;" x1="40" x2="207" y1="71.4883" y2="71.4883"/><text fill="#000000" font-family="sans-serif" font-size="14" font-weight="bold" lengthAdjust="spacing" textLength="154" x="44" y="64.5352">Networking (Scope 1)</text><!--MD5=[5a96453d9da75a3ce2c408dca49ca6c1]
entity ca_scp1_ds1--><polygon fill="#FEFECE" filter="url(#fw8yyxqhbk6r)" points="220.5,94,230.5,84,349.5,84,349.5,136.9766,339.5,146.9766,220.5,146.9766,220.5,94" style="stroke:#000000;stroke-width:1.5;"/><line style="stroke:#000000;stroke-width:1.5;" x1="339.5" x2="349.5" y1="94" y2="84"/><line style="stroke:#000000;stroke-width:1.5;" x1="220.5" x2="339.5" y1="94" y2="94"/><line style="stroke:#000000;stroke-width:1.5;" x1="339.5" x2="339.5" y1="94" y2="146.9766"/><text fill="#000000" font-family="sans-serif" font-size="14" lengthAdjust="spacing" textLength="60" x="235.5" y="117.5352">(foreign)</text><text fill="#000000" font-family="sans-serif" font-size="14" lengthAdjust="spacing" textLength="89" x="235.5" y="134.0234">datasource 1</text><!--MD5=[494834349b401b36fa832acd8798cb44]
entity ca_scp1_ds2--><polygon fill="#FEFECE" filter="url(#fw8yyxqhbk6r)" points="56.5,94,66.5,84,185.5,84,185.5,136.9766,175.5,146.9766,56.5,146.9766,56.5,94" style="stroke:#000000;stroke-width:1.5;"/><line style="stroke:#000000;stroke-width:1.5;" x1="175.5" x2="185.5" y1="94" y2="84"/><line style="stroke:#000000;stroke-width:1.5;" x1="56.5" x2="175.5" y1="94" y2="94"/><line style="stroke:#000000;stroke-width:1.5;" x1="175.5" x2="175.5" y1="94" y2="146.9766"/><text fill="#000000" font-family="sans-serif" font-size="14" lengthAdjust="spacing" textLength="60" x="71.5" y="117.5352">(foreign)</text><text fill="#000000" font-family="sans-serif" font-size="14" lengthAdjust="spacing" textLength="89" x="71.5" y="134.0234">datasource 2</text><!--MD5=[311775e62e34bbe75e8e45d1e95f75e5]
@startuml
!include include/d4_inc_scope.puml

package ca as "Company ACME" {
    $d4scope(ca, scp1, "Networking (Scope 1)", $show_ds1=true, $show_ds2=true, $show_ds3=false, $show_rproxy=false, $show_cache=false, $show_ui=false, $show_adpt=false)
}

@enduml

@startuml

skinparam LegendFontSize 8










package ca as "Company ACME" {
        package ca_scp1 as "Networking (Scope 1)" {

            node ca_scp1_ds1 as "(foreign)\ndatasource 1"

            node ca_scp1_ds2 as "(foreign)\ndatasource 2"














    }
}

@enduml

PlantUML version 1.2021.14(Fri Nov 12 17:46:50 CET 2021)
(GPL source distribution)
Java Runtime: OpenJDK Runtime Environment
JVM: OpenJDK 64-Bit Server VM
Default Encoding: UTF-8
Language: de
Country: DE
--></g></svg>