<?xml version="1.0" encoding="UTF-8" standalone="no"?><svg xmlns="http://www.w3.org/2000/svg" xmlns:xlink="http://www.w3.org/1999/xlink" contentScriptType="application/ecmascript" contentStyleType="text/css" height="162px" preserveAspectRatio="none" style="width:241px;height:162px;background:#FFFFFF;" version="1.1" viewBox="0 0 241 162" width="241px" zoomAndPan="magnify"><defs/><g><rect fill="#FEFECE" height="40.9766" rx="5" ry="5" style="stroke:#FEFECE;stroke-width:1.5;" width="22" x="10" y="60"/><text fill="#000000" font-family="sans-serif" font-size="14" lengthAdjust="spacing" textLength="0" x="27" y="75.5352"/><line style="stroke:#A80036;stroke-width:1.0;" x1="10" x2="32" y1="80.4883" y2="80.4883"/><text fill="#000000" font-family="sans-serif" font-size="14" lengthAdjust="spacing" textLength="0" x="27" y="96.0234"/><rect fill="none" height="40.9766" rx="5" ry="5" style="stroke:#A80036;stroke-width:1.5;" width="22" x="10" y="60"/><rect fill="#FEFECE" height="61.4648" rx="5" ry="5" style="stroke:#FEFECE;stroke-width:1.5;" width="140" x="80" y="10"/><text fill="#000000" font-family="sans-serif" font-size="14" lengthAdjust="spacing" textLength="13" x="85" y="25.5352">id</text><text fill="#000000" font-family="sans-serif" font-size="14" lengthAdjust="spacing" textLength="45" x="133" y="25.5352">37814</text><line style="stroke:#A80036;stroke-width:1.0;" x1="128" x2="128" y1="10" y2="30.4883"/><line style="stroke:#A80036;stroke-width:1.0;" x1="80" x2="220" y1="30.4883" y2="30.4883"/><text fill="#000000" font-family="sans-serif" font-size="14" lengthAdjust="spacing" textLength="38" x="85" y="46.0234">name</text><text fill="#000000" font-family="sans-serif" font-size="14" lengthAdjust="spacing" textLength="60" x="133" y="46.0234">dmz-net</text><line style="stroke:#A80036;stroke-width:1.0;" x1="128" x2="128" y1="30.4883" y2="50.9766"/><line style="stroke:#A80036;stroke-width:1.0;" x1="80" x2="220" y1="50.9766" y2="50.9766"/><text fill="#000000" font-family="sans-serif" font-size="14" lengthAdjust="spacing" textLength="13" x="85" y="66.5117">ip</text><text fill="#000000" font-family="sans-serif" font-size="14" lengthAdjust="spacing" textLength="82" x="133" y="66.5117">10.1.2.0/24</text><line style="stroke:#A80036;stroke-width:1.0;" x1="128" x2="128" y1="50.9766" y2="71.4648"/><rect fill="none" height="61.4648" rx="5" ry="5" style="stroke:#A80036;stroke-width:1.5;" width="140" x="80" y="10"/><rect fill="#FEFECE" height="61.4648" rx="5" ry="5" style="stroke:#FEFECE;stroke-width:1.5;" width="158" x="71" y="89"/><rect fill="#CCFF02" height="20.4883" rx="2" ry="2" style="stroke:#CCFF02;stroke-width:1.0;" width="156" x="72.5" y="89"/><text fill="#000000" font-family="sans-serif" font-size="14" lengthAdjust="spacing" textLength="13" x="76" y="104.5352">id</text><text fill="#000000" font-family="sans-serif" font-size="14" lengthAdjust="spacing" textLength="45" x="124" y="104.5352">72458</text><line style="stroke:#A80036;stroke-width:1.0;" x1="119" x2="119" y1="89" y2="109.4883"/><line style="stroke:#A80036;stroke-width:1.0;" x1="71" x2="229" y1="109.4883" y2="109.4883"/><text fill="#000000" font-family="sans-serif" font-size="14" lengthAdjust="spacing" textLength="38" x="76" y="125.0234">name</text><text fill="#000000" font-family="sans-serif" font-size="14" lengthAdjust="spacing" textLength="100" x="124" y="125.0234">webserver-net</text><line style="stroke:#A80036;stroke-width:1.0;" x1="119" x2="119" y1="109.4883" y2="129.9766"/><line style="stroke:#A80036;stroke-width:1.0;" x1="71" x2="229" y1="129.9766" y2="129.9766"/><text fill="#000000" font-family="sans-serif" font-size="14" lengthAdjust="spacing" textLength="13" x="76" y="145.5117">ip</text><text fill="#000000" font-family="sans-serif" font-size="14" lengthAdjust="spacing" textLength="100" x="124" y="145.5117">172.16.1.0/24</text><line style="stroke:#A80036;stroke-width:1.0;" x1="119" x2="119" y1="129.9766" y2="150.4648"/><rect fill="none" height="61.4648" rx="5" ry="5" style="stroke:#A80036;stroke-width:1.5;" width="158" x="71" y="89"/><path d="M22,69.5 L35,69.5 C47.3117,69.5 60.1464,67.9049 72.5816,65.4629 " fill="none" style="stroke:#A80036;stroke-width:1.0;stroke-dasharray:3.0,3.0;"/><path d="M73.2309,68.536 L74.8864,64.9759 L71.9323,62.3898 L80.2644,63.8397 L73.2309,68.536 " fill="#A80036" style="stroke:#A80036;stroke-width:1.0;"/><ellipse cx="22" cy="69.5" fill="#A80036" rx="3" ry="3" style="stroke:#A80036;stroke-width:1.0;"/><path d="M22,90.5 L35,90.5 C44.3848,90.5 54.0734,91.4268 63.6574,92.9491 " fill="none" style="stroke:#A80036;stroke-width:1.0;stroke-dasharray:3.0,3.0;"/><path d="M63.1205,96.0114 L65.9541,93.3517 L64.1942,89.8867 L71.3133,94.2912 L63.1205,96.0114 " fill="#A80036" style="stroke:#A80036;stroke-width:1.0;"/><ellipse cx="22" cy="90.5" fill="#A80036" rx="3" ry="3" style="stroke:#A80036;stroke-width:1.0;"/><!--MD5=[47c2f0edd3a1e1474df314c5ebdab849]
@startjson
#highlight "1" / "id"
[
    {
       "id":"37814",
       "name":"dmz-net",
       "ip":"10.1.2.0/24"
    },
    {
       "id":"72458",
       "name":"webserver-net",
       "ip":"172.16.1.0/24"
    }
]
@endjson

PlantUML version 1.2021.14(Fri Nov 12 17:46:50 CET 2021)
(GPL source distribution)
Java Runtime: OpenJDK Runtime Environment
JVM: OpenJDK 64-Bit Server VM
Default Encoding: UTF-8
Language: de
Country: DE
--></g></svg>