<?xml version="1.0" encoding="UTF-8" standalone="no"?><svg xmlns="http://www.w3.org/2000/svg" xmlns:xlink="http://www.w3.org/1999/xlink" contentScriptType="application/ecmascript" contentStyleType="text/css" height="556px" preserveAspectRatio="none" style="width:601px;height:556px;background:#FFFFFF;" version="1.1" viewBox="0 0 601 556" width="601px" zoomAndPan="magnify"><defs><filter height="300%" id="f1k8ewjq1y8826" width="300%" x="-1" y="-1"><feGaussianBlur result="blurOut" stdDeviation="2.0"/><feColorMatrix in="blurOut" result="blurOut2" type="matrix" values="0 0 0 0 0 0 0 0 0 0 0 0 0 0 0 0 0 0 .4 0"/><feOffset dx="4.0" dy="4.0" in="blurOut2" result="blurOut3"/><feBlend in="SourceGraphic" in2="blurOut3" mode="normal"/></filter></defs><g><!--MD5=[1035137668336d8ecd6582f6df806ab3]
cluster ca--><polygon fill="#FFFFFF" filter="url(#f1k8ewjq1y8826)" points="16,6,135,6,142,28.4883,584,28.4883,584,549,16,549,16,6" style="stroke:#000000;stroke-width:1.5;"/><line style="stroke:#000000;stroke-width:1.5;" x1="16" x2="142" y1="28.4883" y2="28.4883"/><text fill="#000000" font-family="sans-serif" font-size="14" font-weight="bold" lengthAdjust="spacing" textLength="113" x="20" y="21.5352">Company ACME</text><!--MD5=[dea034dd557578f17a57532622942fa0]
cluster ca_scp1--><polygon fill="#FFFFFF" filter="url(#f1k8ewjq1y8826)" points="40,49,200,49,207,71.4883,520,71.4883,520,525,40,525,40,49" style="stroke:#000000;stroke-width:1.5;"/><line style="stroke:#000000;stroke-width:1.5;" x1="40" x2="207" y1="71.4883" y2="71.4883"/><text fill="#000000" font-family="sans-serif" font-size="14" font-weight="bold" lengthAdjust="spacing" textLength="154" x="44" y="64.5352">Networking (Scope 1)</text><!--MD5=[d48fbda33315262dba176fdfb6aaed82]
cluster ca_scp1_d4_prxy--><rect fill="#FFFFFF" filter="url(#f1k8ewjq1y8826)" height="123" style="stroke:#000000;stroke-width:1.5;" width="102" x="157" y="92"/><line style="stroke:#000000;stroke-width:1.5;" x1="157" x2="259" y1="112.4883" y2="112.4883"/><text fill="#000000" font-family="sans-serif" font-size="14" font-weight="bold" lengthAdjust="spacing" textLength="63" x="176.5" y="107.5352">d4 proxy</text><!--MD5=[a172b5daa5e9006c18af5cf4701e7a0c]
cluster ca_scp1_d4_cache--><rect fill="#FFFFFF" filter="url(#f1k8ewjq1y8826)" height="123" style="stroke:#000000;stroke-width:1.5;" width="219" x="64" y="264"/><line style="stroke:#000000;stroke-width:1.5;" x1="64" x2="283" y1="284.4883" y2="284.4883"/><text fill="#000000" font-family="sans-serif" font-size="14" font-weight="bold" lengthAdjust="spacing" textLength="62" x="142.5" y="279.5352">d4 cache</text><!--MD5=[fabf52ac740be3bee4e1c249ef44a8fc]
cluster ca_scp1_d4_adpt--><rect fill="#FFFFFF" filter="url(#f1k8ewjq1y8826)" height="118" style="stroke:#000000;stroke-width:1.5;" width="189" x="307" y="266.5"/><line style="stroke:#000000;stroke-width:1.5;" x1="307" x2="496" y1="286.9883" y2="286.9883"/><text fill="#000000" font-family="sans-serif" font-size="14" font-weight="bold" lengthAdjust="spacing" textLength="77" x="363" y="282.0352">d4 adapter</text><!--MD5=[bf23e4a353df9dda7ef9d9f285c801d6]
entity ca_scp1_d4_actor_rproxy--><ellipse cx="552" cy="313.5" fill="#FEFECE" filter="url(#f1k8ewjq1y8826)" rx="8" ry="8" style="stroke:#A80036;stroke-width:1.5;"/><path d="M552,321.5 L552,348.5 M539,329.5 L565,329.5 M552,348.5 L539,363.5 M552,348.5 L565,363.5 " fill="none" filter="url(#f1k8ewjq1y8826)" style="stroke:#A80036;stroke-width:1.5;"/><text fill="#000000" font-family="sans-serif" font-size="14" lengthAdjust="spacing" textLength="31" x="536.5" y="382.5352">User</text><!--MD5=[5a96453d9da75a3ce2c408dca49ca6c1]
entity ca_scp1_ds1--><polygon fill="#FEFECE" filter="url(#f1k8ewjq1y8826)" points="209.5,456,219.5,446,338.5,446,338.5,498.9766,328.5,508.9766,209.5,508.9766,209.5,456" style="stroke:#000000;stroke-width:1.5;"/><line style="stroke:#000000;stroke-width:1.5;" x1="328.5" x2="338.5" y1="456" y2="446"/><line style="stroke:#000000;stroke-width:1.5;" x1="209.5" x2="328.5" y1="456" y2="456"/><line style="stroke:#000000;stroke-width:1.5;" x1="328.5" x2="328.5" y1="456" y2="508.9766"/><text fill="#000000" font-family="sans-serif" font-size="14" lengthAdjust="spacing" textLength="60" x="224.5" y="479.5352">(foreign)</text><text fill="#000000" font-family="sans-serif" font-size="14" lengthAdjust="spacing" textLength="89" x="224.5" y="496.0234">datasource 1</text><!--MD5=[494834349b401b36fa832acd8798cb44]
entity ca_scp1_ds2--><polygon fill="#FEFECE" filter="url(#f1k8ewjq1y8826)" points="373.5,456,383.5,446,502.5,446,502.5,498.9766,492.5,508.9766,373.5,508.9766,373.5,456" style="stroke:#000000;stroke-width:1.5;"/><line style="stroke:#000000;stroke-width:1.5;" x1="492.5" x2="502.5" y1="456" y2="446"/><line style="stroke:#000000;stroke-width:1.5;" x1="373.5" x2="492.5" y1="456" y2="456"/><line style="stroke:#000000;stroke-width:1.5;" x1="492.5" x2="492.5" y1="456" y2="508.9766"/><text fill="#000000" font-family="sans-serif" font-size="14" lengthAdjust="spacing" textLength="60" x="388.5" y="479.5352">(foreign)</text><text fill="#000000" font-family="sans-serif" font-size="14" lengthAdjust="spacing" textLength="89" x="388.5" y="496.0234">datasource 2</text><!--MD5=[df9798fedb3f6cd9fa6e5f247874aa33]
entity ca_scp1_d4_prxy_conv--><rect fill="#FEFECE" filter="url(#f1k8ewjq1y8826)" height="52.9766" style="stroke:#000000;stroke-width:1.5;" width="70" x="173" y="146"/><text fill="#000000" font-family="sans-serif" font-size="14" lengthAdjust="spacing" textLength="50" x="183" y="169.5352">reverse</text><text fill="#000000" font-family="sans-serif" font-size="14" lengthAdjust="spacing" textLength="40" x="183" y="186.0234">proxy</text><!--MD5=[e1dbf49cf27afbeba64e24a0ce70e6ae]
entity ca_scp1_d4_cache_rest--><rect fill="#FEFECE" filter="url(#f1k8ewjq1y8826)" height="52.9766" style="stroke:#000000;stroke-width:1.5;" width="80" x="80" y="318"/><text fill="#000000" font-family="sans-serif" font-size="14" lengthAdjust="spacing" textLength="42" x="90" y="341.5352">REST-</text><text fill="#000000" font-family="sans-serif" font-size="14" lengthAdjust="spacing" textLength="60" x="90" y="358.0234">interface</text><!--MD5=[e1975c8101ca07b4f270cc47b82c0507]
entity ca_scp1_d4_cache_store--><rect fill="#FEFECE" filter="url(#f1k8ewjq1y8826)" height="52.9766" rx="35" ry="35" style="stroke:#000000;stroke-width:1.5;" width="72" x="195" y="318"/><text fill="#000000" font-family="sans-serif" font-size="14" lengthAdjust="spacing" textLength="49" x="205" y="341.5352">volatile</text><text fill="#000000" font-family="sans-serif" font-size="14" lengthAdjust="spacing" textLength="52" x="205" y="358.0234">storage</text><!--MD5=[99ca27a3366a70301b91daf5299cc400]
entity ca_scp1_d4_adpt_timer--><ellipse cx="341" cy="336.5" fill="#FEFECE" filter="url(#f1k8ewjq1y8826)" rx="12" ry="12" style="stroke:#A80036;stroke-width:1.5;"/><polygon fill="#A80036" points="337,324.5,343,319.5,341,324.5,343,329.5,337,324.5" style="stroke:#A80036;stroke-width:1.0;"/><text fill="#000000" font-family="sans-serif" font-size="14" lengthAdjust="spacing" textLength="36" x="323" y="366.0352">timer</text><!--MD5=[22101d0641ed2f80e49c63bcd53fe6bb]
entity ca_scp1_d4_adpt_conv--><rect fill="#FEFECE" filter="url(#f1k8ewjq1y8826)" height="36.4883" style="stroke:#000000;stroke-width:1.5;" width="85" x="394.5" y="326.5"/><text fill="#000000" font-family="sans-serif" font-size="14" lengthAdjust="spacing" textLength="65" x="404.5" y="350.0352">converter</text><!--MD5=[4f8664ab5dc667180f9cba4786c5fbf7]
link ca_scp1_d4_cache_rest to ca_scp1_d4_cache_store--><path d="M165.45,344.5 C173.56,344.5 181.67,344.5 189.78,344.5 " fill="none" id="ca_scp1_d4_cache_rest-ca_scp1_d4_cache_store" style="stroke:#008000;stroke-width:1.0;"/><polygon fill="#008000" points="194.83,344.5,185.83,340.5,189.83,344.5,185.83,348.5,194.83,344.5" style="stroke:#008000;stroke-width:1.0;"/><polygon fill="#008000" points="160.32,344.5,169.32,348.5,165.32,344.5,169.32,340.5,160.32,344.5" style="stroke:#008000;stroke-width:1.0;"/><!--MD5=[4b5965c76b5b5f656aeae5e76be5074b]
link ca_scp1_d4_adpt_timer to ca_scp1_d4_adpt_conv--><path d="M359.38,344.5 C371,344.5 382.62,344.5 394.25,344.5 " fill="none" id="ca_scp1_d4_adpt_timer-ca_scp1_d4_adpt_conv" style="stroke:#A80036;stroke-width:1.0;"/><!--MD5=[3637ca738a5c7b0320b423c41ff7e0a5]
link ca_scp1_d4_adpt_conv to ca_scp1_ds1--><path d="M416.54,362.56 C404.98,372.15 390.23,384.31 377,395 C356.07,411.91 332.55,430.55 313.28,445.73 " fill="none" id="ca_scp1_d4_adpt_conv-ca_scp1_ds1" style="stroke:#A80036;stroke-width:1.0;stroke-dasharray:7.0,7.0;"/><!--MD5=[294e57bf6f39a09d9b12b04ec6d40614]
link ca_scp1_d4_adpt_conv to ca_scp1_ds2--><path d="M437.13,362.63 C437.29,383.71 437.57,419.9 437.77,445.83 " fill="none" id="ca_scp1_d4_adpt_conv-ca_scp1_ds2" style="stroke:#A80036;stroke-width:1.0;stroke-dasharray:7.0,7.0;"/><!--MD5=[1635e604997374ea39dbea3fd2780885]
link ca_scp1_d4_adpt_conv to ca_scp1_d4_cache_rest--><path d="M430.62,326.35 C422.09,305.15 404.72,271.07 377,256 C326.63,228.61 305.33,253.19 248,254 C216.44,254.44 204.5,240.5 177,256 C155.19,268.3 140.4,292.78 131.36,312.89 " fill="none" id="ca_scp1_d4_adpt_conv-to-ca_scp1_d4_cache_rest" style="stroke:#A80036;stroke-width:1.0;"/><polygon fill="#A80036" points="129.29,317.63,136.5369,310.9605,131.2768,313.0417,129.1957,307.7816,129.29,317.63" style="stroke:#A80036;stroke-width:1.0;"/><text fill="#000000" font-family="sans-serif" font-size="13" lengthAdjust="spacing" textLength="32" x="249" y="244.5684">POST</text><!--MD5=[e19cfeb4065a7d2bee32219cbaf8769e]
link ca_scp1_d4_prxy_conv to ca_scp1_d4_cache_rest--><path d="M194.63,199.32 C178.78,229.95 152.38,280.94 135.61,313.35 " fill="none" id="ca_scp1_d4_prxy_conv-to-ca_scp1_d4_cache_rest" style="stroke:#A80036;stroke-width:1.0;"/><polygon fill="#A80036" points="133.2,317.99,140.8898,311.8364,135.4987,313.5497,133.7854,308.1586,133.2,317.99" style="stroke:#A80036;stroke-width:1.0;"/><text fill="#000000" font-family="sans-serif" font-size="13" lengthAdjust="spacing" textLength="24" x="179" y="244.5684">GET</text><!--MD5=[ce77f58c227519b5fb632af12b639bb5]
reverse link ca_scp1_d4_prxy_conv to ca_scp1_d4_actor_rproxy--><path d="M248.68,176.16 C308.35,181.9 420.69,199.9 496,256 C513.5,269.04 526.97,289.3 536.31,307.04 " fill="none" id="ca_scp1_d4_prxy_conv-backto-ca_scp1_d4_actor_rproxy" style="stroke:#A80036;stroke-width:1.0;"/><polygon fill="#A80036" points="243.42,175.67,252.0159,180.4773,248.399,176.1278,252.7485,172.5109,243.42,175.67" style="stroke:#A80036;stroke-width:1.0;"/><!--MD5=[f180aa633f92c13abc53dd6c5a6609a2]
@startuml
!include include/d4_inc_scope.puml

package ca as "Company ACME" {
    $d4scope(ca, scp1, "Networking (Scope 1)", $show_ds1=true, $show_ds2=true, $show_ds3=false, $show_rproxy=true, $show_cache=true, $show_ui=false, $show_ui_user=false, $show_adpt=true)
    actor ca_scp1_d4_actor_rproxy as "User"
    ca_scp1_d4_prxy_conv <- - ca_scp1_d4_actor_rproxy

}

@enduml

@startuml

skinparam LegendFontSize 8










package ca as "Company ACME" {
        package ca_scp1 as "Networking (Scope 1)" {

            node ca_scp1_ds1 as "(foreign)\ndatasource 1"

            node ca_scp1_ds2 as "(foreign)\ndatasource 2"


                card ca_scp1_d4_prxy as "d4 proxy" {
        rectangle ca_scp1_d4_prxy_conv as "reverse\nproxy"
    }

                card ca_scp1_d4_cache as "d4 cache" {
        rectangle ca_scp1_d4_cache_rest as "REST-\ninterface"
        storage ca_scp1_d4_cache_store as "volatile\nstorage"
        ca_scp1_d4_cache_store <-l-> ca_scp1_d4_cache_rest #green
    }




                card ca_scp1_d4_adpt as "d4 adapter" {
        control ca_scp1_d4_adpt_timer as "timer"
        rectangle ca_scp1_d4_adpt_conv as "converter"
        ca_scp1_d4_adpt_timer -r- ca_scp1_d4_adpt_conv
    }


            ca_scp1_ds1 .u. ca_scp1_d4_adpt_conv

            ca_scp1_ds2 .u. ca_scp1_d4_adpt_conv

            ca_scp1_d4_adpt_conv -r-> ca_scp1_d4_cache_rest : POST

            ca_scp1_d4_prxy_conv -d-> ca_scp1_d4_cache_rest : GET


    }
    actor ca_scp1_d4_actor_rproxy as "User"
    ca_scp1_d4_prxy_conv <- - ca_scp1_d4_actor_rproxy

}

@enduml

PlantUML version 1.2021.14(Fri Nov 12 17:46:50 CET 2021)
(GPL source distribution)
Java Runtime: OpenJDK Runtime Environment
JVM: OpenJDK 64-Bit Server VM
Default Encoding: UTF-8
Language: de
Country: DE
--></g></svg>