<?xml version="1.0" encoding="UTF-8" standalone="no"?><svg xmlns="http://www.w3.org/2000/svg" xmlns:xlink="http://www.w3.org/1999/xlink" contentScriptType="application/ecmascript" contentStyleType="text/css" height="776px" preserveAspectRatio="none" style="width:1132px;height:776px;background:#FFFFFF;" version="1.1" viewBox="0 0 1132 776" width="1132px" zoomAndPan="magnify"><defs><filter height="300%" id="f6fbehudmadgp" width="300%" x="-1" y="-1"><feGaussianBlur result="blurOut" stdDeviation="2.0"/><feColorMatrix in="blurOut" result="blurOut2" type="matrix" values="0 0 0 0 0 0 0 0 0 0 0 0 0 0 0 0 0 0 .4 0"/><feOffset dx="4.0" dy="4.0" in="blurOut2" result="blurOut3"/><feBlend in="SourceGraphic" in2="blurOut3" mode="normal"/></filter></defs><g><!--MD5=[1035137668336d8ecd6582f6df806ab3]
cluster ca--><polygon fill="#FFFFFF" filter="url(#f6fbehudmadgp)" points="16,6,135,6,142,28.4883,1115,28.4883,1115,769,16,769,16,6" style="stroke:#000000;stroke-width:1.5;"/><line style="stroke:#000000;stroke-width:1.5;" x1="16" x2="142" y1="28.4883" y2="28.4883"/><text fill="#000000" font-family="sans-serif" font-size="14" font-weight="bold" lengthAdjust="spacing" textLength="113" x="20" y="21.5352">Company ACME</text><!--MD5=[dea034dd557578f17a57532622942fa0]
cluster ca_scp1--><polygon fill="#FFFFFF" filter="url(#f6fbehudmadgp)" points="599,264,759,264,766,286.4883,1091,286.4883,1091,745,599,745,599,264" style="stroke:#000000;stroke-width:1.5;"/><line style="stroke:#000000;stroke-width:1.5;" x1="599" x2="766" y1="286.4883" y2="286.4883"/><text fill="#000000" font-family="sans-serif" font-size="14" font-weight="bold" lengthAdjust="spacing" textLength="154" x="603" y="279.5352">Networking (Scope 1)</text><!--MD5=[d48fbda33315262dba176fdfb6aaed82]
cluster ca_scp1_d4_prxy--><rect fill="#FFFFFF" filter="url(#f6fbehudmadgp)" height="123" style="stroke:#000000;stroke-width:1.5;" width="102" x="738" y="307"/><line style="stroke:#000000;stroke-width:1.5;" x1="738" x2="840" y1="327.4883" y2="327.4883"/><text fill="#000000" font-family="sans-serif" font-size="14" font-weight="bold" lengthAdjust="spacing" textLength="63" x="757.5" y="322.5352">d4 proxy</text><!--MD5=[a172b5daa5e9006c18af5cf4701e7a0c]
cluster ca_scp1_d4_cache--><rect fill="#FFFFFF" filter="url(#f6fbehudmadgp)" height="123" style="stroke:#000000;stroke-width:1.5;" width="219" x="848" y="491"/><line style="stroke:#000000;stroke-width:1.5;" x1="848" x2="1067" y1="511.4883" y2="511.4883"/><text fill="#000000" font-family="sans-serif" font-size="14" font-weight="bold" lengthAdjust="spacing" textLength="62" x="926.5" y="506.5352">d4 cache</text><!--MD5=[fabf52ac740be3bee4e1c249ef44a8fc]
cluster ca_scp1_d4_adpt--><rect fill="#FFFFFF" filter="url(#f6fbehudmadgp)" height="118" style="stroke:#000000;stroke-width:1.5;" width="189" x="623" y="493.5"/><line style="stroke:#000000;stroke-width:1.5;" x1="623" x2="812" y1="513.9883" y2="513.9883"/><text fill="#000000" font-family="sans-serif" font-size="14" font-weight="bold" lengthAdjust="spacing" textLength="77" x="679" y="509.0352">d4 adapter</text><!--MD5=[de8b6c6ae91bde3b34a9009c86eb3982]
cluster ca_scp2--><polygon fill="#FFFFFF" filter="url(#f6fbehudmadgp)" points="40,49,181,49,188,71.4883,575,71.4883,575,619,40,619,40,49" style="stroke:#000000;stroke-width:1.5;"/><line style="stroke:#000000;stroke-width:1.5;" x1="40" x2="188" y1="71.4883" y2="71.4883"/><text fill="#000000" font-family="sans-serif" font-size="14" font-weight="bold" lengthAdjust="spacing" textLength="135" x="44" y="64.5352">Compute (Scope 2)</text><!--MD5=[0ed037634904448588212b030c8939eb]
cluster ca_scp2_d4_cache--><rect fill="#FFFFFF" filter="url(#f6fbehudmadgp)" height="123" style="stroke:#000000;stroke-width:1.5;" width="219" x="289" y="307"/><line style="stroke:#000000;stroke-width:1.5;" x1="289" x2="508" y1="327.4883" y2="327.4883"/><text fill="#000000" font-family="sans-serif" font-size="14" font-weight="bold" lengthAdjust="spacing" textLength="62" x="367.5" y="322.5352">d4 cache</text><!--MD5=[d78ee1ad341bcfdeaa88ab38da703927]
cluster ca_scp2_d4_ui--><rect fill="#FFFFFF" filter="url(#f6fbehudmadgp)" height="123" style="stroke:#000000;stroke-width:1.5;" width="94" x="365" y="92"/><line style="stroke:#000000;stroke-width:1.5;" x1="365" x2="459" y1="112.4883" y2="112.4883"/><text fill="#000000" font-family="sans-serif" font-size="14" font-weight="bold" lengthAdjust="spacing" textLength="38" x="393" y="107.5352">d4 UI</text><!--MD5=[af61b450baf6975ad9d8be86dae42258]
cluster ca_scp2_d4_adpt--><rect fill="#FFFFFF" filter="url(#f6fbehudmadgp)" height="118" style="stroke:#000000;stroke-width:1.5;" width="189" x="64" y="309.5"/><line style="stroke:#000000;stroke-width:1.5;" x1="64" x2="253" y1="329.9883" y2="329.9883"/><text fill="#000000" font-family="sans-serif" font-size="14" font-weight="bold" lengthAdjust="spacing" textLength="77" x="120" y="325.0352">d4 adapter</text><!--MD5=[5a96453d9da75a3ce2c408dca49ca6c1]
entity ca_scp1_ds1--><polygon fill="#FEFECE" filter="url(#f6fbehudmadgp)" points="688.5,676,698.5,666,817.5,666,817.5,718.9766,807.5,728.9766,688.5,728.9766,688.5,676" style="stroke:#000000;stroke-width:1.5;"/><line style="stroke:#000000;stroke-width:1.5;" x1="807.5" x2="817.5" y1="676" y2="666"/><line style="stroke:#000000;stroke-width:1.5;" x1="688.5" x2="807.5" y1="676" y2="676"/><line style="stroke:#000000;stroke-width:1.5;" x1="807.5" x2="807.5" y1="676" y2="728.9766"/><text fill="#000000" font-family="sans-serif" font-size="14" lengthAdjust="spacing" textLength="60" x="703.5" y="699.5352">(foreign)</text><text fill="#000000" font-family="sans-serif" font-size="14" lengthAdjust="spacing" textLength="89" x="703.5" y="716.0234">datasource 1</text><!--MD5=[df9798fedb3f6cd9fa6e5f247874aa33]
entity ca_scp1_d4_prxy_conv--><rect fill="#FEFECE" filter="url(#f6fbehudmadgp)" height="52.9766" style="stroke:#000000;stroke-width:1.5;" width="70" x="754" y="361"/><text fill="#000000" font-family="sans-serif" font-size="14" lengthAdjust="spacing" textLength="50" x="764" y="384.5352">reverse</text><text fill="#000000" font-family="sans-serif" font-size="14" lengthAdjust="spacing" textLength="40" x="764" y="401.0234">proxy</text><!--MD5=[e1dbf49cf27afbeba64e24a0ce70e6ae]
entity ca_scp1_d4_cache_rest--><rect fill="#FEFECE" filter="url(#f6fbehudmadgp)" height="52.9766" style="stroke:#000000;stroke-width:1.5;" width="80" x="864" y="545"/><text fill="#000000" font-family="sans-serif" font-size="14" lengthAdjust="spacing" textLength="42" x="874" y="568.5352">REST-</text><text fill="#000000" font-family="sans-serif" font-size="14" lengthAdjust="spacing" textLength="60" x="874" y="585.0234">interface</text><!--MD5=[e1975c8101ca07b4f270cc47b82c0507]
entity ca_scp1_d4_cache_store--><rect fill="#FEFECE" filter="url(#f6fbehudmadgp)" height="52.9766" rx="35" ry="35" style="stroke:#000000;stroke-width:1.5;" width="72" x="979" y="545"/><text fill="#000000" font-family="sans-serif" font-size="14" lengthAdjust="spacing" textLength="49" x="989" y="568.5352">volatile</text><text fill="#000000" font-family="sans-serif" font-size="14" lengthAdjust="spacing" textLength="52" x="989" y="585.0234">storage</text><!--MD5=[99ca27a3366a70301b91daf5299cc400]
entity ca_scp1_d4_adpt_timer--><ellipse cx="657" cy="563.5" fill="#FEFECE" filter="url(#f6fbehudmadgp)" rx="12" ry="12" style="stroke:#A80036;stroke-width:1.5;"/><polygon fill="#A80036" points="653,551.5,659,546.5,657,551.5,659,556.5,653,551.5" style="stroke:#A80036;stroke-width:1.0;"/><text fill="#000000" font-family="sans-serif" font-size="14" lengthAdjust="spacing" textLength="36" x="639" y="593.0352">timer</text><!--MD5=[22101d0641ed2f80e49c63bcd53fe6bb]
entity ca_scp1_d4_adpt_conv--><rect fill="#FEFECE" filter="url(#f6fbehudmadgp)" height="36.4883" style="stroke:#000000;stroke-width:1.5;" width="85" x="710.5" y="553.5"/><text fill="#000000" font-family="sans-serif" font-size="14" lengthAdjust="spacing" textLength="65" x="720.5" y="577.0352">converter</text><!--MD5=[1f1e7f8e4ce30add38777d4737f73887]
entity ca_scp2_ds2--><polygon fill="#FEFECE" filter="url(#f6fbehudmadgp)" points="129.5,550,139.5,540,258.5,540,258.5,592.9766,248.5,602.9766,129.5,602.9766,129.5,550" style="stroke:#000000;stroke-width:1.5;"/><line style="stroke:#000000;stroke-width:1.5;" x1="248.5" x2="258.5" y1="550" y2="540"/><line style="stroke:#000000;stroke-width:1.5;" x1="129.5" x2="248.5" y1="550" y2="550"/><line style="stroke:#000000;stroke-width:1.5;" x1="248.5" x2="248.5" y1="550" y2="602.9766"/><text fill="#000000" font-family="sans-serif" font-size="14" lengthAdjust="spacing" textLength="60" x="144.5" y="573.5352">(foreign)</text><text fill="#000000" font-family="sans-serif" font-size="14" lengthAdjust="spacing" textLength="89" x="144.5" y="590.0234">datasource 2</text><!--MD5=[22a083cebd7e8c2d380952c943560548]
entity ca_scp2_d4_actor_ui--><ellipse cx="543" cy="356.5" fill="#FEFECE" filter="url(#f6fbehudmadgp)" rx="8" ry="8" style="stroke:#A80036;stroke-width:1.5;"/><path d="M543,364.5 L543,391.5 M530,372.5 L556,372.5 M543,391.5 L530,406.5 M543,391.5 L556,406.5 " fill="none" filter="url(#f6fbehudmadgp)" style="stroke:#A80036;stroke-width:1.5;"/><text fill="#000000" font-family="sans-serif" font-size="14" lengthAdjust="spacing" textLength="31" x="527.5" y="425.5352">User</text><!--MD5=[64b92ba91121dfb82294f6eb968aa6ae]
entity ca_scp2_d4_cache_rest--><rect fill="#FEFECE" filter="url(#f6fbehudmadgp)" height="52.9766" style="stroke:#000000;stroke-width:1.5;" width="80" x="305" y="361"/><text fill="#000000" font-family="sans-serif" font-size="14" lengthAdjust="spacing" textLength="42" x="315" y="384.5352">REST-</text><text fill="#000000" font-family="sans-serif" font-size="14" lengthAdjust="spacing" textLength="60" x="315" y="401.0234">interface</text><!--MD5=[c79392e4c8fe37ef2ac1df4b129732fa]
entity ca_scp2_d4_cache_store--><rect fill="#FEFECE" filter="url(#f6fbehudmadgp)" height="52.9766" rx="35" ry="35" style="stroke:#000000;stroke-width:1.5;" width="72" x="420" y="361"/><text fill="#000000" font-family="sans-serif" font-size="14" lengthAdjust="spacing" textLength="49" x="430" y="384.5352">volatile</text><text fill="#000000" font-family="sans-serif" font-size="14" lengthAdjust="spacing" textLength="52" x="430" y="401.0234">storage</text><!--MD5=[5b27b641ebd465d9b5f7d38c161f7300]
entity ca_scp2_d4_ui_srv--><rect fill="#FEFECE" filter="url(#f6fbehudmadgp)" height="52.9766" style="stroke:#000000;stroke-width:1.5;" width="62" x="381" y="146"/><text fill="#000000" font-family="sans-serif" font-size="14" lengthAdjust="spacing" textLength="14" x="391" y="169.5352">UI</text><text fill="#000000" font-family="sans-serif" font-size="14" lengthAdjust="spacing" textLength="42" x="391" y="186.0234">server</text><!--MD5=[2ccf01c1d642166b56b9c9fba395c0b1]
entity ca_scp2_d4_adpt_timer--><ellipse cx="98" cy="379.5" fill="#FEFECE" filter="url(#f6fbehudmadgp)" rx="12" ry="12" style="stroke:#A80036;stroke-width:1.5;"/><polygon fill="#A80036" points="94,367.5,100,362.5,98,367.5,100,372.5,94,367.5" style="stroke:#A80036;stroke-width:1.0;"/><text fill="#000000" font-family="sans-serif" font-size="14" lengthAdjust="spacing" textLength="36" x="80" y="409.0352">timer</text><!--MD5=[c3501e5f4a2180a94e242530c84fc64e]
entity ca_scp2_d4_adpt_conv--><rect fill="#FEFECE" filter="url(#f6fbehudmadgp)" height="36.4883" style="stroke:#000000;stroke-width:1.5;" width="85" x="151.5" y="369.5"/><text fill="#000000" font-family="sans-serif" font-size="14" lengthAdjust="spacing" textLength="65" x="161.5" y="393.0352">converter</text><!--MD5=[4f8664ab5dc667180f9cba4786c5fbf7]
link ca_scp1_d4_cache_rest to ca_scp1_d4_cache_store--><path d="M949.45,571.5 C957.56,571.5 965.67,571.5 973.78,571.5 " fill="none" id="ca_scp1_d4_cache_rest-ca_scp1_d4_cache_store" style="stroke:#008000;stroke-width:1.0;"/><polygon fill="#008000" points="978.83,571.5,969.83,567.5,973.83,571.5,969.83,575.5,978.83,571.5" style="stroke:#008000;stroke-width:1.0;"/><polygon fill="#008000" points="944.32,571.5,953.32,575.5,949.32,571.5,953.32,567.5,944.32,571.5" style="stroke:#008000;stroke-width:1.0;"/><!--MD5=[4b5965c76b5b5f656aeae5e76be5074b]
link ca_scp1_d4_adpt_timer to ca_scp1_d4_adpt_conv--><path d="M675.38,571.5 C687,571.5 698.62,571.5 710.25,571.5 " fill="none" id="ca_scp1_d4_adpt_timer-ca_scp1_d4_adpt_conv" style="stroke:#A80036;stroke-width:1.0;"/><!--MD5=[3637ca738a5c7b0320b423c41ff7e0a5]
link ca_scp1_d4_adpt_conv to ca_scp1_ds1--><path d="M753,589.74 C753,609.31 753,641.6 753,665.56 " fill="none" id="ca_scp1_d4_adpt_conv-ca_scp1_ds1" style="stroke:#A80036;stroke-width:1.0;stroke-dasharray:7.0,7.0;"/><!--MD5=[1635e604997374ea39dbea3fd2780885]
link ca_scp1_d4_adpt_conv to ca_scp1_d4_cache_rest--><path d="M795.87,571.5 C815.48,571.5 838.72,571.5 858.63,571.5 " fill="none" id="ca_scp1_d4_adpt_conv-to-ca_scp1_d4_cache_rest" style="stroke:#A80036;stroke-width:1.0;"/><polygon fill="#A80036" points="863.88,571.5,854.88,567.5,858.88,571.5,854.88,575.5,863.88,571.5" style="stroke:#A80036;stroke-width:1.0;"/><text fill="#000000" font-family="sans-serif" font-size="13" lengthAdjust="spacing" textLength="32" x="813.75" y="565.0684">POST</text><!--MD5=[e19cfeb4065a7d2bee32219cbaf8769e]
link ca_scp1_d4_prxy_conv to ca_scp1_d4_cache_rest--><path d="M805.23,414.19 C826.21,447.39 862.67,505.09 884.94,540.33 " fill="none" id="ca_scp1_d4_prxy_conv-to-ca_scp1_d4_cache_rest" style="stroke:#A80036;stroke-width:1.0;"/><polygon fill="#A80036" points="887.85,544.94,886.4248,535.1948,885.1795,540.7129,879.6614,539.4676,887.85,544.94" style="stroke:#A80036;stroke-width:1.0;"/><text fill="#000000" font-family="sans-serif" font-size="13" lengthAdjust="spacing" textLength="24" x="844" y="471.5684">GET</text><!--MD5=[e550bb526413d9010581ae86a23b10f6]
link ca_scp2_d4_cache_rest to ca_scp2_d4_cache_store--><path d="M390.45,387.5 C398.56,387.5 406.67,387.5 414.78,387.5 " fill="none" id="ca_scp2_d4_cache_rest-ca_scp2_d4_cache_store" style="stroke:#008000;stroke-width:1.0;"/><polygon fill="#008000" points="419.83,387.5,410.83,383.5,414.83,387.5,410.83,391.5,419.83,387.5" style="stroke:#008000;stroke-width:1.0;"/><polygon fill="#008000" points="385.32,387.5,394.32,391.5,390.32,387.5,394.32,383.5,385.32,387.5" style="stroke:#008000;stroke-width:1.0;"/><!--MD5=[5a8da06cc006107840f1e659d3f90861]
reverse link ca_scp2_d4_ui_srv to ca_scp2_d4_actor_ui--><path d="M447.49,195.97 C468.01,210.69 492.71,231.69 508,256 C525.36,283.6 534.19,319.7 538.63,346.94 " fill="none" id="ca_scp2_d4_ui_srv-backto-ca_scp2_d4_actor_ui" style="stroke:#A80036;stroke-width:1.0;"/><polygon fill="#A80036" points="443.18,192.92,448.2237,201.3794,447.264,195.8045,452.8389,194.8449,443.18,192.92" style="stroke:#A80036;stroke-width:1.0;"/><text fill="#000000" font-family="sans-serif" font-size="13" lengthAdjust="spacing" textLength="24" x="504" y="244.5684">GET</text><!--MD5=[0e0f78942f03777cb85353fc45015885]
reverse link ca_scp2_d4_cache_rest to ca_scp2_d4_actor_ui--><path d="M350.58,355.69 C357.4,327.47 371.98,287.87 402,269 C441.88,243.93 470.26,240.8 508,269 C531.8,286.79 540.09,320.01 542.69,346.76 " fill="none" id="ca_scp2_d4_cache_rest-backto-ca_scp2_d4_actor_ui" style="stroke:#A80036;stroke-width:1.0;"/><polygon fill="#A80036" points="349.4,360.82,355.328,352.955,350.5285,355.949,347.5345,351.1494,349.4,360.82" style="stroke:#A80036;stroke-width:1.0;"/><text fill="#000000" font-family="sans-serif" font-size="13" lengthAdjust="spacing" textLength="24" x="406" y="244.5684">GET</text><!--MD5=[b614ff47d788ed0398363111d71d82bd]
link ca_scp2_d4_adpt_timer to ca_scp2_d4_adpt_conv--><path d="M116.38,387.5 C128,387.5 139.62,387.5 151.25,387.5 " fill="none" id="ca_scp2_d4_adpt_timer-ca_scp2_d4_adpt_conv" style="stroke:#A80036;stroke-width:1.0;"/><!--MD5=[c332a0001e79e95543f8599eb1c985af]
link ca_scp2_d4_adpt_conv to ca_scp2_ds2--><path d="M194,405.62 C194,436.33 194,501.15 194,539.73 " fill="none" id="ca_scp2_d4_adpt_conv-ca_scp2_ds2" style="stroke:#A80036;stroke-width:1.0;stroke-dasharray:7.0,7.0;"/><!--MD5=[46e2eedb1ee72f94afeeaca75169cf83]
link ca_scp2_d4_adpt_conv to ca_scp2_d4_cache_rest--><path d="M236.87,387.5 C256.48,387.5 279.72,387.5 299.63,387.5 " fill="none" id="ca_scp2_d4_adpt_conv-to-ca_scp2_d4_cache_rest" style="stroke:#A80036;stroke-width:1.0;"/><polygon fill="#A80036" points="304.88,387.5,295.88,383.5,299.88,387.5,295.88,391.5,304.88,387.5" style="stroke:#A80036;stroke-width:1.0;"/><text fill="#000000" font-family="sans-serif" font-size="13" lengthAdjust="spacing" textLength="32" x="254.75" y="381.0684">POST</text><!--MD5=[cc73ec511a5fca8a2ab6a0d1abbc92a4]
link ca_scp2_d4_ui_srv to ca_scp2_d4_cache_rest--><path d="M380.99,190.59 C366.59,200.36 350.94,214.05 343,231 C324.3,270.92 330.27,323.17 337.04,355.78 " fill="none" id="ca_scp2_d4_ui_srv-to-ca_scp2_d4_cache_rest" style="stroke:#A80036;stroke-width:1.0;"/><polygon fill="#A80036" points="338.13,360.84,340.1631,351.2033,337.0863,355.9502,332.3394,352.8733,338.13,360.84" style="stroke:#A80036;stroke-width:1.0;"/><text fill="#000000" font-family="sans-serif" font-size="13" lengthAdjust="spacing" textLength="24" x="344" y="244.5684">GET</text><!--MD5=[01ccef75e43792053f439d2e4fe816e5]
link ca_scp2_d4_actor_ui to ca_scp1_d4_prxy_conv--><path d="M558.76,387.5 C596.57,387.5 693.35,387.5 748.65,387.5 " fill="none" id="ca_scp2_d4_actor_ui-to-ca_scp1_d4_prxy_conv" style="stroke:#A80036;stroke-width:1.0;"/><polygon fill="#A80036" points="753.87,387.5,744.87,383.5,748.87,387.5,744.87,391.5,753.87,387.5" style="stroke:#A80036;stroke-width:1.0;"/><text fill="#000000" font-family="sans-serif" font-size="13" lengthAdjust="spacing" textLength="24" x="644.25" y="381.0684">GET</text><!--MD5=[468c127986e240470d577066aa400330]
@startuml
!include include/d4_inc_scope.puml

package ca as "Company ACME" {
    $d4scope(ca, scp1, "Networking (Scope 1)", $show_ds1=true, $show_ds2=false, $show_ds3=false, $show_rproxy=true, $show_cache=true, $show_ui=false, $show_ui_user=false, $show_adpt=true)
    $d4scope(ca, scp2, "Compute (Scope 2)", $show_ds1=false, $show_ds2=true, $show_ds3=false, $show_rproxy=false, $show_cache=true, $show_ui=true, $show_ui_user=true, $show_adpt=true)
    ca_scp1_d4_prxy_conv <-l- ca_scp2_d4_actor_ui : GET

}

@enduml

@startuml

skinparam LegendFontSize 8










package ca as "Company ACME" {
        package ca_scp1 as "Networking (Scope 1)" {

            node ca_scp1_ds1 as "(foreign)\ndatasource 1"



                card ca_scp1_d4_prxy as "d4 proxy" {
        rectangle ca_scp1_d4_prxy_conv as "reverse\nproxy"
    }

                card ca_scp1_d4_cache as "d4 cache" {
        rectangle ca_scp1_d4_cache_rest as "REST-\ninterface"
        storage ca_scp1_d4_cache_store as "volatile\nstorage"
        ca_scp1_d4_cache_store <-l-> ca_scp1_d4_cache_rest #green
    }




                card ca_scp1_d4_adpt as "d4 adapter" {
        control ca_scp1_d4_adpt_timer as "timer"
        rectangle ca_scp1_d4_adpt_conv as "converter"
        ca_scp1_d4_adpt_timer -r- ca_scp1_d4_adpt_conv
    }


            ca_scp1_ds1 .u. ca_scp1_d4_adpt_conv


            ca_scp1_d4_adpt_conv -r-> ca_scp1_d4_cache_rest : POST

            ca_scp1_d4_prxy_conv -d-> ca_scp1_d4_cache_rest : GET


    }
        package ca_scp2 as "Compute (Scope 2)" {


            node ca_scp2_ds2 as "(foreign)\ndatasource 2"



                card ca_scp2_d4_cache as "d4 cache" {
        rectangle ca_scp2_d4_cache_rest as "REST-\ninterface"
        storage ca_scp2_d4_cache_store as "volatile\nstorage"
        ca_scp2_d4_cache_store <-l-> ca_scp2_d4_cache_rest #green
    }

                card ca_scp2_d4_ui as "d4 UI" {
        rectangle ca_scp2_d4_ui_srv as "UI\nserver"
    }

            actor ca_scp2_d4_actor_ui as "User"
            ca_scp2_d4_actor_ui -l-> ca_scp2_d4_ui_srv : GET

            ca_scp2_d4_cache_rest <- ca_scp2_d4_actor_ui : GET

                card ca_scp2_d4_adpt as "d4 adapter" {
        control ca_scp2_d4_adpt_timer as "timer"
        rectangle ca_scp2_d4_adpt_conv as "converter"
        ca_scp2_d4_adpt_timer -r- ca_scp2_d4_adpt_conv
    }



            ca_scp2_ds2 .u. ca_scp2_d4_adpt_conv

            ca_scp2_d4_adpt_conv -r-> ca_scp2_d4_cache_rest : POST


            ca_scp2_d4_ui_srv -d-> ca_scp2_d4_cache_rest : GET

    }
    ca_scp1_d4_prxy_conv <-l- ca_scp2_d4_actor_ui : GET

}

@enduml

PlantUML version 1.2021.14(Fri Nov 12 17:46:50 CET 2021)
(GPL source distribution)
Java Runtime: OpenJDK Runtime Environment
JVM: OpenJDK 64-Bit Server VM
Default Encoding: UTF-8
Language: de
Country: DE
--></g></svg>