<?xml version="1.0" encoding="UTF-8" standalone="no"?><svg xmlns="http://www.w3.org/2000/svg" xmlns:xlink="http://www.w3.org/1999/xlink" contentScriptType="application/ecmascript" contentStyleType="text/css" height="719px" preserveAspectRatio="none" style="width:1447px;height:719px;background:#FFFFFF;" version="1.1" viewBox="0 0 1447 719" width="1447px" zoomAndPan="magnify"><defs><filter height="300%" id="f1ibqh0k2apt36" width="300%" x="-1" y="-1"><feGaussianBlur result="blurOut" stdDeviation="2.0"/><feColorMatrix in="blurOut" result="blurOut2" type="matrix" values="0 0 0 0 0 0 0 0 0 0 0 0 0 0 0 0 0 0 .4 0"/><feOffset dx="4.0" dy="4.0" in="blurOut2" result="blurOut3"/><feBlend in="SourceGraphic" in2="blurOut3" mode="normal"/></filter></defs><g><!--MD5=[1035137668336d8ecd6582f6df806ab3]
cluster ca--><polygon fill="#FFFFFF" filter="url(#f1ibqh0k2apt36)" points="16,6,135,6,142,28.4883,1430,28.4883,1430,712,16,712,16,6" style="stroke:#000000;stroke-width:1.5;"/><line style="stroke:#000000;stroke-width:1.5;" x1="16" x2="142" y1="28.4883" y2="28.4883"/><text fill="#000000" font-family="sans-serif" font-size="14" font-weight="bold" lengthAdjust="spacing" textLength="113" x="20" y="21.5352">Company ACME</text><!--MD5=[dea034dd557578f17a57532622942fa0]
cluster ca_scp1--><polygon fill="#FFFFFF" filter="url(#f1ibqh0k2apt36)" points="735,49,796,49,803,71.4883,1406,71.4883,1406,688,735,688,735,49" style="stroke:#000000;stroke-width:1.5;"/><line style="stroke:#000000;stroke-width:1.5;" x1="735" x2="803" y1="71.4883" y2="71.4883"/><text fill="#000000" font-family="sans-serif" font-size="14" font-weight="bold" lengthAdjust="spacing" textLength="55" x="739" y="64.5352">Scope 1</text><!--MD5=[8694e91e1d565d0785daf3633727225c]
cluster ca_scp1_ds3--><polygon fill="#FFFFFF" filter="url(#f1ibqh0k2apt36)" points="759,458,769,448,1080,448,1080,654,1070,664,759,664,759,458" style="stroke:#000000;stroke-width:1.5;"/><line style="stroke:#000000;stroke-width:1.5;" x1="1070" x2="1080" y1="458" y2="448"/><line style="stroke:#000000;stroke-width:1.5;" x1="759" x2="1070" y1="458" y2="458"/><line style="stroke:#000000;stroke-width:1.5;" x1="1070" x2="1070" y1="458" y2="664"/><text fill="#000000" font-family="sans-serif" font-size="14" font-weight="bold" lengthAdjust="spacing" textLength="137" x="847" y="474.5352">(own) datasource 3</text><!--MD5=[b2c47d5ceb36a176edb16903e1db70db]
cluster ca_scp1_d4_spot--><rect fill="#FFFFFF" filter="url(#f1ibqh0k2apt36)" height="139" style="stroke:#000000;stroke-width:1.5;" width="273" x="783" y="501"/><line style="stroke:#000000;stroke-width:1.5;" x1="783" x2="1056" y1="521.4883" y2="521.4883"/><text fill="#000000" font-family="sans-serif" font-size="14" font-weight="bold" lengthAdjust="spacing" textLength="55" x="892" y="516.5352">d4 spot</text><!--MD5=[d48fbda33315262dba176fdfb6aaed82]
cluster ca_scp1_d4_prxy--><rect fill="#FFFFFF" filter="url(#f1ibqh0k2apt36)" height="123" style="stroke:#000000;stroke-width:1.5;" width="102" x="1207" y="92"/><line style="stroke:#000000;stroke-width:1.5;" x1="1207" x2="1309" y1="112.4883" y2="112.4883"/><text fill="#000000" font-family="sans-serif" font-size="14" font-weight="bold" lengthAdjust="spacing" textLength="63" x="1226.5" y="107.5352">d4 proxy</text><!--MD5=[a172b5daa5e9006c18af5cf4701e7a0c]
cluster ca_scp1_d4_cache--><rect fill="#FFFFFF" filter="url(#f1ibqh0k2apt36)" height="123" style="stroke:#000000;stroke-width:1.5;" width="219" x="1163" y="264"/><line style="stroke:#000000;stroke-width:1.5;" x1="1163" x2="1382" y1="284.4883" y2="284.4883"/><text fill="#000000" font-family="sans-serif" font-size="14" font-weight="bold" lengthAdjust="spacing" textLength="62" x="1241.5" y="279.5352">d4 cache</text><!--MD5=[693e33cdd78bcd323bc2a981fb44285c]
cluster ca_scp1_d4_ui--><rect fill="#FFFFFF" filter="url(#f1ibqh0k2apt36)" height="123" style="stroke:#000000;stroke-width:1.5;" width="94" x="1084" y="92"/><line style="stroke:#000000;stroke-width:1.5;" x1="1084" x2="1178" y1="112.4883" y2="112.4883"/><text fill="#000000" font-family="sans-serif" font-size="14" font-weight="bold" lengthAdjust="spacing" textLength="38" x="1112" y="107.5352">d4 UI</text><!--MD5=[fabf52ac740be3bee4e1c249ef44a8fc]
cluster ca_scp1_d4_adpt--><rect fill="#FFFFFF" filter="url(#f1ibqh0k2apt36)" height="118" style="stroke:#000000;stroke-width:1.5;" width="189" x="880" y="266.5"/><line style="stroke:#000000;stroke-width:1.5;" x1="880" x2="1069" y1="286.9883" y2="286.9883"/><text fill="#000000" font-family="sans-serif" font-size="14" font-weight="bold" lengthAdjust="spacing" textLength="77" x="936" y="282.0352">d4 adapter</text><!--MD5=[de8b6c6ae91bde3b34a9009c86eb3982]
cluster ca_scp2--><polygon fill="#FFFFFF" filter="url(#f1ibqh0k2apt36)" points="40,49,101,49,108,71.4883,711,71.4883,711,688,40,688,40,49" style="stroke:#000000;stroke-width:1.5;"/><line style="stroke:#000000;stroke-width:1.5;" x1="40" x2="108" y1="71.4883" y2="71.4883"/><text fill="#000000" font-family="sans-serif" font-size="14" font-weight="bold" lengthAdjust="spacing" textLength="55" x="44" y="64.5352">Scope 2</text><!--MD5=[1ebeedf447406565d7a0589cf1250dc1]
cluster ca_scp2_ds3--><polygon fill="#FFFFFF" filter="url(#f1ibqh0k2apt36)" points="64,458,74,448,385,448,385,654,375,664,64,664,64,458" style="stroke:#000000;stroke-width:1.5;"/><line style="stroke:#000000;stroke-width:1.5;" x1="375" x2="385" y1="458" y2="448"/><line style="stroke:#000000;stroke-width:1.5;" x1="64" x2="375" y1="458" y2="458"/><line style="stroke:#000000;stroke-width:1.5;" x1="375" x2="375" y1="458" y2="664"/><text fill="#000000" font-family="sans-serif" font-size="14" font-weight="bold" lengthAdjust="spacing" textLength="137" x="152" y="474.5352">(own) datasource 3</text><!--MD5=[9e47f21328eff3ff60daea30e2b03ef4]
cluster ca_scp2_d4_spot--><rect fill="#FFFFFF" filter="url(#f1ibqh0k2apt36)" height="139" style="stroke:#000000;stroke-width:1.5;" width="273" x="88" y="501"/><line style="stroke:#000000;stroke-width:1.5;" x1="88" x2="361" y1="521.4883" y2="521.4883"/><text fill="#000000" font-family="sans-serif" font-size="14" font-weight="bold" lengthAdjust="spacing" textLength="55" x="197" y="516.5352">d4 spot</text><!--MD5=[41fd419428b5dce0a22f5730d7e17cef]
cluster ca_scp2_d4_prxy--><rect fill="#FFFFFF" filter="url(#f1ibqh0k2apt36)" height="123" style="stroke:#000000;stroke-width:1.5;" width="102" x="528" y="92"/><line style="stroke:#000000;stroke-width:1.5;" x1="528" x2="630" y1="112.4883" y2="112.4883"/><text fill="#000000" font-family="sans-serif" font-size="14" font-weight="bold" lengthAdjust="spacing" textLength="63" x="547.5" y="107.5352">d4 proxy</text><!--MD5=[0ed037634904448588212b030c8939eb]
cluster ca_scp2_d4_cache--><rect fill="#FFFFFF" filter="url(#f1ibqh0k2apt36)" height="123" style="stroke:#000000;stroke-width:1.5;" width="219" x="468" y="264"/><line style="stroke:#000000;stroke-width:1.5;" x1="468" x2="687" y1="284.4883" y2="284.4883"/><text fill="#000000" font-family="sans-serif" font-size="14" font-weight="bold" lengthAdjust="spacing" textLength="62" x="546.5" y="279.5352">d4 cache</text><!--MD5=[d78ee1ad341bcfdeaa88ab38da703927]
cluster ca_scp2_d4_ui--><rect fill="#FFFFFF" filter="url(#f1ibqh0k2apt36)" height="123" style="stroke:#000000;stroke-width:1.5;" width="94" x="386" y="92"/><line style="stroke:#000000;stroke-width:1.5;" x1="386" x2="480" y1="112.4883" y2="112.4883"/><text fill="#000000" font-family="sans-serif" font-size="14" font-weight="bold" lengthAdjust="spacing" textLength="38" x="414" y="107.5352">d4 UI</text><!--MD5=[af61b450baf6975ad9d8be86dae42258]
cluster ca_scp2_d4_adpt--><rect fill="#FFFFFF" filter="url(#f1ibqh0k2apt36)" height="118" style="stroke:#000000;stroke-width:1.5;" width="189" x="185" y="266.5"/><line style="stroke:#000000;stroke-width:1.5;" x1="185" x2="374" y1="286.9883" y2="286.9883"/><text fill="#000000" font-family="sans-serif" font-size="14" font-weight="bold" lengthAdjust="spacing" textLength="77" x="241" y="282.0352">d4 adapter</text><!--MD5=[5a96453d9da75a3ce2c408dca49ca6c1]
entity ca_scp1_ds1--><polygon fill="#FEFECE" filter="url(#f1ibqh0k2apt36)" points="1096.5,568,1106.5,558,1225.5,558,1225.5,610.9766,1215.5,620.9766,1096.5,620.9766,1096.5,568" style="stroke:#000000;stroke-width:1.5;"/><line style="stroke:#000000;stroke-width:1.5;" x1="1215.5" x2="1225.5" y1="568" y2="558"/><line style="stroke:#000000;stroke-width:1.5;" x1="1096.5" x2="1215.5" y1="568" y2="568"/><line style="stroke:#000000;stroke-width:1.5;" x1="1215.5" x2="1215.5" y1="568" y2="620.9766"/><text fill="#000000" font-family="sans-serif" font-size="14" lengthAdjust="spacing" textLength="60" x="1111.5" y="591.5352">(foreign)</text><text fill="#000000" font-family="sans-serif" font-size="14" lengthAdjust="spacing" textLength="89" x="1111.5" y="608.0234">datasource 1</text><!--MD5=[494834349b401b36fa832acd8798cb44]
entity ca_scp1_ds2--><polygon fill="#FEFECE" filter="url(#f1ibqh0k2apt36)" points="1260.5,568,1270.5,558,1389.5,558,1389.5,610.9766,1379.5,620.9766,1260.5,620.9766,1260.5,568" style="stroke:#000000;stroke-width:1.5;"/><line style="stroke:#000000;stroke-width:1.5;" x1="1379.5" x2="1389.5" y1="568" y2="558"/><line style="stroke:#000000;stroke-width:1.5;" x1="1260.5" x2="1379.5" y1="568" y2="568"/><line style="stroke:#000000;stroke-width:1.5;" x1="1379.5" x2="1379.5" y1="568" y2="620.9766"/><text fill="#000000" font-family="sans-serif" font-size="14" lengthAdjust="spacing" textLength="60" x="1275.5" y="591.5352">(foreign)</text><text fill="#000000" font-family="sans-serif" font-size="14" lengthAdjust="spacing" textLength="89" x="1275.5" y="608.0234">datasource 2</text><!--MD5=[d6572d05bae0b45f86894e05bbb0566c]
entity ca_scp1_d4_actor_ui--><ellipse cx="1103" cy="313.5" fill="#FEFECE" filter="url(#f1ibqh0k2apt36)" rx="8" ry="8" style="stroke:#A80036;stroke-width:1.5;"/><path d="M1103,321.5 L1103,348.5 M1090,329.5 L1116,329.5 M1103,348.5 L1090,363.5 M1103,348.5 L1116,363.5 " fill="none" filter="url(#f1ibqh0k2apt36)" style="stroke:#A80036;stroke-width:1.5;"/><text fill="#000000" font-family="sans-serif" font-size="14" lengthAdjust="spacing" textLength="31" x="1087.5" y="382.5352">User</text><!--MD5=[375233d82fbdbb3247fc200020c71284]
entity ca_scp1_d4_spot_store--><rect fill="#FEFECE" filter="url(#f1ibqh0k2apt36)" height="52.9766" rx="35" ry="35" style="stroke:#000000;stroke-width:1.5;" width="72" x="799" y="563"/><text fill="#000000" font-family="sans-serif" font-size="14" lengthAdjust="spacing" textLength="51" x="809" y="586.5352">reliable</text><text fill="#000000" font-family="sans-serif" font-size="14" lengthAdjust="spacing" textLength="52" x="809" y="603.0234">storage</text><!--MD5=[0106005fcebc07bf744eb475c1308f40]
entity ca_scp1_d4_spot_webio--><rect fill="#FEFECE" filter="url(#f1ibqh0k2apt36)" height="69.4648" style="stroke:#000000;stroke-width:1.5;" width="134" x="906" y="555"/><text fill="#000000" font-family="sans-serif" font-size="14" lengthAdjust="spacing" textLength="72" x="916" y="578.5352">UI-Form &amp;</text><text fill="#000000" font-family="sans-serif" font-size="14" lengthAdjust="spacing" textLength="114" x="916" y="595.0234">UI-Im-/Export &amp;</text><text fill="#000000" font-family="sans-serif" font-size="14" lengthAdjust="spacing" textLength="102" x="916" y="611.5117">REST-Interface</text><!--MD5=[df9798fedb3f6cd9fa6e5f247874aa33]
entity ca_scp1_d4_prxy_conv--><rect fill="#FEFECE" filter="url(#f1ibqh0k2apt36)" height="52.9766" style="stroke:#000000;stroke-width:1.5;" width="70" x="1223" y="146"/><text fill="#000000" font-family="sans-serif" font-size="14" lengthAdjust="spacing" textLength="50" x="1233" y="169.5352">reverse</text><text fill="#000000" font-family="sans-serif" font-size="14" lengthAdjust="spacing" textLength="40" x="1233" y="186.0234">proxy</text><!--MD5=[e1dbf49cf27afbeba64e24a0ce70e6ae]
entity ca_scp1_d4_cache_rest--><rect fill="#FEFECE" filter="url(#f1ibqh0k2apt36)" height="52.9766" style="stroke:#000000;stroke-width:1.5;" width="80" x="1179" y="318"/><text fill="#000000" font-family="sans-serif" font-size="14" lengthAdjust="spacing" textLength="42" x="1189" y="341.5352">REST-</text><text fill="#000000" font-family="sans-serif" font-size="14" lengthAdjust="spacing" textLength="60" x="1189" y="358.0234">interface</text><!--MD5=[e1975c8101ca07b4f270cc47b82c0507]
entity ca_scp1_d4_cache_store--><rect fill="#FEFECE" filter="url(#f1ibqh0k2apt36)" height="52.9766" rx="35" ry="35" style="stroke:#000000;stroke-width:1.5;" width="72" x="1294" y="318"/><text fill="#000000" font-family="sans-serif" font-size="14" lengthAdjust="spacing" textLength="49" x="1304" y="341.5352">volatile</text><text fill="#000000" font-family="sans-serif" font-size="14" lengthAdjust="spacing" textLength="52" x="1304" y="358.0234">storage</text><!--MD5=[5989dfe0837aa72763db7b4609e408c6]
entity ca_scp1_d4_ui_srv--><rect fill="#FEFECE" filter="url(#f1ibqh0k2apt36)" height="52.9766" style="stroke:#000000;stroke-width:1.5;" width="62" x="1100" y="146"/><text fill="#000000" font-family="sans-serif" font-size="14" lengthAdjust="spacing" textLength="14" x="1110" y="169.5352">UI</text><text fill="#000000" font-family="sans-serif" font-size="14" lengthAdjust="spacing" textLength="42" x="1110" y="186.0234">server</text><!--MD5=[99ca27a3366a70301b91daf5299cc400]
entity ca_scp1_d4_adpt_timer--><ellipse cx="914" cy="336.5" fill="#FEFECE" filter="url(#f1ibqh0k2apt36)" rx="12" ry="12" style="stroke:#A80036;stroke-width:1.5;"/><polygon fill="#A80036" points="910,324.5,916,319.5,914,324.5,916,329.5,910,324.5" style="stroke:#A80036;stroke-width:1.0;"/><text fill="#000000" font-family="sans-serif" font-size="14" lengthAdjust="spacing" textLength="36" x="896" y="366.0352">timer</text><!--MD5=[22101d0641ed2f80e49c63bcd53fe6bb]
entity ca_scp1_d4_adpt_conv--><rect fill="#FEFECE" filter="url(#f1ibqh0k2apt36)" height="36.4883" style="stroke:#000000;stroke-width:1.5;" width="85" x="967.5" y="326.5"/><text fill="#000000" font-family="sans-serif" font-size="14" lengthAdjust="spacing" textLength="65" x="977.5" y="350.0352">converter</text><!--MD5=[99b9b418dff33563fc7cf7b50558d3ec]
entity ca_scp2_ds1--><polygon fill="#FEFECE" filter="url(#f1ibqh0k2apt36)" points="401.5,568,411.5,558,530.5,558,530.5,610.9766,520.5,620.9766,401.5,620.9766,401.5,568" style="stroke:#000000;stroke-width:1.5;"/><line style="stroke:#000000;stroke-width:1.5;" x1="520.5" x2="530.5" y1="568" y2="558"/><line style="stroke:#000000;stroke-width:1.5;" x1="401.5" x2="520.5" y1="568" y2="568"/><line style="stroke:#000000;stroke-width:1.5;" x1="520.5" x2="520.5" y1="568" y2="620.9766"/><text fill="#000000" font-family="sans-serif" font-size="14" lengthAdjust="spacing" textLength="60" x="416.5" y="591.5352">(foreign)</text><text fill="#000000" font-family="sans-serif" font-size="14" lengthAdjust="spacing" textLength="89" x="416.5" y="608.0234">datasource 1</text><!--MD5=[1f1e7f8e4ce30add38777d4737f73887]
entity ca_scp2_ds2--><polygon fill="#FEFECE" filter="url(#f1ibqh0k2apt36)" points="565.5,568,575.5,558,694.5,558,694.5,610.9766,684.5,620.9766,565.5,620.9766,565.5,568" style="stroke:#000000;stroke-width:1.5;"/><line style="stroke:#000000;stroke-width:1.5;" x1="684.5" x2="694.5" y1="568" y2="558"/><line style="stroke:#000000;stroke-width:1.5;" x1="565.5" x2="684.5" y1="568" y2="568"/><line style="stroke:#000000;stroke-width:1.5;" x1="684.5" x2="684.5" y1="568" y2="620.9766"/><text fill="#000000" font-family="sans-serif" font-size="14" lengthAdjust="spacing" textLength="60" x="580.5" y="591.5352">(foreign)</text><text fill="#000000" font-family="sans-serif" font-size="14" lengthAdjust="spacing" textLength="89" x="580.5" y="608.0234">datasource 2</text><!--MD5=[22a083cebd7e8c2d380952c943560548]
entity ca_scp2_d4_actor_ui--><ellipse cx="408" cy="313.5" fill="#FEFECE" filter="url(#f1ibqh0k2apt36)" rx="8" ry="8" style="stroke:#A80036;stroke-width:1.5;"/><path d="M408,321.5 L408,348.5 M395,329.5 L421,329.5 M408,348.5 L395,363.5 M408,348.5 L421,363.5 " fill="none" filter="url(#f1ibqh0k2apt36)" style="stroke:#A80036;stroke-width:1.5;"/><text fill="#000000" font-family="sans-serif" font-size="14" lengthAdjust="spacing" textLength="31" x="392.5" y="382.5352">User</text><!--MD5=[481c69c22ad4d8a6e72b66e6d0dc74ae]
entity ca_scp2_d4_spot_store--><rect fill="#FEFECE" filter="url(#f1ibqh0k2apt36)" height="52.9766" rx="35" ry="35" style="stroke:#000000;stroke-width:1.5;" width="72" x="104" y="563"/><text fill="#000000" font-family="sans-serif" font-size="14" lengthAdjust="spacing" textLength="51" x="114" y="586.5352">reliable</text><text fill="#000000" font-family="sans-serif" font-size="14" lengthAdjust="spacing" textLength="52" x="114" y="603.0234">storage</text><!--MD5=[88ee95ae676605f3409039147f1547fb]
entity ca_scp2_d4_spot_webio--><rect fill="#FEFECE" filter="url(#f1ibqh0k2apt36)" height="69.4648" style="stroke:#000000;stroke-width:1.5;" width="134" x="211" y="555"/><text fill="#000000" font-family="sans-serif" font-size="14" lengthAdjust="spacing" textLength="72" x="221" y="578.5352">UI-Form &amp;</text><text fill="#000000" font-family="sans-serif" font-size="14" lengthAdjust="spacing" textLength="114" x="221" y="595.0234">UI-Im-/Export &amp;</text><text fill="#000000" font-family="sans-serif" font-size="14" lengthAdjust="spacing" textLength="102" x="221" y="611.5117">REST-Interface</text><!--MD5=[46383afacf8ea18edf5241e594b1c30f]
entity ca_scp2_d4_prxy_conv--><rect fill="#FEFECE" filter="url(#f1ibqh0k2apt36)" height="52.9766" style="stroke:#000000;stroke-width:1.5;" width="70" x="544" y="146"/><text fill="#000000" font-family="sans-serif" font-size="14" lengthAdjust="spacing" textLength="50" x="554" y="169.5352">reverse</text><text fill="#000000" font-family="sans-serif" font-size="14" lengthAdjust="spacing" textLength="40" x="554" y="186.0234">proxy</text><!--MD5=[64b92ba91121dfb82294f6eb968aa6ae]
entity ca_scp2_d4_cache_rest--><rect fill="#FEFECE" filter="url(#f1ibqh0k2apt36)" height="52.9766" style="stroke:#000000;stroke-width:1.5;" width="80" x="484" y="318"/><text fill="#000000" font-family="sans-serif" font-size="14" lengthAdjust="spacing" textLength="42" x="494" y="341.5352">REST-</text><text fill="#000000" font-family="sans-serif" font-size="14" lengthAdjust="spacing" textLength="60" x="494" y="358.0234">interface</text><!--MD5=[c79392e4c8fe37ef2ac1df4b129732fa]
entity ca_scp2_d4_cache_store--><rect fill="#FEFECE" filter="url(#f1ibqh0k2apt36)" height="52.9766" rx="35" ry="35" style="stroke:#000000;stroke-width:1.5;" width="72" x="599" y="318"/><text fill="#000000" font-family="sans-serif" font-size="14" lengthAdjust="spacing" textLength="49" x="609" y="341.5352">volatile</text><text fill="#000000" font-family="sans-serif" font-size="14" lengthAdjust="spacing" textLength="52" x="609" y="358.0234">storage</text><!--MD5=[5b27b641ebd465d9b5f7d38c161f7300]
entity ca_scp2_d4_ui_srv--><rect fill="#FEFECE" filter="url(#f1ibqh0k2apt36)" height="52.9766" style="stroke:#000000;stroke-width:1.5;" width="62" x="402" y="146"/><text fill="#000000" font-family="sans-serif" font-size="14" lengthAdjust="spacing" textLength="14" x="412" y="169.5352">UI</text><text fill="#000000" font-family="sans-serif" font-size="14" lengthAdjust="spacing" textLength="42" x="412" y="186.0234">server</text><!--MD5=[2ccf01c1d642166b56b9c9fba395c0b1]
entity ca_scp2_d4_adpt_timer--><ellipse cx="219" cy="336.5" fill="#FEFECE" filter="url(#f1ibqh0k2apt36)" rx="12" ry="12" style="stroke:#A80036;stroke-width:1.5;"/><polygon fill="#A80036" points="215,324.5,221,319.5,219,324.5,221,329.5,215,324.5" style="stroke:#A80036;stroke-width:1.0;"/><text fill="#000000" font-family="sans-serif" font-size="14" lengthAdjust="spacing" textLength="36" x="201" y="366.0352">timer</text><!--MD5=[c3501e5f4a2180a94e242530c84fc64e]
entity ca_scp2_d4_adpt_conv--><rect fill="#FEFECE" filter="url(#f1ibqh0k2apt36)" height="36.4883" style="stroke:#000000;stroke-width:1.5;" width="85" x="272.5" y="326.5"/><text fill="#000000" font-family="sans-serif" font-size="14" lengthAdjust="spacing" textLength="65" x="282.5" y="350.0352">converter</text><!--MD5=[199b1aca994ea135d023cfa756bd8265]
link ca_scp1_d4_spot_store to ca_scp1_d4_spot_webio--><path d="M876.26,589.5 C884.4,589.5 892.53,589.5 900.67,589.5 " fill="none" id="ca_scp1_d4_spot_store-ca_scp1_d4_spot_webio" style="stroke:#008000;stroke-width:1.0;"/><polygon fill="#008000" points="905.74,589.5,896.74,585.5,900.74,589.5,896.74,593.5,905.74,589.5" style="stroke:#008000;stroke-width:1.0;"/><polygon fill="#008000" points="871.12,589.5,880.12,593.5,876.12,589.5,880.12,585.5,871.12,589.5" style="stroke:#008000;stroke-width:1.0;"/><!--MD5=[4f8664ab5dc667180f9cba4786c5fbf7]
link ca_scp1_d4_cache_rest to ca_scp1_d4_cache_store--><path d="M1264.45,344.5 C1272.56,344.5 1280.67,344.5 1288.78,344.5 " fill="none" id="ca_scp1_d4_cache_rest-ca_scp1_d4_cache_store" style="stroke:#008000;stroke-width:1.0;"/><polygon fill="#008000" points="1293.83,344.5,1284.83,340.5,1288.83,344.5,1284.83,348.5,1293.83,344.5" style="stroke:#008000;stroke-width:1.0;"/><polygon fill="#008000" points="1259.32,344.5,1268.32,348.5,1264.32,344.5,1268.32,340.5,1259.32,344.5" style="stroke:#008000;stroke-width:1.0;"/><!--MD5=[b559d16a1afa1d8882db837bc2226fdb]
reverse link ca_scp1_d4_ui_srv to ca_scp1_d4_actor_ui--><path d="M1125.92,204.37 C1121.32,232.27 1114.53,273.49 1109.54,303.82 " fill="none" id="ca_scp1_d4_ui_srv-backto-ca_scp1_d4_actor_ui" style="stroke:#A80036;stroke-width:1.0;"/><polygon fill="#A80036" points="1126.75,199.32,1121.3364,207.5476,1125.935,204.2531,1129.2294,208.8517,1126.75,199.32" style="stroke:#A80036;stroke-width:1.0;"/><text fill="#000000" font-family="sans-serif" font-size="13" lengthAdjust="spacing" textLength="24" x="1122" y="244.5684">GET</text><!--MD5=[1f6dc1d2a6a79b65dd140f087e1b8aac]
reverse link ca_scp1_d4_cache_rest to ca_scp1_d4_actor_ui--><path d="M1173.3,344.5 C1153.94,344.5 1132.66,344.5 1118.64,344.5 " fill="none" id="ca_scp1_d4_cache_rest-backto-ca_scp1_d4_actor_ui" style="stroke:#A80036;stroke-width:1.0;"/><polygon fill="#A80036" points="1178.7,344.5,1169.7,340.5,1173.7,344.5,1169.7,348.5,1178.7,344.5" style="stroke:#A80036;stroke-width:1.0;"/><text fill="#000000" font-family="sans-serif" font-size="13" lengthAdjust="spacing" textLength="24" x="1136.75" y="338.0684">GET</text><!--MD5=[4b5965c76b5b5f656aeae5e76be5074b]
link ca_scp1_d4_adpt_timer to ca_scp1_d4_adpt_conv--><path d="M932.38,344.5 C944,344.5 955.62,344.5 967.25,344.5 " fill="none" id="ca_scp1_d4_adpt_timer-ca_scp1_d4_adpt_conv" style="stroke:#A80036;stroke-width:1.0;"/><!--MD5=[e569c080027031fdb87577ace6e40639]
link ca_scp1_d4_adpt_conv to ca_scp1_d4_spot_webio--><path d="M992.6,362.56 C980.58,375.63 965.62,394.8 959,415 C944.39,459.62 952.67,513.98 961.43,549.83 " fill="none" id="ca_scp1_d4_adpt_conv-to-ca_scp1_d4_spot_webio" style="stroke:#A80036;stroke-width:1.0;"/><polygon fill="#A80036" points="962.73,554.98,964.4277,545.2786,961.5173,550.1293,956.6666,547.2189,962.73,554.98" style="stroke:#A80036;stroke-width:1.0;"/><text fill="#000000" font-family="sans-serif" font-size="13" lengthAdjust="spacing" textLength="24" x="960" y="428.5684">GET</text><!--MD5=[3637ca738a5c7b0320b423c41ff7e0a5]
link ca_scp1_d4_adpt_conv to ca_scp1_ds1--><path d="M1020.62,362.59 C1045.86,403.21 1109.74,506 1141.89,557.75 " fill="none" id="ca_scp1_d4_adpt_conv-ca_scp1_ds1" style="stroke:#A80036;stroke-width:1.0;stroke-dasharray:7.0,7.0;"/><!--MD5=[294e57bf6f39a09d9b12b04ec6d40614]
link ca_scp1_d4_adpt_conv to ca_scp1_ds2--><path d="M1021.77,362.62 C1030.11,373.48 1042.23,386.95 1056,395 C1129.8,438.15 1175.01,388.18 1243,440 C1282.12,469.81 1305.09,523.92 1316.34,557.94 " fill="none" id="ca_scp1_d4_adpt_conv-ca_scp1_ds2" style="stroke:#A80036;stroke-width:1.0;stroke-dasharray:7.0,7.0;"/><!--MD5=[1635e604997374ea39dbea3fd2780885]
link ca_scp1_d4_adpt_conv to ca_scp1_d4_cache_rest--><path d="M1012.56,326.47 C1016.68,304.96 1027.03,269.94 1052,254 C1069.76,242.66 1132.99,229.32 1175,256 C1194.76,268.55 1205.96,292.86 1212.1,312.83 " fill="none" id="ca_scp1_d4_adpt_conv-to-ca_scp1_d4_cache_rest" style="stroke:#A80036;stroke-width:1.0;"/><polygon fill="#A80036" points="1213.56,317.81,1214.8722,308.0489,1212.1561,313.0111,1207.194,310.2951,1213.56,317.81" style="stroke:#A80036;stroke-width:1.0;"/><text fill="#000000" font-family="sans-serif" font-size="13" lengthAdjust="spacing" textLength="32" x="1053" y="244.5684">POST</text><!--MD5=[e19cfeb4065a7d2bee32219cbaf8769e]
link ca_scp1_d4_prxy_conv to ca_scp1_d4_cache_rest--><path d="M1252.08,199.32 C1245.08,229.83 1233.45,280.52 1226.01,312.95 " fill="none" id="ca_scp1_d4_prxy_conv-to-ca_scp1_d4_cache_rest" style="stroke:#A80036;stroke-width:1.0;"/><polygon fill="#A80036" points="1224.85,317.99,1230.7511,310.1048,1225.9618,313.1152,1222.9514,308.3259,1224.85,317.99" style="stroke:#A80036;stroke-width:1.0;"/><text fill="#000000" font-family="sans-serif" font-size="13" lengthAdjust="spacing" textLength="24" x="1245" y="244.5684">GET</text><!--MD5=[f8db02ad10b224b6486600b7aa8dd634]
link ca_scp1_d4_ui_srv to ca_scp1_d4_cache_rest--><path d="M1144.83,199.06 C1153.58,215.31 1165.07,236.83 1175,256 C1184.79,274.91 1195.53,296.25 1203.95,313.13 " fill="none" id="ca_scp1_d4_ui_srv-to-ca_scp1_d4_cache_rest" style="stroke:#A80036;stroke-width:1.0;"/><polygon fill="#A80036" points="1206.26,317.77,1205.8254,307.9307,1204.0297,313.295,1198.6654,311.4993,1206.26,317.77" style="stroke:#A80036;stroke-width:1.0;"/><text fill="#000000" font-family="sans-serif" font-size="13" lengthAdjust="spacing" textLength="24" x="1171" y="244.5684">GET</text><!--MD5=[cfc8ac851e9c7141643ddcf28e23a2a9]
link ca_scp2_d4_spot_store to ca_scp2_d4_spot_webio--><path d="M181.26,589.5 C189.4,589.5 197.53,589.5 205.67,589.5 " fill="none" id="ca_scp2_d4_spot_store-ca_scp2_d4_spot_webio" style="stroke:#008000;stroke-width:1.0;"/><polygon fill="#008000" points="210.74,589.5,201.74,585.5,205.74,589.5,201.74,593.5,210.74,589.5" style="stroke:#008000;stroke-width:1.0;"/><polygon fill="#008000" points="176.12,589.5,185.12,593.5,181.12,589.5,185.12,585.5,176.12,589.5" style="stroke:#008000;stroke-width:1.0;"/><!--MD5=[e550bb526413d9010581ae86a23b10f6]
link ca_scp2_d4_cache_rest to ca_scp2_d4_cache_store--><path d="M569.45,344.5 C577.56,344.5 585.67,344.5 593.78,344.5 " fill="none" id="ca_scp2_d4_cache_rest-ca_scp2_d4_cache_store" style="stroke:#008000;stroke-width:1.0;"/><polygon fill="#008000" points="598.83,344.5,589.83,340.5,593.83,344.5,589.83,348.5,598.83,344.5" style="stroke:#008000;stroke-width:1.0;"/><polygon fill="#008000" points="564.32,344.5,573.32,348.5,569.32,344.5,573.32,340.5,564.32,344.5" style="stroke:#008000;stroke-width:1.0;"/><!--MD5=[5a8da06cc006107840f1e659d3f90861]
reverse link ca_scp2_d4_ui_srv to ca_scp2_d4_actor_ui--><path d="M415.08,203.82 C410.94,212.33 407.13,221.78 405,231 C399.51,254.8 400.1,282.18 402.14,303.97 " fill="none" id="ca_scp2_d4_ui_srv-backto-ca_scp2_d4_actor_ui" style="stroke:#A80036;stroke-width:1.0;"/><polygon fill="#A80036" points="417.41,199.19,409.7754,205.412,415.1511,203.6506,416.9125,209.0263,417.41,199.19" style="stroke:#A80036;stroke-width:1.0;"/><text fill="#000000" font-family="sans-serif" font-size="13" lengthAdjust="spacing" textLength="24" x="406" y="244.5684">GET</text><!--MD5=[0e0f78942f03777cb85353fc45015885]
reverse link ca_scp2_d4_cache_rest to ca_scp2_d4_actor_ui--><path d="M478.3,344.5 C458.94,344.5 437.66,344.5 423.64,344.5 " fill="none" id="ca_scp2_d4_cache_rest-backto-ca_scp2_d4_actor_ui" style="stroke:#A80036;stroke-width:1.0;"/><polygon fill="#A80036" points="483.7,344.5,474.7,340.5,478.7,344.5,474.7,348.5,483.7,344.5" style="stroke:#A80036;stroke-width:1.0;"/><text fill="#000000" font-family="sans-serif" font-size="13" lengthAdjust="spacing" textLength="24" x="441.75" y="338.0684">GET</text><!--MD5=[b614ff47d788ed0398363111d71d82bd]
link ca_scp2_d4_adpt_timer to ca_scp2_d4_adpt_conv--><path d="M237.38,344.5 C249,344.5 260.62,344.5 272.25,344.5 " fill="none" id="ca_scp2_d4_adpt_timer-ca_scp2_d4_adpt_conv" style="stroke:#A80036;stroke-width:1.0;"/><!--MD5=[dc3f810f9442683d658d84e4ca78dc20]
link ca_scp2_d4_adpt_conv to ca_scp2_d4_spot_webio--><path d="M303.58,362.63 C295.25,376.2 284.64,395.97 280,415 C268.99,460.19 270.53,513.98 273.49,549.56 " fill="none" id="ca_scp2_d4_adpt_conv-to-ca_scp2_d4_spot_webio" style="stroke:#A80036;stroke-width:1.0;"/><polygon fill="#A80036" points="273.94,554.68,277.1545,545.3705,273.5118,549.6984,269.1839,546.0556,273.94,554.68" style="stroke:#A80036;stroke-width:1.0;"/><text fill="#000000" font-family="sans-serif" font-size="13" lengthAdjust="spacing" textLength="24" x="281" y="428.5684">GET</text><!--MD5=[1816903b9d1152228cdcb92d23144e48]
link ca_scp2_d4_adpt_conv to ca_scp2_ds1--><path d="M325.62,362.59 C350.86,403.21 414.74,506 446.89,557.75 " fill="none" id="ca_scp2_d4_adpt_conv-ca_scp2_ds1" style="stroke:#A80036;stroke-width:1.0;stroke-dasharray:7.0,7.0;"/><!--MD5=[c332a0001e79e95543f8599eb1c985af]
link ca_scp2_d4_adpt_conv to ca_scp2_ds2--><path d="M326.77,362.62 C335.11,373.48 347.23,386.95 361,395 C434.8,438.15 480.01,388.18 548,440 C587.12,469.81 610.09,523.92 621.34,557.94 " fill="none" id="ca_scp2_d4_adpt_conv-ca_scp2_ds2" style="stroke:#A80036;stroke-width:1.0;stroke-dasharray:7.0,7.0;"/><!--MD5=[46e2eedb1ee72f94afeeaca75169cf83]
link ca_scp2_d4_adpt_conv to ca_scp2_d4_cache_rest--><path d="M318.73,326.16 C324.09,305.11 336.18,271.51 361,256 C403.22,229.62 423.7,247.09 473,254 C499.68,257.74 512.59,287.92 518.71,312.42 " fill="none" id="ca_scp2_d4_adpt_conv-to-ca_scp2_d4_cache_rest" style="stroke:#A80036;stroke-width:1.0;"/><polygon fill="#A80036" points="519.92,317.55,521.7586,307.8743,518.778,312.6822,513.9701,309.7015,519.92,317.55" style="stroke:#A80036;stroke-width:1.0;"/><text fill="#000000" font-family="sans-serif" font-size="13" lengthAdjust="spacing" textLength="32" x="440" y="244.5684">POST</text><!--MD5=[eaa82ef11c142f0408b80aa34f6b413c]
link ca_scp2_d4_prxy_conv to ca_scp2_d4_cache_rest--><path d="M570.65,199.32 C560.78,229.83 544.38,280.52 533.88,312.95 " fill="none" id="ca_scp2_d4_prxy_conv-to-ca_scp2_d4_cache_rest" style="stroke:#A80036;stroke-width:1.0;"/><polygon fill="#A80036" points="532.25,317.99,538.8314,310.663,533.7925,313.2339,531.2217,308.195,532.25,317.99" style="stroke:#A80036;stroke-width:1.0;"/><text fill="#000000" font-family="sans-serif" font-size="13" lengthAdjust="spacing" textLength="24" x="561" y="244.5684">GET</text><!--MD5=[cc73ec511a5fca8a2ab6a0d1abbc92a4]
link ca_scp2_d4_ui_srv to ca_scp2_d4_cache_rest--><path d="M452.93,199.1 C460.03,208.81 467.8,220.14 474,231 C489.24,257.69 503.13,289.88 512.38,312.98 " fill="none" id="ca_scp2_d4_ui_srv-to-ca_scp2_d4_cache_rest" style="stroke:#A80036;stroke-width:1.0;"/><polygon fill="#A80036" points="514.29,317.77,514.6614,307.9281,512.433,313.1276,507.2336,310.8993,514.29,317.77" style="stroke:#A80036;stroke-width:1.0;"/><text fill="#000000" font-family="sans-serif" font-size="13" lengthAdjust="spacing" textLength="24" x="483" y="244.5684">GET</text><!--MD5=[297578b2df2fa4ba61958aae807ca03f]
@startuml
!include include/d4_inc_scope.puml

package ca as "Company ACME" {
    $d4scope(ca, scp1, "Scope 1", $show_ds1=true, $show_ds2=true, $show_ds3=true, $show_rproxy=true, $show_cache=true, $show_ui=true, $show_adpt=true)
    $d4scope(ca, scp2, "Scope 2", $show_ds1=true, $show_ds2=true, $show_ds3=true, $show_rproxy=true, $show_cache=true, $show_ui=true, $show_adpt=true)
}

@enduml

@startuml

skinparam LegendFontSize 8










package ca as "Company ACME" {
        package ca_scp1 as "Scope 1" {

            node ca_scp1_ds1 as "(foreign)\ndatasource 1"

            node ca_scp1_ds2 as "(foreign)\ndatasource 2"

            node ca_scp1_ds3 as "(own) datasource 3"{
                    card ca_scp1_d4_spot as "d4 spot" {
        storage ca_scp1_d4_spot_store as "reliable\nstorage"
        rectangle ca_scp1_d4_spot_webio as "UI-Form &\nUI-Im-/Export &\nREST-Interface"
        ca_scp1_d4_spot_store <-[#green]> ca_scp1_d4_spot_webio
        }
            }

                card ca_scp1_d4_prxy as "d4 proxy" {
        rectangle ca_scp1_d4_prxy_conv as "reverse\nproxy"
    }

                card ca_scp1_d4_cache as "d4 cache" {
        rectangle ca_scp1_d4_cache_rest as "REST-\ninterface"
        storage ca_scp1_d4_cache_store as "volatile\nstorage"
        ca_scp1_d4_cache_store <-l-> ca_scp1_d4_cache_rest #green
    }

                card ca_scp1_d4_ui as "d4 UI" {
        rectangle ca_scp1_d4_ui_srv as "UI\nserver"
    }

            actor ca_scp1_d4_actor_ui as "User"
            ca_scp1_d4_actor_ui -l-> ca_scp1_d4_ui_srv : GET

            ca_scp1_d4_cache_rest <- ca_scp1_d4_actor_ui : GET

                card ca_scp1_d4_adpt as "d4 adapter" {
        control ca_scp1_d4_adpt_timer as "timer"
        rectangle ca_scp1_d4_adpt_conv as "converter"
        ca_scp1_d4_adpt_timer -r- ca_scp1_d4_adpt_conv
    }

            ca_scp1_d4_spot_webio <-u- ca_scp1_d4_adpt_conv : GET

            ca_scp1_ds1 .u. ca_scp1_d4_adpt_conv

            ca_scp1_ds2 .u. ca_scp1_d4_adpt_conv

            ca_scp1_d4_adpt_conv -r-> ca_scp1_d4_cache_rest : POST

            ca_scp1_d4_prxy_conv -d-> ca_scp1_d4_cache_rest : GET

            ca_scp1_d4_ui_srv -d-> ca_scp1_d4_cache_rest : GET

    }
        package ca_scp2 as "Scope 2" {

            node ca_scp2_ds1 as "(foreign)\ndatasource 1"

            node ca_scp2_ds2 as "(foreign)\ndatasource 2"

            node ca_scp2_ds3 as "(own) datasource 3"{
                    card ca_scp2_d4_spot as "d4 spot" {
        storage ca_scp2_d4_spot_store as "reliable\nstorage"
        rectangle ca_scp2_d4_spot_webio as "UI-Form &\nUI-Im-/Export &\nREST-Interface"
        ca_scp2_d4_spot_store <-[#green]> ca_scp2_d4_spot_webio
        }
            }

                card ca_scp2_d4_prxy as "d4 proxy" {
        rectangle ca_scp2_d4_prxy_conv as "reverse\nproxy"
    }

                card ca_scp2_d4_cache as "d4 cache" {
        rectangle ca_scp2_d4_cache_rest as "REST-\ninterface"
        storage ca_scp2_d4_cache_store as "volatile\nstorage"
        ca_scp2_d4_cache_store <-l-> ca_scp2_d4_cache_rest #green
    }

                card ca_scp2_d4_ui as "d4 UI" {
        rectangle ca_scp2_d4_ui_srv as "UI\nserver"
    }

            actor ca_scp2_d4_actor_ui as "User"
            ca_scp2_d4_actor_ui -l-> ca_scp2_d4_ui_srv : GET

            ca_scp2_d4_cache_rest <- ca_scp2_d4_actor_ui : GET

                card ca_scp2_d4_adpt as "d4 adapter" {
        control ca_scp2_d4_adpt_timer as "timer"
        rectangle ca_scp2_d4_adpt_conv as "converter"
        ca_scp2_d4_adpt_timer -r- ca_scp2_d4_adpt_conv
    }

            ca_scp2_d4_spot_webio <-u- ca_scp2_d4_adpt_conv : GET

            ca_scp2_ds1 .u. ca_scp2_d4_adpt_conv

            ca_scp2_ds2 .u. ca_scp2_d4_adpt_conv

            ca_scp2_d4_adpt_conv -r-> ca_scp2_d4_cache_rest : POST

            ca_scp2_d4_prxy_conv -d-> ca_scp2_d4_cache_rest : GET

            ca_scp2_d4_ui_srv -d-> ca_scp2_d4_cache_rest : GET

    }
}

@enduml

PlantUML version 1.2021.14(Fri Nov 12 17:46:50 CET 2021)
(GPL source distribution)
Java Runtime: OpenJDK Runtime Environment
JVM: OpenJDK 64-Bit Server VM
Default Encoding: UTF-8
Language: de
Country: DE
--></g></svg>